<svg width="53" height="60" viewBox="0 0 53 60" fill="none" xmlns="http://www.w3.org/2000/svg">
<g clip-path="url(#clip0_133_63)">
<path d="M52.7184 29.9124C52.7184 26.4345 48.363 23.1385 41.6855 21.0946C43.2264 14.2886 42.5416 8.87383 39.5238 7.14024C38.8282 6.7336 38.015 6.54097 37.1268 6.54097V8.92734C37.619 8.92734 38.015 9.02365 38.3467 9.20557C39.8021 10.0403 40.4334 13.2185 39.9412 17.3064C39.8235 18.3123 39.6308 19.3717 39.3954 20.4525C37.298 19.9389 35.0079 19.5429 32.6002 19.2861C31.1555 17.3064 29.6573 15.5086 28.1485 13.9355C31.6371 10.693 34.9116 8.91664 37.1375 8.91664V6.53027C34.1946 6.53027 30.3422 8.62771 26.447 12.2661C22.5518 8.64911 18.6993 6.57308 15.7565 6.57308V8.95944C17.9716 8.95944 21.2569 10.7251 24.7455 13.9462C23.2473 15.5193 21.7492 17.3064 20.3259 19.2861C17.9074 19.5429 15.6174 19.9389 13.52 20.4632C13.2738 19.3931 13.0919 18.3551 12.9635 17.3599C12.4605 13.272 13.0812 10.0938 14.5259 9.24837C14.8469 9.05575 15.2642 8.97014 15.7565 8.97014V6.58378C14.8576 6.58378 14.0443 6.7764 13.338 7.18305C10.331 8.91664 9.65683 14.3207 11.2085 21.1053C4.55236 23.1599 0.218384 26.4452 0.218384 29.9124C0.218384 33.3902 4.57376 36.6862 11.2513 38.7301C9.71033 45.5361 10.3952 50.9509 13.4129 52.6845C14.1085 53.0911 14.9218 53.2837 15.8207 53.2837C18.7635 53.2837 22.616 51.1863 26.5112 47.5479C30.4064 51.1649 34.2588 53.2409 37.2017 53.2409C38.1006 53.2409 38.9139 53.0483 39.6201 52.6417C42.6272 50.9081 43.3013 45.504 41.7497 38.7194C48.3844 36.6755 52.7184 33.3795 52.7184 29.9124ZM38.7854 22.7747C38.3895 24.1551 37.8972 25.5784 37.3408 27.0016C36.902 26.1455 36.4419 25.2894 35.9389 24.4334C35.4467 23.5773 34.9223 22.7426 34.398 21.9293C35.9175 22.154 37.3836 22.4322 38.7854 22.7747ZM33.8843 34.1714C33.0496 35.6161 32.1935 36.9858 31.3053 38.2593C29.7108 38.3984 28.095 38.4733 26.4684 38.4733C24.8525 38.4733 23.2366 38.3984 21.6529 38.27C20.7647 36.9965 19.8979 35.6375 19.0632 34.2035C18.2499 32.8017 17.5115 31.3784 16.8373 29.9445C17.5008 28.5105 18.2499 27.0765 19.0525 25.6747C19.8872 24.23 20.7432 22.8603 21.6314 21.5868C23.2259 21.4477 24.8418 21.3728 26.4684 21.3728C28.0843 21.3728 29.7001 21.4477 31.2839 21.5761C32.1721 22.8496 33.0389 24.2086 33.8736 25.6426C34.6869 27.0444 35.4253 28.4677 36.0994 29.9017C35.4253 31.3356 34.6869 32.7696 33.8843 34.1714ZM37.3408 32.7803C37.9186 34.2142 38.4109 35.6482 38.8176 37.0393C37.4157 37.3818 35.9389 37.6707 34.4087 37.8954C34.933 37.0714 35.4574 36.2261 35.9496 35.3593C36.4419 34.5032 36.902 33.6364 37.3408 32.7803ZM26.4898 44.1984C25.4946 43.1711 24.4994 42.0261 23.5149 40.7741C24.478 40.8169 25.4625 40.849 26.4577 40.849C27.4636 40.849 28.4588 40.8276 29.4326 40.7741C28.4695 42.0261 27.4743 43.1711 26.4898 44.1984ZM18.5281 37.8954C17.0085 37.6707 15.5425 37.3925 14.1406 37.05C14.5366 35.6696 15.0288 34.2463 15.5853 32.8231C16.024 33.6792 16.4842 34.5353 16.9871 35.3914C17.4901 36.2475 18.0037 37.0821 18.5281 37.8954ZM26.4363 15.6263C27.4315 16.6536 28.4267 17.7986 29.4112 19.0507C28.4481 19.0079 27.4636 18.9757 26.4684 18.9757C25.4625 18.9757 24.4673 18.9972 23.4935 19.0507C24.4566 17.7986 25.4518 16.6536 26.4363 15.6263ZM18.5174 21.9293C17.993 22.7533 17.4687 23.5987 16.9764 24.4655C16.4842 25.3216 16.024 26.1776 15.5853 27.0337C15.0074 25.5998 14.5152 24.1658 14.1085 22.7747C15.5104 22.4429 16.9871 22.154 18.5174 21.9293ZM8.83284 35.3272C5.04462 33.7113 2.59405 31.5924 2.59405 29.9124C2.59405 28.2323 5.04462 26.1027 8.83284 24.4976C9.75314 24.1016 10.759 23.7485 11.7971 23.4167C12.407 25.5142 13.2096 27.6972 14.2048 29.9338C13.2203 32.1596 12.4284 34.3319 11.8292 36.4187C10.7698 36.0869 9.76384 35.7231 8.83284 35.3272ZM14.5901 50.6191C13.1347 49.7845 12.5033 46.6062 12.9956 42.5183C13.1133 41.5124 13.3059 40.453 13.5414 39.3722C15.6388 39.8859 17.9288 40.2818 20.3366 40.5386C21.7813 42.5183 23.2794 44.3161 24.7883 45.8892C21.2997 49.1317 18.0252 50.9081 15.7993 50.9081C15.3178 50.8974 14.9111 50.8011 14.5901 50.6191ZM39.9733 42.4648C40.4762 46.5527 39.8556 49.7309 38.4109 50.5763C38.0899 50.769 37.6725 50.8546 37.1803 50.8546C34.9651 50.8546 31.6799 49.0889 28.1913 45.8678C29.6894 44.2947 31.1876 42.5076 32.6109 40.5279C35.0293 40.2711 37.3194 39.8752 39.4168 39.3508C39.6629 40.4316 39.8556 41.4696 39.9733 42.4648ZM44.0932 35.3272C43.1729 35.7231 42.167 36.0762 41.129 36.408C40.519 34.3105 39.7164 32.1275 38.7212 29.891C39.7057 27.6651 40.4976 25.4928 41.0969 23.406C42.1563 23.7378 43.1622 24.1016 44.1039 24.4976C47.8922 26.1134 50.3427 28.2323 50.3427 29.9124C50.332 31.5924 47.8815 33.722 44.0932 35.3272Z" fill="white"/>
<path d="M26.4578 34.8029C29.1587 34.8029 31.3483 32.6133 31.3483 29.9124C31.3483 27.2115 29.1587 25.022 26.4578 25.022C23.7569 25.022 21.5674 27.2115 21.5674 29.9124C21.5674 32.6133 23.7569 34.8029 26.4578 34.8029Z" fill="white"/>
</g>
<defs>
<clipPath id="clip0_133_63">
<rect width="52.5" height="59.8222" fill="white" transform="translate(0.218384 -0.00390625)"/>
</clipPath>
</defs>
</svg>
