<svg width="100.000000" height="100.000000" viewBox="0 0 100 100" fill="none" xmlns="http://www.w3.org/2000/svg" xmlns:xlink="http://www.w3.org/1999/xlink">
	<desc>
			Created with Pixso.
	</desc>
	<defs>
		<clipPath id="clip150_366">
			<rect id="14" rx="-0.500000" width="99.000000" height="99.000000" transform="matrix(-1 0 0 1 100.5 0.5)" fill="white" fill-opacity="0"/>
		</clipPath>
		<linearGradient x1="61.999992" y1="61.000000" x2="86.000000" y2="86.000000" id="paint_linear_150_368_0" gradientUnits="userSpaceOnUse">
			<stop stop-color="#3E3E3E"/>
			<stop offset="0.405571" stop-color="#3E3E3E"/>
			<stop offset="1.000000" stop-color="#3E3E3E"/>
		</linearGradient>
		<linearGradient x1="37.999992" y1="61.000000" x2="62.000000" y2="86.000000" id="paint_linear_150_376_0" gradientUnits="userSpaceOnUse">
			<stop stop-color="#3E3E3E"/>
			<stop offset="0.405571" stop-color="#3E3E3E"/>
			<stop offset="1.000000" stop-color="#3E3E3E"/>
		</linearGradient>
		<linearGradient x1="14.000051" y1="61.000000" x2="38.000061" y2="86.000000" id="paint_linear_150_384_0" gradientUnits="userSpaceOnUse">
			<stop stop-color="#3E3E3E"/>
			<stop offset="0.405571" stop-color="#3E3E3E"/>
			<stop offset="1.000000" stop-color="#3E3E3E"/>
		</linearGradient>
		<linearGradient x1="61.999992" y1="37.000000" x2="86.000000" y2="62.000000" id="paint_linear_150_393_0" gradientUnits="userSpaceOnUse">
			<stop stop-color="#3E3E3E"/>
			<stop offset="0.405571" stop-color="#3E3E3E"/>
			<stop offset="1.000000" stop-color="#3E3E3E"/>
		</linearGradient>
		<linearGradient x1="37.999992" y1="37.000000" x2="62.000000" y2="62.000000" id="paint_linear_150_401_0" gradientUnits="userSpaceOnUse">
			<stop stop-color="#3E3E3E"/>
			<stop offset="0.405571" stop-color="#3E3E3E"/>
			<stop offset="1.000000" stop-color="#3E3E3E"/>
		</linearGradient>
		<linearGradient x1="14.000051" y1="37.000000" x2="38.000061" y2="62.000000" id="paint_linear_150_409_0" gradientUnits="userSpaceOnUse">
			<stop stop-color="#3E3E3E"/>
			<stop offset="0.405571" stop-color="#3E3E3E"/>
			<stop offset="1.000000" stop-color="#3E3E3E"/>
		</linearGradient>
		<linearGradient x1="61.999992" y1="13.000000" x2="86.000000" y2="38.000000" id="paint_linear_150_418_0" gradientUnits="userSpaceOnUse">
			<stop stop-color="#3E3E3E"/>
			<stop offset="0.405571" stop-color="#3E3E3E"/>
			<stop offset="1.000000" stop-color="#3E3E3E"/>
		</linearGradient>
		<linearGradient x1="37.999992" y1="13.000000" x2="62.000000" y2="38.000000" id="paint_linear_150_426_0" gradientUnits="userSpaceOnUse">
			<stop stop-color="#3E3E3E"/>
			<stop offset="0.405571" stop-color="#3E3E3E"/>
			<stop offset="1.000000" stop-color="#3E3E3E"/>
		</linearGradient>
		<linearGradient x1="14.000051" y1="13.000000" x2="38.000061" y2="38.000000" id="paint_linear_150_434_0" gradientUnits="userSpaceOnUse">
			<stop stop-color="#3E3E3E"/>
			<stop offset="0.405571" stop-color="#3E3E3E"/>
			<stop offset="1.000000" stop-color="#3E3E3E"/>
		</linearGradient>
	</defs>
	<g clip-path="url(#clip150_366)">
		<path id="Union" d="M74 62C67.3726 62 62 67.3726 62 74C62 80.6274 67.3726 86 74 86L76.3671 86C76.3781 86 76.389 86 76.4 86L86 86L86 74C86 67.3726 80.6274 62 74 62ZM71.5438 85.3652Q71.4901 85.3538 71.4365 85.3416Q70.4358 85.1162 69.4758 84.71Q68.4996 84.2971 67.6279 83.7251L67.6278 83.7251Q66.637 83.075 65.7811 82.219Q64.9255 81.3633 64.2754 80.3728L64.2753 80.3728Q63.703 79.5007 63.2899 78.5242Q62.8839 77.5642 62.6584 76.5637L62.6582 76.563Q62.3767 75.3132 62.3767 74Q62.3767 72.6863 62.6584 71.4363L62.6584 71.4363L62.6584 71.436Q62.8839 70.4355 63.2899 69.4758Q63.7029 68.4995 64.275 67.6277L64.2751 67.6274Q64.9253 66.6367 65.7811 65.781Q66.6367 64.9253 67.6273 64.2751L67.6273 64.2751Q68.4993 63.7029 69.4758 63.2898Q70.4359 62.8838 71.4367 62.6582Q72.6866 62.3767 74 62.3767Q75.3135 62.3767 76.5634 62.6582L76.5635 62.6582L76.5635 62.6582Q77.5642 62.8838 78.5242 63.2898Q79.5007 63.7029 80.3727 64.2751Q81.3633 64.9253 82.219 65.781Q83.0746 66.6367 83.7248 67.6272L83.7248 67.6272L83.7248 67.6272Q84.2971 68.4993 84.7101 69.4758Q85.1161 70.4358 85.3417 71.4363L85.3417 71.4365Q85.3537 71.4895 85.3651 71.543C83.8666 67.3779 79.8811 64.3999 75.2 64.3999C69.2354 64.3999 64.4 69.2351 64.4 75.2C64.4 79.8813 67.3785 83.8669 71.5438 85.3652ZM72.4417 85.1487Q71.8029 84.9712 71.1832 84.709Q70.3172 84.3428 69.5439 83.8354L69.5433 83.8352L69.5433 83.8352Q68.663 83.2576 67.9027 82.4973Q67.1424 81.7368 66.5649 80.8567L66.5649 80.8567L66.5648 80.8567Q66.0572 80.083 65.6908 79.2168Q65.331 78.366 65.1308 77.479Q64.88 76.3677 64.88 75.2Q64.88 74.032 65.1308 72.9207L65.1311 72.9194Q65.3312 72.0332 65.6908 71.1831Q66.0572 70.3169 66.5648 69.5432L66.5653 69.5425Q67.1427 68.6626 67.9027 67.9026Q68.6631 67.1421 69.5434 66.5647L69.5434 66.5647Q70.317 66.0571 71.1832 65.6907Q72.034 65.3308 72.9209 65.1306L72.9209 65.1306L72.9209 65.1306Q74.0322 64.8799 75.2 64.8799Q76.3678 64.8799 77.479 65.1306L77.4791 65.1306L77.4799 65.1309Q78.3664 65.3311 79.2169 65.6907Q80.083 66.0571 80.8565 66.5645L80.8566 66.5645L80.8566 66.5645Q81.7369 67.1421 82.4973 67.9026Q83.2577 68.6628 83.8353 69.5432Q84.3428 70.3169 84.7092 71.1831Q84.9716 71.8032 85.149 72.4429C83.6415 69.115 80.2911 66.8 76.4 66.8C71.0981 66.8 66.8 71.0981 66.8 76.4001C66.8 80.2908 69.1145 83.6409 72.4417 85.1487ZM74.0531 85.2166Q73.4418 85.0537 72.8503 84.8035Q72.0851 84.48 71.4017 84.0315L71.4011 84.0312Q70.6232 83.5208 69.9512 82.8489Q69.279 82.1765 68.7684 81.3982L68.7673 81.3965Q68.3197 80.7139 67.9965 79.9497Q67.6788 79.1985 67.5019 78.4155L67.5019 78.4153Q67.28 77.4329 67.28 76.4001Q67.28 75.3674 67.5019 74.3848Q67.6787 73.6016 67.9965 72.8503Q68.3202 72.0852 68.7685 71.4016Q69.279 70.6235 69.9512 69.9512Q70.6233 69.2791 71.4014 68.7688L71.4018 68.7686L71.4018 68.7683Q72.0851 68.3201 72.8503 67.9966Q73.6016 67.6787 74.3847 67.502L74.3848 67.502Q75.3673 67.28 76.4 67.28Q77.4327 67.28 78.4152 67.502L78.4153 67.502L78.4153 67.502Q79.1984 67.6787 79.9498 67.9966Q80.7149 68.3201 81.3983 68.7686L81.3983 68.7686L81.3984 68.7686Q82.1766 69.2791 82.8488 69.9512Q83.521 70.6235 84.0316 71.4019L84.0316 71.4019Q84.4799 72.0852 84.8035 72.8503Q85.0536 73.4414 85.2164 74.0525C83.8791 71.1863 80.9715 69.2 77.6 69.2C72.9608 69.2 69.2 72.9607 69.2 77.5999C69.2 80.9717 71.1866 83.8794 74.0531 85.2166ZM85.52 81.1997L85.52 81.2L85.52 85.5198L81.1776 85.5198Q80.6973 85.5176 80.2401 85.4136L80.2384 85.4133Q79.8711 85.3296 79.5186 85.1807Q79.1576 85.0278 78.835 84.8167L78.8349 84.8167L78.8349 84.8167Q78.4649 84.5742 78.1453 84.2546Q77.8258 83.9351 77.5834 83.5649L77.5833 83.5649Q77.372 83.2422 77.2193 82.8813Q77.0699 82.5281 76.9863 82.1599L76.9863 82.1599Q76.88 81.6919 76.88 81.2Q76.88 80.7078 76.9863 80.24Q77.0699 79.8718 77.2193 79.5186Q77.372 79.1575 77.5834 78.8347Q77.8258 78.4648 78.1453 78.1453Q78.4649 77.8257 78.835 77.5833Q79.1576 77.3718 79.5186 77.2192Q79.8719 77.0698 80.2401 76.9861Q80.708 76.8799 81.2 76.8799Q81.692 76.8799 82.1599 76.9861L82.1599 76.9861Q82.5281 77.0698 82.8814 77.2192Q83.2424 77.3718 83.565 77.5833Q83.9351 77.8257 84.2547 78.1453Q84.5739 78.4644 84.8162 78.834L84.8167 78.835L84.8168 78.835Q85.028 79.1575 85.1807 79.5186Q85.3301 79.8718 85.4137 80.24L85.4138 80.24Q85.52 80.7078 85.52 81.1997ZM75.6642 85.283Q75.0805 85.136 74.5173 84.8977Q73.8533 84.6169 73.2602 84.2278L73.2601 84.2278L73.26 84.2278Q72.5838 83.7842 71.9997 83.2002Q71.4157 82.6162 70.9722 81.9399L70.9721 81.9399Q70.5831 81.3467 70.3022 80.6826Q70.0266 80.031 69.873 79.3516L69.873 79.3516L69.873 79.3513Q69.68 78.4976 69.68 77.5999Q69.68 76.7024 69.873 75.8484L69.8732 75.8474Q70.0267 75.1685 70.3022 74.5173Q70.583 73.8535 70.9717 73.2607L70.9722 73.26Q71.4157 72.5837 71.9997 71.9998Q72.5838 71.4155 73.26 70.9722L73.26 70.9722Q73.8532 70.583 74.5173 70.3022Q75.1692 70.0264 75.8486 69.8728L75.8488 69.8728Q76.7026 69.6799 77.6 69.6799Q78.4976 69.6799 79.3515 69.873Q80.0309 70.0264 80.6827 70.3022Q81.3468 70.583 81.9399 70.9722L81.94 70.9722L81.9404 70.9724Q82.6164 71.4158 83.2003 71.9998Q83.7843 72.5837 84.2279 73.26L84.2279 73.26Q84.6169 73.8533 84.8978 74.5173Q85.1359 75.0801 85.2828 75.6636C84.1171 73.2583 81.6522 71.5999 78.8 71.5999C74.8236 71.5999 71.6 74.8235 71.6 78.7998C71.6 81.6523 73.2587 84.1172 75.6642 85.283ZM77.276 85.3474Q76.7193 85.2183 76.1844 84.9919Q75.6214 84.7537 75.1184 84.4241L75.1176 84.4236Q74.5438 84.0471 74.0483 83.5515Q73.5526 83.0559 73.1762 82.4819L73.1759 82.4817L73.1759 82.4814L73.1759 82.4814Q72.8461 81.9785 72.6079 81.4155Q72.3745 80.8635 72.2443 80.2886L72.2441 80.2876Q72.08 79.5623 72.08 78.7998Q72.08 78.0376 72.2441 77.3123L72.2441 77.3123Q72.3743 76.7366 72.6079 76.1843Q72.8461 75.6213 73.1758 75.1182L73.1759 75.1182L73.1759 75.1182Q73.5524 74.5439 74.0483 74.0481Q74.5439 73.5525 75.1178 73.176L75.1183 73.1758L75.1187 73.1755Q75.6216 72.8457 76.1844 72.6077Q76.7367 72.374 77.3124 72.2439L77.3128 72.2439Q78.0379 72.0798 78.8 72.0798Q79.5623 72.0798 80.2876 72.2439L80.2876 72.2439Q80.8633 72.374 81.4156 72.6077Q81.9785 72.8459 82.4814 73.1755L82.4817 73.1758L82.4817 73.1758Q83.0559 73.5522 83.5518 74.0481Q84.0477 74.5439 84.4241 75.1182L84.4246 75.1189Q84.7541 75.6216 84.9921 76.1843Q85.2185 76.7195 85.3478 77.2766C84.3554 75.3318 82.3332 74 80 74C76.6863 74 74 76.6863 74 80C74 82.333 75.3315 84.355 77.276 85.3474ZM78.8923 85.4097Q78.8341 85.3979 78.7762 85.3848Q78.3043 85.2778 77.8515 85.0864Q77.3895 84.8909 76.9768 84.6204L76.9767 84.6204L76.9767 84.6204L76.9756 84.6196Q76.504 84.3105 76.0968 83.9033Q75.6891 83.4956 75.3796 83.0234L75.3796 83.0234L75.3796 83.0232Q75.109 82.6106 74.9136 82.1484Q74.7222 81.696 74.6153 81.2244L74.6152 81.2239Q74.48 80.6272 74.48 80Q74.48 79.3728 74.6152 78.7761L74.6152 78.7761Q74.7221 78.3042 74.9136 77.8516Q75.1091 77.3894 75.3796 76.9766L75.3796 76.9766Q75.6891 76.5044 76.0968 76.0967Q76.5045 75.689 76.9767 75.3796L76.9776 75.3789Q77.39 75.1089 77.8515 74.9136Q78.3043 74.7222 78.7763 74.6152Q79.3728 74.48 80 74.48Q80.6272 74.48 81.2237 74.6152L81.2238 74.6152Q81.6957 74.7222 82.1485 74.9136Q82.6105 75.1091 83.0234 75.3796L83.0234 75.3796Q83.4955 75.689 83.9032 76.0967Q84.311 76.5044 84.6204 76.9766L84.6204 76.9766Q84.891 77.3894 85.0864 77.8516Q85.2779 78.3042 85.3848 78.7761L85.3848 78.7761Q85.3979 78.834 85.4097 78.8918C84.5937 77.4065 83.0144 76.3999 81.2 76.3999C78.549 76.3999 76.4 78.5488 76.4 81.2C76.4 83.0144 77.4069 84.5938 78.8923 85.4097Z" clip-rule="evenodd" fill="url(#paint_linear_150_368_0)" fill-opacity="1.000000" fill-rule="evenodd"/>
		<path id="Union" d="M50 62C43.3726 62 38 67.3726 38 74C38 80.6274 43.3726 86 50 86L52.3671 86C52.3781 86 52.389 86 52.4 86L62 86L62 74C62 67.3726 56.6274 62 50 62ZM47.5438 85.3652Q47.4901 85.3538 47.4365 85.3416Q46.4358 85.1162 45.4758 84.71Q44.4996 84.2971 43.6279 83.7251L43.6278 83.7251Q42.637 83.075 41.7811 82.219Q40.9255 81.3633 40.2754 80.3728L40.2753 80.3728Q39.703 79.5007 39.2899 78.5242Q38.8839 77.5642 38.6584 76.5637L38.6582 76.563Q38.3767 75.3132 38.3767 74Q38.3767 72.6863 38.6584 71.4363L38.6584 71.4363L38.6584 71.436Q38.8839 70.4355 39.2899 69.4758Q39.7029 68.4995 40.275 67.6277L40.2751 67.6274Q40.9253 66.6367 41.7811 65.781Q42.6367 64.9253 43.6273 64.2751L43.6273 64.2751Q44.4993 63.7029 45.4758 63.2898Q46.4359 62.8838 47.4367 62.6582Q48.6866 62.3767 50 62.3767Q51.3135 62.3767 52.5634 62.6582L52.5635 62.6582L52.5635 62.6582Q53.5642 62.8838 54.5242 63.2898Q55.5007 63.7029 56.3727 64.2751Q57.3633 64.9253 58.219 65.781Q59.0746 66.6367 59.7248 67.6272L59.7248 67.6272L59.7248 67.6272Q60.2971 68.4993 60.7101 69.4758Q61.1161 70.4358 61.3417 71.4363L61.3417 71.4365Q61.3537 71.4895 61.3651 71.543C59.8666 67.3779 55.8811 64.3999 51.2 64.3999C45.2354 64.3999 40.4 69.2351 40.4 75.2C40.4 79.8813 43.3785 83.8669 47.5438 85.3652ZM48.4417 85.1487Q47.8029 84.9712 47.1832 84.709Q46.3172 84.3428 45.5439 83.8354L45.5433 83.8352L45.5433 83.8352Q44.663 83.2576 43.9027 82.4973Q43.1424 81.7368 42.5649 80.8567L42.5649 80.8567L42.5648 80.8567Q42.0572 80.083 41.6908 79.2168Q41.331 78.366 41.1308 77.479Q40.88 76.3677 40.88 75.2Q40.88 74.032 41.1308 72.9207L41.1311 72.9194Q41.3312 72.0332 41.6908 71.1831Q42.0572 70.3169 42.5648 69.5432L42.5653 69.5425Q43.1427 68.6626 43.9027 67.9026Q44.6631 67.1421 45.5434 66.5647L45.5434 66.5647Q46.317 66.0571 47.1832 65.6907Q48.034 65.3308 48.9209 65.1306L48.9209 65.1306L48.9209 65.1306Q50.0322 64.8799 51.2 64.8799Q52.3678 64.8799 53.479 65.1306L53.4791 65.1306L53.4799 65.1309Q54.3664 65.3311 55.2169 65.6907Q56.083 66.0571 56.8565 66.5645L56.8566 66.5645L56.8566 66.5645Q57.7369 67.1421 58.4973 67.9026Q59.2577 68.6628 59.8353 69.5432Q60.3428 70.3169 60.7092 71.1831Q60.9716 71.8032 61.149 72.4429C59.6415 69.115 56.2911 66.8 52.4 66.8C47.0981 66.8 42.8 71.0981 42.8 76.4001C42.8 80.2908 45.1145 83.6409 48.4417 85.1487ZM50.0531 85.2166Q49.4418 85.0537 48.8503 84.8035Q48.0851 84.48 47.4017 84.0315L47.4011 84.0312Q46.6232 83.5208 45.9512 82.8489Q45.279 82.1765 44.7684 81.3982L44.7673 81.3965Q44.3197 80.7139 43.9965 79.9497Q43.6788 79.1985 43.5019 78.4155L43.5019 78.4153Q43.28 77.4329 43.28 76.4001Q43.28 75.3674 43.5019 74.3848Q43.6787 73.6016 43.9965 72.8503Q44.3202 72.0852 44.7685 71.4016Q45.279 70.6235 45.9512 69.9512Q46.6233 69.2791 47.4014 68.7688L47.4018 68.7686L47.4018 68.7683Q48.0851 68.3201 48.8503 67.9966Q49.6016 67.6787 50.3847 67.502L50.3848 67.502Q51.3673 67.28 52.4 67.28Q53.4327 67.28 54.4152 67.502L54.4153 67.502L54.4153 67.502Q55.1984 67.6787 55.9498 67.9966Q56.7149 68.3201 57.3983 68.7686L57.3983 68.7686L57.3984 68.7686Q58.1766 69.2791 58.8488 69.9512Q59.521 70.6235 60.0316 71.4019L60.0316 71.4019Q60.4799 72.0852 60.8035 72.8503Q61.0536 73.4414 61.2164 74.0525C59.8791 71.1863 56.9715 69.2 53.6 69.2C48.9608 69.2 45.2 72.9607 45.2 77.5999C45.2 80.9717 47.1866 83.8794 50.0531 85.2166ZM61.52 81.1997L61.52 81.2L61.52 85.5198L57.1776 85.5198Q56.6973 85.5176 56.2401 85.4136L56.2384 85.4133Q55.8711 85.3296 55.5186 85.1807Q55.1576 85.0278 54.835 84.8167L54.8349 84.8167L54.8349 84.8167Q54.4649 84.5742 54.1453 84.2546Q53.8258 83.9351 53.5834 83.5649L53.5833 83.5649Q53.372 83.2422 53.2193 82.8813Q53.0699 82.5281 52.9863 82.1599L52.9863 82.1599Q52.88 81.6919 52.88 81.2Q52.88 80.7078 52.9863 80.24Q53.0699 79.8718 53.2193 79.5186Q53.372 79.1575 53.5834 78.8347Q53.8258 78.4648 54.1453 78.1453Q54.4649 77.8257 54.835 77.5833Q55.1576 77.3718 55.5186 77.2192Q55.8719 77.0698 56.2401 76.9861Q56.708 76.8799 57.2 76.8799Q57.692 76.8799 58.1599 76.9861L58.1599 76.9861Q58.5281 77.0698 58.8814 77.2192Q59.2424 77.3718 59.565 77.5833Q59.9351 77.8257 60.2547 78.1453Q60.5739 78.4644 60.8162 78.834L60.8167 78.835L60.8168 78.835Q61.028 79.1575 61.1807 79.5186Q61.3301 79.8718 61.4137 80.24L61.4138 80.24Q61.52 80.7078 61.52 81.1997ZM51.6642 85.283Q51.0805 85.136 50.5173 84.8977Q49.8533 84.6169 49.2602 84.2278L49.2601 84.2278L49.26 84.2278Q48.5838 83.7842 47.9997 83.2002Q47.4157 82.6162 46.9722 81.9399L46.9721 81.9399Q46.5831 81.3467 46.3022 80.6826Q46.0266 80.031 45.873 79.3516L45.873 79.3516L45.873 79.3513Q45.68 78.4976 45.68 77.5999Q45.68 76.7024 45.873 75.8484L45.8732 75.8474Q46.0267 75.1685 46.3022 74.5173Q46.583 73.8535 46.9717 73.2607L46.9722 73.26Q47.4157 72.5837 47.9997 71.9998Q48.5838 71.4155 49.26 70.9722L49.26 70.9722Q49.8532 70.583 50.5173 70.3022Q51.1692 70.0264 51.8486 69.8728L51.8488 69.8728Q52.7026 69.6799 53.6 69.6799Q54.4976 69.6799 55.3515 69.873Q56.0309 70.0264 56.6827 70.3022Q57.3468 70.583 57.9399 70.9722L57.94 70.9722L57.9404 70.9724Q58.6164 71.4158 59.2003 71.9998Q59.7843 72.5837 60.2279 73.26L60.2279 73.26Q60.6169 73.8533 60.8978 74.5173Q61.1359 75.0801 61.2828 75.6636C60.1171 73.2583 57.6522 71.5999 54.8 71.5999C50.8236 71.5999 47.6 74.8235 47.6 78.7998C47.6 81.6523 49.2587 84.1172 51.6642 85.283ZM53.276 85.3474Q52.7193 85.2183 52.1844 84.9919Q51.6214 84.7537 51.1184 84.4241L51.1176 84.4236Q50.5438 84.0471 50.0483 83.5515Q49.5526 83.0559 49.1762 82.4819L49.1759 82.4817L49.1759 82.4814L49.1759 82.4814Q48.8461 81.9785 48.6079 81.4155Q48.3745 80.8635 48.2443 80.2886L48.2441 80.2876Q48.08 79.5623 48.08 78.7998Q48.08 78.0376 48.2441 77.3123L48.2441 77.3123Q48.3743 76.7366 48.6079 76.1843Q48.8461 75.6213 49.1758 75.1182L49.1759 75.1182L49.1759 75.1182Q49.5524 74.5439 50.0483 74.0481Q50.5439 73.5525 51.1178 73.176L51.1183 73.1758L51.1187 73.1755Q51.6216 72.8457 52.1844 72.6077Q52.7367 72.374 53.3124 72.2439L53.3128 72.2439Q54.0379 72.0798 54.8 72.0798Q55.5623 72.0798 56.2876 72.2439L56.2876 72.2439Q56.8633 72.374 57.4156 72.6077Q57.9785 72.8459 58.4814 73.1755L58.4817 73.1758L58.4817 73.1758Q59.0559 73.5522 59.5518 74.0481Q60.0477 74.5439 60.4241 75.1182L60.4246 75.1189Q60.7541 75.6216 60.9921 76.1843Q61.2185 76.7195 61.3478 77.2766C60.3554 75.3318 58.3332 74 56 74C52.6863 74 50 76.6863 50 80C50 82.333 51.3315 84.355 53.276 85.3474ZM54.8923 85.4097Q54.8341 85.3979 54.7762 85.3848Q54.3043 85.2778 53.8515 85.0864Q53.3895 84.8909 52.9768 84.6204L52.9767 84.6204L52.9767 84.6204L52.9756 84.6196Q52.504 84.3105 52.0968 83.9033Q51.6891 83.4956 51.3796 83.0234L51.3796 83.0234L51.3796 83.0232Q51.109 82.6106 50.9136 82.1484Q50.7222 81.696 50.6153 81.2244L50.6152 81.2239Q50.48 80.6272 50.48 80Q50.48 79.3728 50.6152 78.7761L50.6152 78.7761Q50.7221 78.3042 50.9136 77.8516Q51.1091 77.3894 51.3796 76.9766L51.3796 76.9766Q51.6891 76.5044 52.0968 76.0967Q52.5045 75.689 52.9767 75.3796L52.9776 75.3789Q53.39 75.1089 53.8515 74.9136Q54.3043 74.7222 54.7763 74.6152Q55.3728 74.48 56 74.48Q56.6272 74.48 57.2237 74.6152L57.2238 74.6152Q57.6957 74.7222 58.1485 74.9136Q58.6105 75.1091 59.0234 75.3796L59.0234 75.3796Q59.4955 75.689 59.9032 76.0967Q60.311 76.5044 60.6204 76.9766L60.6204 76.9766Q60.891 77.3894 61.0864 77.8516Q61.2779 78.3042 61.3848 78.7761L61.3848 78.7761Q61.3979 78.834 61.4097 78.8918C60.5937 77.4065 59.0144 76.3999 57.2 76.3999C54.549 76.3999 52.4 78.5488 52.4 81.2C52.4 83.0144 53.4069 84.5938 54.8923 85.4097Z" clip-rule="evenodd" fill="url(#paint_linear_150_376_0)" fill-opacity="1.000000" fill-rule="evenodd"/>
		<path id="Union" d="M26.0001 62C19.3727 62 14.0001 67.3726 14.0001 74C14.0001 80.6274 19.3727 86 26.0001 86L28.3671 86C28.3781 86 28.3891 86 28.4001 86L38.0001 86L38.0001 74C38.0001 67.3726 32.6275 62 26.0001 62ZM23.5439 85.3652Q23.4902 85.3538 23.4366 85.3416Q22.4359 85.1162 21.4759 84.71Q20.4997 84.2971 19.628 83.7251L19.6279 83.7251Q18.637 83.075 17.7811 82.219Q16.9255 81.3633 16.2754 80.3728L16.2753 80.3728Q15.703 79.5007 15.29 78.5242Q14.884 77.5642 14.6584 76.5637L14.6583 76.563Q14.3767 75.3132 14.3767 74Q14.3767 72.6863 14.6585 71.4363L14.6585 71.4363L14.6585 71.436Q14.884 70.4355 15.29 69.4758Q15.7029 68.4995 16.2751 67.6277L16.2751 67.6274Q16.9253 66.6367 17.7811 65.781Q18.6368 64.9253 19.6273 64.2751L19.6274 64.2751Q20.4994 63.7029 21.4759 63.2898Q22.436 62.8838 23.4368 62.6582Q24.6867 62.3767 26.0001 62.3767Q27.3135 62.3767 28.5635 62.6582L28.5635 62.6582L28.5636 62.6582Q29.5643 62.8838 30.5243 63.2898Q31.5008 63.7029 32.3727 64.2751Q33.3633 64.9253 34.219 65.781Q35.0747 66.6367 35.7248 67.6272L35.7249 67.6272L35.7249 67.6272Q36.2972 68.4993 36.7102 69.4758Q37.1162 70.4358 37.3417 71.4363L37.3417 71.4365Q37.3537 71.4895 37.3652 71.543C35.8666 67.3779 31.8811 64.3999 27.2001 64.3999C21.2354 64.3999 16.4001 69.2351 16.4001 75.2C16.4001 79.8813 19.3786 83.8669 23.5439 85.3652ZM24.4418 85.1487Q23.8029 84.9712 23.1832 84.709Q22.3173 84.3428 21.5439 83.8354L21.5434 83.8352L21.5433 83.8352Q20.6631 83.2576 19.9027 82.4973Q19.1425 81.7368 18.5649 80.8567L18.5649 80.8567L18.5648 80.8567Q18.0573 80.083 17.6909 79.2168Q17.331 78.366 17.1309 77.479Q16.8801 76.3677 16.8801 75.2Q16.8801 74.032 17.1309 72.9207L17.1311 72.9194Q17.3313 72.0332 17.6909 71.1831Q18.0573 70.3169 18.5648 69.5432L18.5654 69.5425Q19.1428 68.6626 19.9027 67.9026Q20.6631 67.1421 21.5434 66.5647L21.5435 66.5647Q22.317 66.0571 23.1832 65.6907Q24.0341 65.3308 24.9209 65.1306L24.921 65.1306L24.921 65.1306Q26.0322 64.8799 27.2001 64.8799Q28.3679 64.8799 29.4791 65.1306L29.4791 65.1306L29.48 65.1309Q30.3665 65.3311 31.2169 65.6907Q32.083 66.0571 32.8565 66.5645L32.8566 66.5645L32.8566 66.5645Q33.737 67.1421 34.4974 67.9026Q35.2578 68.6628 35.8354 69.5432Q36.3429 70.3169 36.7093 71.1831Q36.9716 71.8032 37.1491 72.4429C35.6415 69.115 32.2912 66.8 28.4001 66.8C23.0982 66.8 18.8001 71.0981 18.8001 76.4001C18.8001 80.2908 21.1146 83.6409 24.4418 85.1487ZM26.0532 85.2166Q25.4419 85.0537 24.8503 84.8035Q24.0851 84.48 23.4018 84.0315L23.4012 84.0312Q22.6232 83.5208 21.9513 82.8489Q21.279 82.1765 20.7685 81.3982L20.7674 81.3965Q20.3198 80.7139 19.9966 79.9497Q19.6788 79.1985 19.502 78.4155L19.502 78.4153Q19.2801 77.4329 19.2801 76.4001Q19.2801 75.3674 19.502 74.3848Q19.6788 73.6016 19.9966 72.8503Q20.3202 72.0852 20.7685 71.4016Q21.2791 70.6235 21.9513 69.9512Q22.6233 69.2791 23.4014 68.7688L23.4018 68.7686L23.4018 68.7683Q24.0852 68.3201 24.8503 67.9966Q25.6016 67.6787 26.3848 67.502L26.3848 67.502Q27.3674 67.28 28.4001 67.28Q29.4327 67.28 30.4153 67.502L30.4153 67.502L30.4154 67.502Q31.1985 67.6787 31.9498 67.9966Q32.715 68.3201 33.3984 68.7686L33.3984 68.7686L33.3984 68.7686Q34.1767 69.2791 34.8489 69.9512Q35.5211 70.6235 36.0317 71.4019L36.0317 71.4019Q36.4799 72.0852 36.8036 72.8503Q37.0536 73.4414 37.2164 74.0525C35.8792 71.1863 32.9716 69.2 29.6001 69.2C24.9609 69.2 21.2001 72.9607 21.2001 77.5999C21.2001 80.9717 23.1867 83.8794 26.0532 85.2166ZM37.5201 81.1997L37.5201 81.2L37.5201 85.5198L33.1776 85.5198Q32.6974 85.5176 32.2401 85.4136L32.2385 85.4133Q31.8711 85.3296 31.5187 85.1807Q31.1577 85.0278 30.835 84.8167L30.835 84.8167L30.835 84.8167Q30.4649 84.5742 30.1454 84.2546Q29.8258 83.9351 29.5834 83.5649L29.5834 83.5649Q29.3721 83.2422 29.2194 82.8813Q29.07 82.5281 28.9864 82.1599L28.9863 82.1599Q28.8801 81.6919 28.8801 81.2Q28.8801 80.7078 28.9863 80.24Q29.0699 79.8718 29.2194 79.5186Q29.3721 79.1575 29.5834 78.8347Q29.8258 78.4648 30.1454 78.1453Q30.4649 77.8257 30.8351 77.5833Q31.1577 77.3718 31.5187 77.2192Q31.8719 77.0698 32.2401 76.9861Q32.708 76.8799 33.2001 76.8799Q33.6921 76.8799 34.16 76.9861L34.16 76.9861Q34.5282 77.0698 34.8815 77.2192Q35.2425 77.3718 35.5651 77.5833Q35.9352 77.8257 36.2548 78.1453Q36.574 78.4644 36.8162 78.834L36.8168 78.835L36.8168 78.835Q37.0281 79.1575 37.1808 79.5186Q37.3302 79.8718 37.4138 80.24L37.4138 80.24Q37.52 80.7078 37.5201 81.1997ZM27.6643 85.283Q27.0805 85.136 26.5174 84.8977Q25.8534 84.6169 25.2602 84.2278L25.2601 84.2278L25.2601 84.2278Q24.5838 83.7842 23.9998 83.2002Q23.4157 82.6162 22.9722 81.9399L22.9722 81.9399Q22.5832 81.3467 22.3023 80.6826Q22.0266 80.031 21.8731 79.3516L21.8731 79.3516L21.8731 79.3513Q21.6801 78.4976 21.6801 77.5999Q21.6801 76.7024 21.8731 75.8484L21.8733 75.8474Q22.0268 75.1685 22.3023 74.5173Q22.583 73.8535 22.9718 73.2607L22.9722 73.26Q23.4158 72.5837 23.9998 71.9998Q24.5838 71.4155 25.26 70.9722L25.2601 70.9722Q25.8533 70.583 26.5174 70.3022Q27.1692 70.0264 27.8487 69.8728L27.8488 69.8728Q28.7027 69.6799 29.6001 69.6799Q30.4976 69.6799 31.3515 69.873Q32.0309 70.0264 32.6827 70.3022Q33.3468 70.583 33.94 70.9722L33.94 70.9722L33.9404 70.9724Q34.6165 71.4158 35.2004 71.9998Q35.7844 72.5837 36.2279 73.26L36.2279 73.26Q36.617 73.8533 36.8979 74.5173Q37.1359 75.0801 37.2829 75.6636C36.1171 73.2583 33.6523 71.5999 30.8001 71.5999C26.8236 71.5999 23.6001 74.8235 23.6001 78.7998C23.6001 81.6523 25.2588 84.1172 27.6643 85.283ZM29.2761 85.3474Q28.7193 85.2183 28.1845 84.9919Q27.6214 84.7537 27.1184 84.4241L27.1177 84.4236Q26.5439 84.0471 26.0483 83.5515Q25.5527 83.0559 25.1763 82.4819L25.176 82.4817L25.176 82.4814L25.1759 82.4814Q24.8461 81.9785 24.608 81.4155Q24.3746 80.8635 24.2444 80.2886L24.2442 80.2876Q24.0801 79.5623 24.0801 78.7998Q24.0801 78.0376 24.2441 77.3123L24.2441 77.3123Q24.3744 76.7366 24.608 76.1843Q24.8461 75.6213 25.1759 75.1182L25.1759 75.1182L25.1759 75.1182Q25.5524 74.5439 26.0483 74.0481Q26.544 73.5525 27.1178 73.176L27.1183 73.1758L27.1188 73.1755Q27.6216 72.8457 28.1845 72.6077Q28.7368 72.374 29.3125 72.2439L29.3129 72.2439Q30.0379 72.0798 30.8001 72.0798Q31.5624 72.0798 32.2876 72.2439L32.2876 72.2439Q32.8633 72.374 33.4156 72.6077Q33.9786 72.8459 34.4815 73.1755L34.4817 73.1758L34.4818 73.1758Q35.0559 73.5522 35.5518 74.0481Q36.0477 74.5439 36.4242 75.1182L36.4247 75.1189Q36.7542 75.6216 36.9922 76.1843Q37.2185 76.7195 37.3478 77.2766C36.3554 75.3318 34.3333 74 32.0001 74C28.6864 74 26.0001 76.6863 26.0001 80C26.0001 82.333 27.3316 84.355 29.2761 85.3474ZM30.8924 85.4097Q30.8342 85.3979 30.7763 85.3848Q30.3043 85.2778 29.8516 85.0864Q29.3896 84.8909 28.9768 84.6204L28.9768 84.6204L28.9767 84.6204L28.9756 84.6196Q28.5041 84.3105 28.0968 83.9033Q27.6891 83.4956 27.3797 83.0234L27.3797 83.0234L27.3796 83.0232Q27.1091 82.6106 26.9137 82.1484Q26.7223 81.696 26.6154 81.2244L26.6153 81.2239Q26.4801 80.6272 26.4801 80Q26.4801 79.3728 26.6152 78.7761L26.6153 78.7761Q26.7222 78.3042 26.9137 77.8516Q27.1091 77.3894 27.3797 76.9766L27.3797 76.9766Q27.6891 76.5044 28.0968 76.0967Q28.5046 75.689 28.9767 75.3796L28.9777 75.3789Q29.3901 75.1089 29.8516 74.9136Q30.3044 74.7222 30.7763 74.6152Q31.3729 74.48 32.0001 74.48Q32.6272 74.48 33.2237 74.6152L33.2238 74.6152Q33.6958 74.7222 34.1486 74.9136Q34.6106 75.1091 35.0234 75.3796L35.0234 75.3796Q35.4956 75.689 35.9033 76.0967Q36.311 76.5044 36.6205 76.9766L36.6205 76.9766Q36.891 77.3894 37.0865 77.8516Q37.278 78.3042 37.3849 78.7761L37.3849 78.7761Q37.398 78.834 37.4098 78.8918C36.5937 77.4065 35.0145 76.3999 33.2001 76.3999C30.5491 76.3999 28.4001 78.5488 28.4001 81.2C28.4001 83.0144 29.4069 84.5938 30.8924 85.4097Z" clip-rule="evenodd" fill="url(#paint_linear_150_384_0)" fill-opacity="1.000000" fill-rule="evenodd"/>
		<path id="Union" d="M74 38C67.3726 38 62 43.3726 62 50C62 56.6274 67.3726 62 74 62L76.3671 62C76.3781 62 76.389 62 76.4 62L86 62L86 50C86 43.3726 80.6274 38 74 38ZM71.5438 61.3652Q71.4901 61.3538 71.4365 61.3416Q70.4358 61.1162 69.4758 60.71Q68.4996 60.2971 67.6279 59.7251L67.6278 59.7251Q66.637 59.075 65.7811 58.219Q64.9255 57.3633 64.2754 56.3728L64.2753 56.3728Q63.703 55.5007 63.2899 54.5242Q62.8839 53.5642 62.6584 52.5637L62.6582 52.563Q62.3767 51.3132 62.3767 50Q62.3767 48.6863 62.6584 47.4363L62.6584 47.4363L62.6584 47.436Q62.8839 46.4355 63.2899 45.4758Q63.7029 44.4995 64.275 43.6277L64.2751 43.6274Q64.9253 42.6367 65.7811 41.781Q66.6367 40.9253 67.6273 40.2751L67.6273 40.2751Q68.4993 39.7029 69.4758 39.2898Q70.4359 38.8838 71.4367 38.6582Q72.6866 38.3767 74 38.3767Q75.3135 38.3767 76.5634 38.6582L76.5635 38.6582L76.5635 38.6582Q77.5642 38.8838 78.5242 39.2898Q79.5007 39.7029 80.3727 40.2751Q81.3633 40.9253 82.219 41.781Q83.0746 42.6367 83.7248 43.6272L83.7248 43.6272L83.7248 43.6272Q84.2971 44.4993 84.7101 45.4758Q85.1161 46.4358 85.3417 47.4363L85.3417 47.4365Q85.3537 47.4895 85.3651 47.543C83.8666 43.3779 79.8811 40.3999 75.2 40.3999C69.2354 40.3999 64.4 45.2351 64.4 51.2C64.4 55.8813 67.3785 59.8669 71.5438 61.3652ZM72.4417 61.1487Q71.8029 60.9712 71.1832 60.709Q70.3172 60.3428 69.5439 59.8354L69.5433 59.8352L69.5433 59.8352Q68.663 59.2576 67.9027 58.4973Q67.1424 57.7368 66.5649 56.8567L66.5649 56.8567L66.5648 56.8567Q66.0572 56.083 65.6908 55.2168Q65.331 54.366 65.1308 53.479Q64.88 52.3677 64.88 51.2Q64.88 50.032 65.1308 48.9207L65.1311 48.9194Q65.3312 48.0332 65.6908 47.1831Q66.0572 46.3169 66.5648 45.5432L66.5653 45.5425Q67.1427 44.6626 67.9027 43.9026Q68.6631 43.1421 69.5434 42.5647L69.5434 42.5647Q70.317 42.0571 71.1832 41.6907Q72.034 41.3308 72.9209 41.1306L72.9209 41.1306L72.9209 41.1306Q74.0322 40.8799 75.2 40.8799Q76.3678 40.8799 77.479 41.1306L77.4791 41.1306L77.4799 41.1309Q78.3664 41.3311 79.2169 41.6907Q80.083 42.0571 80.8565 42.5645L80.8566 42.5645L80.8566 42.5645Q81.7369 43.1421 82.4973 43.9026Q83.2577 44.6628 83.8353 45.5432Q84.3428 46.3169 84.7092 47.1831Q84.9716 47.8032 85.149 48.4429C83.6415 45.115 80.2911 42.8 76.4 42.8C71.0981 42.8 66.8 47.0981 66.8 52.4001C66.8 56.2908 69.1145 59.6409 72.4417 61.1487ZM74.0531 61.2166Q73.4418 61.0537 72.8503 60.8035Q72.0851 60.48 71.4017 60.0315L71.4011 60.0312Q70.6232 59.5208 69.9512 58.8489Q69.279 58.1765 68.7684 57.3982L68.7673 57.3965Q68.3197 56.7139 67.9965 55.9497Q67.6788 55.1985 67.5019 54.4155L67.5019 54.4153Q67.28 53.4329 67.28 52.4001Q67.28 51.3674 67.5019 50.3848Q67.6787 49.6016 67.9965 48.8503Q68.3202 48.0852 68.7685 47.4016Q69.279 46.6235 69.9512 45.9512Q70.6233 45.2791 71.4014 44.7688L71.4018 44.7686L71.4018 44.7683Q72.0851 44.3201 72.8503 43.9966Q73.6016 43.6787 74.3847 43.502L74.3848 43.502Q75.3673 43.28 76.4 43.28Q77.4327 43.28 78.4152 43.502L78.4153 43.502L78.4153 43.502Q79.1984 43.6787 79.9498 43.9966Q80.7149 44.3201 81.3983 44.7686L81.3983 44.7686L81.3984 44.7686Q82.1766 45.2791 82.8488 45.9512Q83.521 46.6235 84.0316 47.4019L84.0316 47.4019Q84.4799 48.0852 84.8035 48.8503Q85.0536 49.4414 85.2164 50.0525C83.8791 47.1863 80.9715 45.2 77.6 45.2C72.9608 45.2 69.2 48.9607 69.2 53.5999C69.2 56.9717 71.1866 59.8794 74.0531 61.2166ZM85.52 57.1997L85.52 57.2L85.52 61.5198L81.1776 61.5198Q80.6973 61.5176 80.2401 61.4136L80.2384 61.4133Q79.8711 61.3296 79.5186 61.1807Q79.1576 61.0278 78.835 60.8167L78.8349 60.8167L78.8349 60.8167Q78.4649 60.5742 78.1453 60.2546Q77.8258 59.9351 77.5834 59.5649L77.5833 59.5649Q77.372 59.2422 77.2193 58.8813Q77.0699 58.5281 76.9863 58.1599L76.9863 58.1599Q76.88 57.6919 76.88 57.2Q76.88 56.7078 76.9863 56.24Q77.0699 55.8718 77.2193 55.5186Q77.372 55.1575 77.5834 54.8347Q77.8258 54.4648 78.1453 54.1453Q78.4649 53.8257 78.835 53.5833Q79.1576 53.3718 79.5186 53.2192Q79.8719 53.0698 80.2401 52.9861Q80.708 52.8799 81.2 52.8799Q81.692 52.8799 82.1599 52.9861L82.1599 52.9861Q82.5281 53.0698 82.8814 53.2192Q83.2424 53.3718 83.565 53.5833Q83.9351 53.8257 84.2547 54.1453Q84.5739 54.4644 84.8162 54.834L84.8167 54.835L84.8168 54.835Q85.028 55.1575 85.1807 55.5186Q85.3301 55.8718 85.4137 56.24L85.4138 56.24Q85.52 56.7078 85.52 57.1997ZM75.6642 61.283Q75.0805 61.136 74.5173 60.8977Q73.8533 60.6169 73.2602 60.2278L73.2601 60.2278L73.26 60.2278Q72.5838 59.7842 71.9997 59.2002Q71.4157 58.6162 70.9722 57.9399L70.9721 57.9399Q70.5831 57.3467 70.3022 56.6826Q70.0266 56.031 69.873 55.3516L69.873 55.3516L69.873 55.3513Q69.68 54.4976 69.68 53.5999Q69.68 52.7024 69.873 51.8484L69.8732 51.8474Q70.0267 51.1685 70.3022 50.5173Q70.583 49.8535 70.9717 49.2607L70.9722 49.26Q71.4157 48.5837 71.9997 47.9998Q72.5838 47.4155 73.26 46.9722L73.26 46.9722Q73.8532 46.583 74.5173 46.3022Q75.1692 46.0264 75.8486 45.8728L75.8488 45.8728Q76.7026 45.6799 77.6 45.6799Q78.4976 45.6799 79.3515 45.873Q80.0309 46.0264 80.6827 46.3022Q81.3468 46.583 81.9399 46.9722L81.94 46.9722L81.9404 46.9724Q82.6164 47.4158 83.2003 47.9998Q83.7843 48.5837 84.2279 49.26L84.2279 49.26Q84.6169 49.8533 84.8978 50.5173Q85.1359 51.0801 85.2828 51.6636C84.1171 49.2583 81.6522 47.5999 78.8 47.5999C74.8236 47.5999 71.6 50.8235 71.6 54.7998C71.6 57.6523 73.2587 60.1172 75.6642 61.283ZM77.276 61.3474Q76.7193 61.2183 76.1844 60.9919Q75.6214 60.7537 75.1184 60.4241L75.1176 60.4236Q74.5438 60.0471 74.0483 59.5515Q73.5526 59.0559 73.1762 58.4819L73.1759 58.4817L73.1759 58.4814L73.1759 58.4814Q72.8461 57.9785 72.6079 57.4155Q72.3745 56.8635 72.2443 56.2886L72.2441 56.2876Q72.08 55.5623 72.08 54.7998Q72.08 54.0376 72.2441 53.3123L72.2441 53.3123Q72.3743 52.7366 72.6079 52.1843Q72.8461 51.6213 73.1758 51.1182L73.1759 51.1182L73.1759 51.1182Q73.5524 50.5439 74.0483 50.0481Q74.5439 49.5525 75.1178 49.176L75.1183 49.1758L75.1187 49.1755Q75.6216 48.8457 76.1844 48.6077Q76.7367 48.374 77.3124 48.2439L77.3128 48.2439Q78.0379 48.0798 78.8 48.0798Q79.5623 48.0798 80.2876 48.2439L80.2876 48.2439Q80.8633 48.374 81.4156 48.6077Q81.9785 48.8459 82.4814 49.1755L82.4817 49.1758L82.4817 49.1758Q83.0559 49.5522 83.5518 50.0481Q84.0477 50.5439 84.4241 51.1182L84.4246 51.1189Q84.7541 51.6216 84.9921 52.1843Q85.2185 52.7195 85.3478 53.2766C84.3554 51.3318 82.3332 50 80 50C76.6863 50 74 52.6863 74 56C74 58.333 75.3315 60.355 77.276 61.3474ZM78.8923 61.4097Q78.8341 61.3979 78.7762 61.3848Q78.3043 61.2778 77.8515 61.0864Q77.3895 60.8909 76.9768 60.6204L76.9767 60.6204L76.9767 60.6204L76.9756 60.6196Q76.504 60.3105 76.0968 59.9033Q75.6891 59.4956 75.3796 59.0234L75.3796 59.0234L75.3796 59.0232Q75.109 58.6106 74.9136 58.1484Q74.7222 57.696 74.6153 57.2244L74.6152 57.2239Q74.48 56.6272 74.48 56Q74.48 55.3728 74.6152 54.7761L74.6152 54.7761Q74.7221 54.3042 74.9136 53.8516Q75.1091 53.3894 75.3796 52.9766L75.3796 52.9766Q75.6891 52.5044 76.0968 52.0967Q76.5045 51.689 76.9767 51.3796L76.9776 51.3789Q77.39 51.1089 77.8515 50.9136Q78.3043 50.7222 78.7763 50.6152Q79.3728 50.48 80 50.48Q80.6272 50.48 81.2237 50.6152L81.2238 50.6152Q81.6957 50.7222 82.1485 50.9136Q82.6105 51.1091 83.0234 51.3796L83.0234 51.3796Q83.4955 51.689 83.9032 52.0967Q84.311 52.5044 84.6204 52.9766L84.6204 52.9766Q84.891 53.3894 85.0864 53.8516Q85.2779 54.3042 85.3848 54.7761L85.3848 54.7761Q85.3979 54.834 85.4097 54.8918C84.5937 53.4065 83.0144 52.3999 81.2 52.3999C78.549 52.3999 76.4 54.5488 76.4 57.2C76.4 59.0144 77.4069 60.5938 78.8923 61.4097Z" clip-rule="evenodd" fill="url(#paint_linear_150_393_0)" fill-opacity="1.000000" fill-rule="evenodd"/>
		<path id="Union" d="M50 38C43.3726 38 38 43.3726 38 50C38 56.6274 43.3726 62 50 62L52.3671 62C52.3781 62 52.389 62 52.4 62L62 62L62 50C62 43.3726 56.6274 38 50 38ZM47.5438 61.3652Q47.4901 61.3538 47.4365 61.3416Q46.4358 61.1162 45.4758 60.71Q44.4996 60.2971 43.6279 59.7251L43.6278 59.7251Q42.637 59.075 41.7811 58.219Q40.9255 57.3633 40.2754 56.3728L40.2753 56.3728Q39.703 55.5007 39.2899 54.5242Q38.8839 53.5642 38.6584 52.5637L38.6582 52.563Q38.3767 51.3132 38.3767 50Q38.3767 48.6863 38.6584 47.4363L38.6584 47.4363L38.6584 47.436Q38.8839 46.4355 39.2899 45.4758Q39.7029 44.4995 40.275 43.6277L40.2751 43.6274Q40.9253 42.6367 41.7811 41.781Q42.6367 40.9253 43.6273 40.2751L43.6273 40.2751Q44.4993 39.7029 45.4758 39.2898Q46.4359 38.8838 47.4367 38.6582Q48.6866 38.3767 50 38.3767Q51.3135 38.3767 52.5634 38.6582L52.5635 38.6582L52.5635 38.6582Q53.5642 38.8838 54.5242 39.2898Q55.5007 39.7029 56.3727 40.2751Q57.3633 40.9253 58.219 41.781Q59.0746 42.6367 59.7248 43.6272L59.7248 43.6272L59.7248 43.6272Q60.2971 44.4993 60.7101 45.4758Q61.1161 46.4358 61.3417 47.4363L61.3417 47.4365Q61.3537 47.4895 61.3651 47.543C59.8666 43.3779 55.8811 40.3999 51.2 40.3999C45.2354 40.3999 40.4 45.2351 40.4 51.2C40.4 55.8813 43.3785 59.8669 47.5438 61.3652ZM48.4417 61.1487Q47.8029 60.9712 47.1832 60.709Q46.3172 60.3428 45.5439 59.8354L45.5433 59.8352L45.5433 59.8352Q44.663 59.2576 43.9027 58.4973Q43.1424 57.7368 42.5649 56.8567L42.5649 56.8567L42.5648 56.8567Q42.0572 56.083 41.6908 55.2168Q41.331 54.366 41.1308 53.479Q40.88 52.3677 40.88 51.2Q40.88 50.032 41.1308 48.9207L41.1311 48.9194Q41.3312 48.0332 41.6908 47.1831Q42.0572 46.3169 42.5648 45.5432L42.5653 45.5425Q43.1427 44.6626 43.9027 43.9026Q44.6631 43.1421 45.5434 42.5647L45.5434 42.5647Q46.317 42.0571 47.1832 41.6907Q48.034 41.3308 48.9209 41.1306L48.9209 41.1306L48.9209 41.1306Q50.0322 40.8799 51.2 40.8799Q52.3678 40.8799 53.479 41.1306L53.4791 41.1306L53.4799 41.1309Q54.3664 41.3311 55.2169 41.6907Q56.083 42.0571 56.8565 42.5645L56.8566 42.5645L56.8566 42.5645Q57.7369 43.1421 58.4973 43.9026Q59.2577 44.6628 59.8353 45.5432Q60.3428 46.3169 60.7092 47.1831Q60.9716 47.8032 61.149 48.4429C59.6415 45.115 56.2911 42.8 52.4 42.8C47.0981 42.8 42.8 47.0981 42.8 52.4001C42.8 56.2908 45.1145 59.6409 48.4417 61.1487ZM50.0531 61.2166Q49.4418 61.0537 48.8503 60.8035Q48.0851 60.48 47.4017 60.0315L47.4011 60.0312Q46.6232 59.5208 45.9512 58.8489Q45.279 58.1765 44.7684 57.3982L44.7673 57.3965Q44.3197 56.7139 43.9965 55.9497Q43.6788 55.1985 43.5019 54.4155L43.5019 54.4153Q43.28 53.4329 43.28 52.4001Q43.28 51.3674 43.5019 50.3848Q43.6787 49.6016 43.9965 48.8503Q44.3202 48.0852 44.7685 47.4016Q45.279 46.6235 45.9512 45.9512Q46.6233 45.2791 47.4014 44.7688L47.4018 44.7686L47.4018 44.7683Q48.0851 44.3201 48.8503 43.9966Q49.6016 43.6787 50.3847 43.502L50.3848 43.502Q51.3673 43.28 52.4 43.28Q53.4327 43.28 54.4152 43.502L54.4153 43.502L54.4153 43.502Q55.1984 43.6787 55.9498 43.9966Q56.7149 44.3201 57.3983 44.7686L57.3983 44.7686L57.3984 44.7686Q58.1766 45.2791 58.8488 45.9512Q59.521 46.6235 60.0316 47.4019L60.0316 47.4019Q60.4799 48.0852 60.8035 48.8503Q61.0536 49.4414 61.2164 50.0525C59.8791 47.1863 56.9715 45.2 53.6 45.2C48.9608 45.2 45.2 48.9607 45.2 53.5999C45.2 56.9717 47.1866 59.8794 50.0531 61.2166ZM61.52 57.1997L61.52 57.2L61.52 61.5198L57.1776 61.5198Q56.6973 61.5176 56.2401 61.4136L56.2384 61.4133Q55.8711 61.3296 55.5186 61.1807Q55.1576 61.0278 54.835 60.8167L54.8349 60.8167L54.8349 60.8167Q54.4649 60.5742 54.1453 60.2546Q53.8258 59.9351 53.5834 59.5649L53.5833 59.5649Q53.372 59.2422 53.2193 58.8813Q53.0699 58.5281 52.9863 58.1599L52.9863 58.1599Q52.88 57.6919 52.88 57.2Q52.88 56.7078 52.9863 56.24Q53.0699 55.8718 53.2193 55.5186Q53.372 55.1575 53.5834 54.8347Q53.8258 54.4648 54.1453 54.1453Q54.4649 53.8257 54.835 53.5833Q55.1576 53.3718 55.5186 53.2192Q55.8719 53.0698 56.2401 52.9861Q56.708 52.8799 57.2 52.8799Q57.692 52.8799 58.1599 52.9861L58.1599 52.9861Q58.5281 53.0698 58.8814 53.2192Q59.2424 53.3718 59.565 53.5833Q59.9351 53.8257 60.2547 54.1453Q60.5739 54.4644 60.8162 54.834L60.8167 54.835L60.8168 54.835Q61.028 55.1575 61.1807 55.5186Q61.3301 55.8718 61.4137 56.24L61.4138 56.24Q61.52 56.7078 61.52 57.1997ZM51.6642 61.283Q51.0805 61.136 50.5173 60.8977Q49.8533 60.6169 49.2602 60.2278L49.2601 60.2278L49.26 60.2278Q48.5838 59.7842 47.9997 59.2002Q47.4157 58.6162 46.9722 57.9399L46.9721 57.9399Q46.5831 57.3467 46.3022 56.6826Q46.0266 56.031 45.873 55.3516L45.873 55.3516L45.873 55.3513Q45.68 54.4976 45.68 53.5999Q45.68 52.7024 45.873 51.8484L45.8732 51.8474Q46.0267 51.1685 46.3022 50.5173Q46.583 49.8535 46.9717 49.2607L46.9722 49.26Q47.4157 48.5837 47.9997 47.9998Q48.5838 47.4155 49.26 46.9722L49.26 46.9722Q49.8532 46.583 50.5173 46.3022Q51.1692 46.0264 51.8486 45.8728L51.8488 45.8728Q52.7026 45.6799 53.6 45.6799Q54.4976 45.6799 55.3515 45.873Q56.0309 46.0264 56.6827 46.3022Q57.3468 46.583 57.9399 46.9722L57.94 46.9722L57.9404 46.9724Q58.6164 47.4158 59.2003 47.9998Q59.7843 48.5837 60.2279 49.26L60.2279 49.26Q60.6169 49.8533 60.8978 50.5173Q61.1359 51.0801 61.2828 51.6636C60.1171 49.2583 57.6522 47.5999 54.8 47.5999C50.8236 47.5999 47.6 50.8235 47.6 54.7998C47.6 57.6523 49.2587 60.1172 51.6642 61.283ZM53.276 61.3474Q52.7193 61.2183 52.1844 60.9919Q51.6214 60.7537 51.1184 60.4241L51.1176 60.4236Q50.5438 60.0471 50.0483 59.5515Q49.5526 59.0559 49.1762 58.4819L49.1759 58.4817L49.1759 58.4814L49.1759 58.4814Q48.8461 57.9785 48.6079 57.4155Q48.3745 56.8635 48.2443 56.2886L48.2441 56.2876Q48.08 55.5623 48.08 54.7998Q48.08 54.0376 48.2441 53.3123L48.2441 53.3123Q48.3743 52.7366 48.6079 52.1843Q48.8461 51.6213 49.1758 51.1182L49.1759 51.1182L49.1759 51.1182Q49.5524 50.5439 50.0483 50.0481Q50.5439 49.5525 51.1178 49.176L51.1183 49.1758L51.1187 49.1755Q51.6216 48.8457 52.1844 48.6077Q52.7367 48.374 53.3124 48.2439L53.3128 48.2439Q54.0379 48.0798 54.8 48.0798Q55.5623 48.0798 56.2876 48.2439L56.2876 48.2439Q56.8633 48.374 57.4156 48.6077Q57.9785 48.8459 58.4814 49.1755L58.4817 49.1758L58.4817 49.1758Q59.0559 49.5522 59.5518 50.0481Q60.0477 50.5439 60.4241 51.1182L60.4246 51.1189Q60.7541 51.6216 60.9921 52.1843Q61.2185 52.7195 61.3478 53.2766C60.3554 51.3318 58.3332 50 56 50C52.6863 50 50 52.6863 50 56C50 58.333 51.3315 60.355 53.276 61.3474ZM54.8923 61.4097Q54.8341 61.3979 54.7762 61.3848Q54.3043 61.2778 53.8515 61.0864Q53.3895 60.8909 52.9768 60.6204L52.9767 60.6204L52.9767 60.6204L52.9756 60.6196Q52.504 60.3105 52.0968 59.9033Q51.6891 59.4956 51.3796 59.0234L51.3796 59.0234L51.3796 59.0232Q51.109 58.6106 50.9136 58.1484Q50.7222 57.696 50.6153 57.2244L50.6152 57.2239Q50.48 56.6272 50.48 56Q50.48 55.3728 50.6152 54.7761L50.6152 54.7761Q50.7221 54.3042 50.9136 53.8516Q51.1091 53.3894 51.3796 52.9766L51.3796 52.9766Q51.6891 52.5044 52.0968 52.0967Q52.5045 51.689 52.9767 51.3796L52.9776 51.3789Q53.39 51.1089 53.8515 50.9136Q54.3043 50.7222 54.7763 50.6152Q55.3728 50.48 56 50.48Q56.6272 50.48 57.2237 50.6152L57.2238 50.6152Q57.6957 50.7222 58.1485 50.9136Q58.6105 51.1091 59.0234 51.3796L59.0234 51.3796Q59.4955 51.689 59.9032 52.0967Q60.311 52.5044 60.6204 52.9766L60.6204 52.9766Q60.891 53.3894 61.0864 53.8516Q61.2779 54.3042 61.3848 54.7761L61.3848 54.7761Q61.3979 54.834 61.4097 54.8918C60.5937 53.4065 59.0144 52.3999 57.2 52.3999C54.549 52.3999 52.4 54.5488 52.4 57.2C52.4 59.0144 53.4069 60.5938 54.8923 61.4097Z" clip-rule="evenodd" fill="url(#paint_linear_150_401_0)" fill-opacity="1.000000" fill-rule="evenodd"/>
		<path id="Union" d="M26.0001 38C19.3727 38 14.0001 43.3726 14.0001 50C14.0001 56.6274 19.3727 62 26.0001 62L28.3671 62C28.3781 62 28.3891 62 28.4001 62L38.0001 62L38.0001 50C38.0001 43.3726 32.6275 38 26.0001 38ZM23.5439 61.3652Q23.4902 61.3538 23.4366 61.3416Q22.4359 61.1162 21.4759 60.71Q20.4997 60.2971 19.628 59.7251L19.6279 59.7251Q18.637 59.075 17.7811 58.219Q16.9255 57.3633 16.2754 56.3728L16.2753 56.3728Q15.703 55.5007 15.29 54.5242Q14.884 53.5642 14.6584 52.5637L14.6583 52.563Q14.3767 51.3132 14.3767 50Q14.3767 48.6863 14.6585 47.4363L14.6585 47.4363L14.6585 47.436Q14.884 46.4355 15.29 45.4758Q15.7029 44.4995 16.2751 43.6277L16.2751 43.6274Q16.9253 42.6367 17.7811 41.781Q18.6368 40.9253 19.6273 40.2751L19.6274 40.2751Q20.4994 39.7029 21.4759 39.2898Q22.436 38.8838 23.4368 38.6582Q24.6867 38.3767 26.0001 38.3767Q27.3135 38.3767 28.5635 38.6582L28.5635 38.6582L28.5636 38.6582Q29.5643 38.8838 30.5243 39.2898Q31.5008 39.7029 32.3727 40.2751Q33.3633 40.9253 34.219 41.781Q35.0747 42.6367 35.7248 43.6272L35.7249 43.6272L35.7249 43.6272Q36.2972 44.4993 36.7102 45.4758Q37.1162 46.4358 37.3417 47.4363L37.3417 47.4365Q37.3537 47.4895 37.3652 47.543C35.8666 43.3779 31.8811 40.3999 27.2001 40.3999C21.2354 40.3999 16.4001 45.2351 16.4001 51.2C16.4001 55.8813 19.3786 59.8669 23.5439 61.3652ZM24.4418 61.1487Q23.8029 60.9712 23.1832 60.709Q22.3173 60.3428 21.5439 59.8354L21.5434 59.8352L21.5433 59.8352Q20.6631 59.2576 19.9027 58.4973Q19.1425 57.7368 18.5649 56.8567L18.5649 56.8567L18.5648 56.8567Q18.0573 56.083 17.6909 55.2168Q17.331 54.366 17.1309 53.479Q16.8801 52.3677 16.8801 51.2Q16.8801 50.032 17.1309 48.9207L17.1311 48.9194Q17.3313 48.0332 17.6909 47.1831Q18.0573 46.3169 18.5648 45.5432L18.5654 45.5425Q19.1428 44.6626 19.9027 43.9026Q20.6631 43.1421 21.5434 42.5647L21.5435 42.5647Q22.317 42.0571 23.1832 41.6907Q24.0341 41.3308 24.9209 41.1306L24.921 41.1306L24.921 41.1306Q26.0322 40.8799 27.2001 40.8799Q28.3679 40.8799 29.4791 41.1306L29.4791 41.1306L29.48 41.1309Q30.3665 41.3311 31.2169 41.6907Q32.083 42.0571 32.8565 42.5645L32.8566 42.5645L32.8566 42.5645Q33.737 43.1421 34.4974 43.9026Q35.2578 44.6628 35.8354 45.5432Q36.3429 46.3169 36.7093 47.1831Q36.9716 47.8032 37.1491 48.4429C35.6415 45.115 32.2912 42.8 28.4001 42.8C23.0982 42.8 18.8001 47.0981 18.8001 52.4001C18.8001 56.2908 21.1146 59.6409 24.4418 61.1487ZM26.0532 61.2166Q25.4419 61.0537 24.8503 60.8035Q24.0851 60.48 23.4018 60.0315L23.4012 60.0312Q22.6232 59.5208 21.9513 58.8489Q21.279 58.1765 20.7685 57.3982L20.7674 57.3965Q20.3198 56.7139 19.9966 55.9497Q19.6788 55.1985 19.502 54.4155L19.502 54.4153Q19.2801 53.4329 19.2801 52.4001Q19.2801 51.3674 19.502 50.3848Q19.6788 49.6016 19.9966 48.8503Q20.3202 48.0852 20.7685 47.4016Q21.2791 46.6235 21.9513 45.9512Q22.6233 45.2791 23.4014 44.7688L23.4018 44.7686L23.4018 44.7683Q24.0852 44.3201 24.8503 43.9966Q25.6016 43.6787 26.3848 43.502L26.3848 43.502Q27.3674 43.28 28.4001 43.28Q29.4327 43.28 30.4153 43.502L30.4153 43.502L30.4154 43.502Q31.1985 43.6787 31.9498 43.9966Q32.715 44.3201 33.3984 44.7686L33.3984 44.7686L33.3984 44.7686Q34.1767 45.2791 34.8489 45.9512Q35.5211 46.6235 36.0317 47.4019L36.0317 47.4019Q36.4799 48.0852 36.8036 48.8503Q37.0536 49.4414 37.2164 50.0525C35.8792 47.1863 32.9716 45.2 29.6001 45.2C24.9609 45.2 21.2001 48.9607 21.2001 53.5999C21.2001 56.9717 23.1867 59.8794 26.0532 61.2166ZM37.5201 57.1997L37.5201 57.2L37.5201 61.5198L33.1776 61.5198Q32.6974 61.5176 32.2401 61.4136L32.2385 61.4133Q31.8711 61.3296 31.5187 61.1807Q31.1577 61.0278 30.835 60.8167L30.835 60.8167L30.835 60.8167Q30.4649 60.5742 30.1454 60.2546Q29.8258 59.9351 29.5834 59.5649L29.5834 59.5649Q29.3721 59.2422 29.2194 58.8813Q29.07 58.5281 28.9864 58.1599L28.9863 58.1599Q28.8801 57.6919 28.8801 57.2Q28.8801 56.7078 28.9863 56.24Q29.0699 55.8718 29.2194 55.5186Q29.3721 55.1575 29.5834 54.8347Q29.8258 54.4648 30.1454 54.1453Q30.4649 53.8257 30.8351 53.5833Q31.1577 53.3718 31.5187 53.2192Q31.8719 53.0698 32.2401 52.9861Q32.708 52.8799 33.2001 52.8799Q33.6921 52.8799 34.16 52.9861L34.16 52.9861Q34.5282 53.0698 34.8815 53.2192Q35.2425 53.3718 35.5651 53.5833Q35.9352 53.8257 36.2548 54.1453Q36.574 54.4644 36.8162 54.834L36.8168 54.835L36.8168 54.835Q37.0281 55.1575 37.1808 55.5186Q37.3302 55.8718 37.4138 56.24L37.4138 56.24Q37.52 56.7078 37.5201 57.1997ZM27.6643 61.283Q27.0805 61.136 26.5174 60.8977Q25.8534 60.6169 25.2602 60.2278L25.2601 60.2278L25.2601 60.2278Q24.5838 59.7842 23.9998 59.2002Q23.4157 58.6162 22.9722 57.9399L22.9722 57.9399Q22.5832 57.3467 22.3023 56.6826Q22.0266 56.031 21.8731 55.3516L21.8731 55.3516L21.8731 55.3513Q21.6801 54.4976 21.6801 53.5999Q21.6801 52.7024 21.8731 51.8484L21.8733 51.8474Q22.0268 51.1685 22.3023 50.5173Q22.583 49.8535 22.9718 49.2607L22.9722 49.26Q23.4158 48.5837 23.9998 47.9998Q24.5838 47.4155 25.26 46.9722L25.2601 46.9722Q25.8533 46.583 26.5174 46.3022Q27.1692 46.0264 27.8487 45.8728L27.8488 45.8728Q28.7027 45.6799 29.6001 45.6799Q30.4976 45.6799 31.3515 45.873Q32.0309 46.0264 32.6827 46.3022Q33.3468 46.583 33.94 46.9722L33.94 46.9722L33.9404 46.9724Q34.6165 47.4158 35.2004 47.9998Q35.7844 48.5837 36.2279 49.26L36.2279 49.26Q36.617 49.8533 36.8979 50.5173Q37.1359 51.0801 37.2829 51.6636C36.1171 49.2583 33.6523 47.5999 30.8001 47.5999C26.8236 47.5999 23.6001 50.8235 23.6001 54.7998C23.6001 57.6523 25.2588 60.1172 27.6643 61.283ZM29.2761 61.3474Q28.7193 61.2183 28.1845 60.9919Q27.6214 60.7537 27.1184 60.4241L27.1177 60.4236Q26.5439 60.0471 26.0483 59.5515Q25.5527 59.0559 25.1763 58.4819L25.176 58.4817L25.176 58.4814L25.1759 58.4814Q24.8461 57.9785 24.608 57.4155Q24.3746 56.8635 24.2444 56.2886L24.2442 56.2876Q24.0801 55.5623 24.0801 54.7998Q24.0801 54.0376 24.2441 53.3123L24.2441 53.3123Q24.3744 52.7366 24.608 52.1843Q24.8461 51.6213 25.1759 51.1182L25.1759 51.1182L25.1759 51.1182Q25.5524 50.5439 26.0483 50.0481Q26.544 49.5525 27.1178 49.176L27.1183 49.1758L27.1188 49.1755Q27.6216 48.8457 28.1845 48.6077Q28.7368 48.374 29.3125 48.2439L29.3129 48.2439Q30.0379 48.0798 30.8001 48.0798Q31.5624 48.0798 32.2876 48.2439L32.2876 48.2439Q32.8633 48.374 33.4156 48.6077Q33.9786 48.8459 34.4815 49.1755L34.4817 49.1758L34.4818 49.1758Q35.0559 49.5522 35.5518 50.0481Q36.0477 50.5439 36.4242 51.1182L36.4247 51.1189Q36.7542 51.6216 36.9922 52.1843Q37.2185 52.7195 37.3478 53.2766C36.3554 51.3318 34.3333 50 32.0001 50C28.6864 50 26.0001 52.6863 26.0001 56C26.0001 58.333 27.3316 60.355 29.2761 61.3474ZM30.8924 61.4097Q30.8342 61.3979 30.7763 61.3848Q30.3043 61.2778 29.8516 61.0864Q29.3896 60.8909 28.9768 60.6204L28.9768 60.6204L28.9767 60.6204L28.9756 60.6196Q28.5041 60.3105 28.0968 59.9033Q27.6891 59.4956 27.3797 59.0234L27.3797 59.0234L27.3796 59.0232Q27.1091 58.6106 26.9137 58.1484Q26.7223 57.696 26.6154 57.2244L26.6153 57.2239Q26.4801 56.6272 26.4801 56Q26.4801 55.3728 26.6152 54.7761L26.6153 54.7761Q26.7222 54.3042 26.9137 53.8516Q27.1091 53.3894 27.3797 52.9766L27.3797 52.9766Q27.6891 52.5044 28.0968 52.0967Q28.5046 51.689 28.9767 51.3796L28.9777 51.3789Q29.3901 51.1089 29.8516 50.9136Q30.3044 50.7222 30.7763 50.6152Q31.3729 50.48 32.0001 50.48Q32.6272 50.48 33.2237 50.6152L33.2238 50.6152Q33.6958 50.7222 34.1486 50.9136Q34.6106 51.1091 35.0234 51.3796L35.0234 51.3796Q35.4956 51.689 35.9033 52.0967Q36.311 52.5044 36.6205 52.9766L36.6205 52.9766Q36.891 53.3894 37.0865 53.8516Q37.278 54.3042 37.3849 54.7761L37.3849 54.7761Q37.398 54.834 37.4098 54.8918C36.5937 53.4065 35.0145 52.3999 33.2001 52.3999C30.5491 52.3999 28.4001 54.5488 28.4001 57.2C28.4001 59.0144 29.4069 60.5938 30.8924 61.4097Z" clip-rule="evenodd" fill="url(#paint_linear_150_409_0)" fill-opacity="1.000000" fill-rule="evenodd"/>
		<path id="Union" d="M74 14C67.3726 14 62 19.3726 62 26C62 32.6274 67.3726 38 74 38L76.3671 38C76.3781 38 76.389 38 76.4 38L86 38L86 26C86 19.3726 80.6274 14 74 14ZM71.5438 37.3652Q71.4901 37.3538 71.4365 37.3416Q70.4358 37.1162 69.4758 36.71Q68.4996 36.2971 67.6279 35.7251L67.6278 35.7251Q66.637 35.075 65.7811 34.219Q64.9255 33.3633 64.2754 32.3728L64.2753 32.3728Q63.703 31.5007 63.2899 30.5242Q62.8839 29.5642 62.6584 28.5637L62.6582 28.563Q62.3767 27.3132 62.3767 26Q62.3767 24.6863 62.6584 23.4363L62.6584 23.4363L62.6584 23.436Q62.8839 22.4355 63.2899 21.4758Q63.7029 20.4995 64.275 19.6277L64.2751 19.6274Q64.9253 18.6367 65.7811 17.781Q66.6367 16.9253 67.6273 16.2751L67.6273 16.2751Q68.4993 15.7029 69.4758 15.2898Q70.4359 14.8838 71.4367 14.6582Q72.6866 14.3767 74 14.3767Q75.3135 14.3767 76.5634 14.6582L76.5635 14.6582L76.5635 14.6582Q77.5642 14.8838 78.5242 15.2898Q79.5007 15.7029 80.3727 16.2751Q81.3633 16.9253 82.219 17.781Q83.0746 18.6367 83.7248 19.6272L83.7248 19.6272L83.7248 19.6272Q84.2971 20.4993 84.7101 21.4758Q85.1161 22.4358 85.3417 23.4363L85.3417 23.4365Q85.3537 23.4895 85.3651 23.543C83.8666 19.3779 79.8811 16.3999 75.2 16.3999C69.2354 16.3999 64.4 21.2351 64.4 27.2C64.4 31.8813 67.3785 35.8669 71.5438 37.3652ZM72.4417 37.1487Q71.8029 36.9712 71.1832 36.709Q70.3172 36.3428 69.5439 35.8354L69.5433 35.8352L69.5433 35.8352Q68.663 35.2576 67.9027 34.4973Q67.1424 33.7368 66.5649 32.8567L66.5649 32.8567L66.5648 32.8567Q66.0572 32.083 65.6908 31.2168Q65.331 30.366 65.1308 29.479Q64.88 28.3677 64.88 27.2Q64.88 26.032 65.1308 24.9207L65.1311 24.9194Q65.3312 24.0332 65.6908 23.1831Q66.0572 22.3169 66.5648 21.5432L66.5653 21.5425Q67.1427 20.6626 67.9027 19.9026Q68.6631 19.1421 69.5434 18.5647L69.5434 18.5647Q70.317 18.0571 71.1832 17.6907Q72.034 17.3308 72.9209 17.1306L72.9209 17.1306L72.9209 17.1306Q74.0322 16.8799 75.2 16.8799Q76.3678 16.8799 77.479 17.1306L77.4791 17.1306L77.4799 17.1309Q78.3664 17.3311 79.2169 17.6907Q80.083 18.0571 80.8565 18.5645L80.8566 18.5645L80.8566 18.5645Q81.7369 19.1421 82.4973 19.9026Q83.2577 20.6628 83.8353 21.5432Q84.3428 22.3169 84.7092 23.1831Q84.9716 23.8032 85.149 24.4429C83.6415 21.115 80.2911 18.8 76.4 18.8C71.0981 18.8 66.8 23.0981 66.8 28.4001C66.8 32.2908 69.1145 35.6409 72.4417 37.1487ZM74.0531 37.2166Q73.4418 37.0537 72.8503 36.8035Q72.0851 36.48 71.4017 36.0315L71.4011 36.0312Q70.6232 35.5208 69.9512 34.8489Q69.279 34.1765 68.7684 33.3982L68.7673 33.3965Q68.3197 32.7139 67.9965 31.9497Q67.6788 31.1985 67.5019 30.4155L67.5019 30.4153Q67.28 29.4329 67.28 28.4001Q67.28 27.3674 67.5019 26.3848Q67.6787 25.6016 67.9965 24.8503Q68.3202 24.0852 68.7685 23.4016Q69.279 22.6235 69.9512 21.9512Q70.6233 21.2791 71.4014 20.7688L71.4018 20.7686L71.4018 20.7683Q72.0851 20.3201 72.8503 19.9966Q73.6016 19.6787 74.3847 19.502L74.3848 19.502Q75.3673 19.28 76.4 19.28Q77.4327 19.28 78.4152 19.502L78.4153 19.502L78.4153 19.502Q79.1984 19.6787 79.9498 19.9966Q80.7149 20.3201 81.3983 20.7686L81.3983 20.7686L81.3984 20.7686Q82.1766 21.2791 82.8488 21.9512Q83.521 22.6235 84.0316 23.4019L84.0316 23.4019Q84.4799 24.0852 84.8035 24.8503Q85.0536 25.4414 85.2164 26.0525C83.8791 23.1863 80.9715 21.2 77.6 21.2C72.9608 21.2 69.2 24.9607 69.2 29.5999C69.2 32.9717 71.1866 35.8794 74.0531 37.2166ZM85.52 33.1997L85.52 33.2L85.52 37.5198L81.1776 37.5198Q80.6973 37.5176 80.2401 37.4136L80.2384 37.4133Q79.8711 37.3296 79.5186 37.1807Q79.1576 37.0278 78.835 36.8167L78.8349 36.8167L78.8349 36.8167Q78.4649 36.5742 78.1453 36.2546Q77.8258 35.9351 77.5834 35.5649L77.5833 35.5649Q77.372 35.2422 77.2193 34.8813Q77.0699 34.5281 76.9863 34.1599L76.9863 34.1599Q76.88 33.6919 76.88 33.2Q76.88 32.7078 76.9863 32.24Q77.0699 31.8718 77.2193 31.5186Q77.372 31.1575 77.5834 30.8347Q77.8258 30.4648 78.1453 30.1453Q78.4649 29.8257 78.835 29.5833Q79.1576 29.3718 79.5186 29.2192Q79.8719 29.0698 80.2401 28.9861Q80.708 28.8799 81.2 28.8799Q81.692 28.8799 82.1599 28.9861L82.1599 28.9861Q82.5281 29.0698 82.8814 29.2192Q83.2424 29.3718 83.565 29.5833Q83.9351 29.8257 84.2547 30.1453Q84.5739 30.4644 84.8162 30.834L84.8167 30.835L84.8168 30.835Q85.028 31.1575 85.1807 31.5186Q85.3301 31.8718 85.4137 32.24L85.4138 32.24Q85.52 32.7078 85.52 33.1997ZM75.6642 37.283Q75.0805 37.136 74.5173 36.8977Q73.8533 36.6169 73.2602 36.2278L73.2601 36.2278L73.26 36.2278Q72.5838 35.7842 71.9997 35.2002Q71.4157 34.6162 70.9722 33.9399L70.9721 33.9399Q70.5831 33.3467 70.3022 32.6826Q70.0266 32.031 69.873 31.3516L69.873 31.3516L69.873 31.3513Q69.68 30.4976 69.68 29.5999Q69.68 28.7024 69.873 27.8484L69.8732 27.8474Q70.0267 27.1685 70.3022 26.5173Q70.583 25.8535 70.9717 25.2607L70.9722 25.26Q71.4157 24.5837 71.9997 23.9998Q72.5838 23.4155 73.26 22.9722L73.26 22.9722Q73.8532 22.583 74.5173 22.3022Q75.1692 22.0264 75.8486 21.8728L75.8488 21.8728Q76.7026 21.6799 77.6 21.6799Q78.4976 21.6799 79.3515 21.873Q80.0309 22.0264 80.6827 22.3022Q81.3468 22.583 81.9399 22.9722L81.94 22.9722L81.9404 22.9724Q82.6164 23.4158 83.2003 23.9998Q83.7843 24.5837 84.2279 25.26L84.2279 25.26Q84.6169 25.8533 84.8978 26.5173Q85.1359 27.0801 85.2828 27.6636C84.1171 25.2583 81.6522 23.5999 78.8 23.5999C74.8236 23.5999 71.6 26.8235 71.6 30.7998C71.6 33.6523 73.2587 36.1172 75.6642 37.283ZM77.276 37.3474Q76.7193 37.2183 76.1844 36.9919Q75.6214 36.7537 75.1184 36.4241L75.1176 36.4236Q74.5438 36.0471 74.0483 35.5515Q73.5526 35.0559 73.1762 34.4819L73.1759 34.4817L73.1759 34.4814L73.1759 34.4814Q72.8461 33.9785 72.6079 33.4155Q72.3745 32.8635 72.2443 32.2886L72.2441 32.2876Q72.08 31.5623 72.08 30.7998Q72.08 30.0376 72.2441 29.3123L72.2441 29.3123Q72.3743 28.7366 72.6079 28.1843Q72.8461 27.6213 73.1758 27.1182L73.1759 27.1182L73.1759 27.1182Q73.5524 26.5439 74.0483 26.0481Q74.5439 25.5525 75.1178 25.176L75.1183 25.1758L75.1187 25.1755Q75.6216 24.8457 76.1844 24.6077Q76.7367 24.374 77.3124 24.2439L77.3128 24.2439Q78.0379 24.0798 78.8 24.0798Q79.5623 24.0798 80.2876 24.2439L80.2876 24.2439Q80.8633 24.374 81.4156 24.6077Q81.9785 24.8459 82.4814 25.1755L82.4817 25.1758L82.4817 25.1758Q83.0559 25.5522 83.5518 26.0481Q84.0477 26.5439 84.4241 27.1182L84.4246 27.1189Q84.7541 27.6216 84.9921 28.1843Q85.2185 28.7195 85.3478 29.2766C84.3554 27.3318 82.3332 26 80 26C76.6863 26 74 28.6863 74 32C74 34.333 75.3315 36.355 77.276 37.3474ZM78.8923 37.4097Q78.8341 37.3979 78.7762 37.3848Q78.3043 37.2778 77.8515 37.0864Q77.3895 36.8909 76.9768 36.6204L76.9767 36.6204L76.9767 36.6204L76.9756 36.6196Q76.504 36.3105 76.0968 35.9033Q75.6891 35.4956 75.3796 35.0234L75.3796 35.0234L75.3796 35.0232Q75.109 34.6106 74.9136 34.1484Q74.7222 33.696 74.6153 33.2244L74.6152 33.2239Q74.48 32.6272 74.48 32Q74.48 31.3728 74.6152 30.7761L74.6152 30.7761Q74.7221 30.3042 74.9136 29.8516Q75.1091 29.3894 75.3796 28.9766L75.3796 28.9766Q75.6891 28.5044 76.0968 28.0967Q76.5045 27.689 76.9767 27.3796L76.9776 27.3789Q77.39 27.1089 77.8515 26.9136Q78.3043 26.7222 78.7763 26.6152Q79.3728 26.48 80 26.48Q80.6272 26.48 81.2237 26.6152L81.2238 26.6152Q81.6957 26.7222 82.1485 26.9136Q82.6105 27.1091 83.0234 27.3796L83.0234 27.3796Q83.4955 27.689 83.9032 28.0967Q84.311 28.5044 84.6204 28.9766L84.6204 28.9766Q84.891 29.3894 85.0864 29.8516Q85.2779 30.3042 85.3848 30.7761L85.3848 30.7761Q85.3979 30.834 85.4097 30.8918C84.5937 29.4065 83.0144 28.3999 81.2 28.3999C78.549 28.3999 76.4 30.5488 76.4 33.2C76.4 35.0144 77.4069 36.5938 78.8923 37.4097Z" clip-rule="evenodd" fill="url(#paint_linear_150_418_0)" fill-opacity="1.000000" fill-rule="evenodd"/>
		<path id="Union" d="M50 14C43.3726 14 38 19.3726 38 26C38 32.6274 43.3726 38 50 38L52.3671 38C52.3781 38 52.389 38 52.4 38L62 38L62 26C62 19.3726 56.6274 14 50 14ZM47.5438 37.3652Q47.4901 37.3538 47.4365 37.3416Q46.4358 37.1162 45.4758 36.71Q44.4996 36.2971 43.6279 35.7251L43.6278 35.7251Q42.637 35.075 41.7811 34.219Q40.9255 33.3633 40.2754 32.3728L40.2753 32.3728Q39.703 31.5007 39.2899 30.5242Q38.8839 29.5642 38.6584 28.5637L38.6582 28.563Q38.3767 27.3132 38.3767 26Q38.3767 24.6863 38.6584 23.4363L38.6584 23.4363L38.6584 23.436Q38.8839 22.4355 39.2899 21.4758Q39.7029 20.4995 40.275 19.6277L40.2751 19.6274Q40.9253 18.6367 41.7811 17.781Q42.6367 16.9253 43.6273 16.2751L43.6273 16.2751Q44.4993 15.7029 45.4758 15.2898Q46.4359 14.8838 47.4367 14.6582Q48.6866 14.3767 50 14.3767Q51.3135 14.3767 52.5634 14.6582L52.5635 14.6582L52.5635 14.6582Q53.5642 14.8838 54.5242 15.2898Q55.5007 15.7029 56.3727 16.2751Q57.3633 16.9253 58.219 17.781Q59.0746 18.6367 59.7248 19.6272L59.7248 19.6272L59.7248 19.6272Q60.2971 20.4993 60.7101 21.4758Q61.1161 22.4358 61.3417 23.4363L61.3417 23.4365Q61.3537 23.4895 61.3651 23.543C59.8666 19.3779 55.8811 16.3999 51.2 16.3999C45.2354 16.3999 40.4 21.2351 40.4 27.2C40.4 31.8813 43.3785 35.8669 47.5438 37.3652ZM48.4417 37.1487Q47.8029 36.9712 47.1832 36.709Q46.3172 36.3428 45.5439 35.8354L45.5433 35.8352L45.5433 35.8352Q44.663 35.2576 43.9027 34.4973Q43.1424 33.7368 42.5649 32.8567L42.5649 32.8567L42.5648 32.8567Q42.0572 32.083 41.6908 31.2168Q41.331 30.366 41.1308 29.479Q40.88 28.3677 40.88 27.2Q40.88 26.032 41.1308 24.9207L41.1311 24.9194Q41.3312 24.0332 41.6908 23.1831Q42.0572 22.3169 42.5648 21.5432L42.5653 21.5425Q43.1427 20.6626 43.9027 19.9026Q44.6631 19.1421 45.5434 18.5647L45.5434 18.5647Q46.317 18.0571 47.1832 17.6907Q48.034 17.3308 48.9209 17.1306L48.9209 17.1306L48.9209 17.1306Q50.0322 16.8799 51.2 16.8799Q52.3678 16.8799 53.479 17.1306L53.4791 17.1306L53.4799 17.1309Q54.3664 17.3311 55.2169 17.6907Q56.083 18.0571 56.8565 18.5645L56.8566 18.5645L56.8566 18.5645Q57.7369 19.1421 58.4973 19.9026Q59.2577 20.6628 59.8353 21.5432Q60.3428 22.3169 60.7092 23.1831Q60.9716 23.8032 61.149 24.4429C59.6415 21.115 56.2911 18.8 52.4 18.8C47.0981 18.8 42.8 23.0981 42.8 28.4001C42.8 32.2908 45.1145 35.6409 48.4417 37.1487ZM50.0531 37.2166Q49.4418 37.0537 48.8503 36.8035Q48.0851 36.48 47.4017 36.0315L47.4011 36.0312Q46.6232 35.5208 45.9512 34.8489Q45.279 34.1765 44.7684 33.3982L44.7673 33.3965Q44.3197 32.7139 43.9965 31.9497Q43.6788 31.1985 43.5019 30.4155L43.5019 30.4153Q43.28 29.4329 43.28 28.4001Q43.28 27.3674 43.5019 26.3848Q43.6787 25.6016 43.9965 24.8503Q44.3202 24.0852 44.7685 23.4016Q45.279 22.6235 45.9512 21.9512Q46.6233 21.2791 47.4014 20.7688L47.4018 20.7686L47.4018 20.7683Q48.0851 20.3201 48.8503 19.9966Q49.6016 19.6787 50.3847 19.502L50.3848 19.502Q51.3673 19.28 52.4 19.28Q53.4327 19.28 54.4152 19.502L54.4153 19.502L54.4153 19.502Q55.1984 19.6787 55.9498 19.9966Q56.7149 20.3201 57.3983 20.7686L57.3983 20.7686L57.3984 20.7686Q58.1766 21.2791 58.8488 21.9512Q59.521 22.6235 60.0316 23.4019L60.0316 23.4019Q60.4799 24.0852 60.8035 24.8503Q61.0536 25.4414 61.2164 26.0525C59.8791 23.1863 56.9715 21.2 53.6 21.2C48.9608 21.2 45.2 24.9607 45.2 29.5999C45.2 32.9717 47.1866 35.8794 50.0531 37.2166ZM61.52 33.1997L61.52 33.2L61.52 37.5198L57.1776 37.5198Q56.6973 37.5176 56.2401 37.4136L56.2384 37.4133Q55.8711 37.3296 55.5186 37.1807Q55.1576 37.0278 54.835 36.8167L54.8349 36.8167L54.8349 36.8167Q54.4649 36.5742 54.1453 36.2546Q53.8258 35.9351 53.5834 35.5649L53.5833 35.5649Q53.372 35.2422 53.2193 34.8813Q53.0699 34.5281 52.9863 34.1599L52.9863 34.1599Q52.88 33.6919 52.88 33.2Q52.88 32.7078 52.9863 32.24Q53.0699 31.8718 53.2193 31.5186Q53.372 31.1575 53.5834 30.8347Q53.8258 30.4648 54.1453 30.1453Q54.4649 29.8257 54.835 29.5833Q55.1576 29.3718 55.5186 29.2192Q55.8719 29.0698 56.2401 28.9861Q56.708 28.8799 57.2 28.8799Q57.692 28.8799 58.1599 28.9861L58.1599 28.9861Q58.5281 29.0698 58.8814 29.2192Q59.2424 29.3718 59.565 29.5833Q59.9351 29.8257 60.2547 30.1453Q60.5739 30.4644 60.8162 30.834L60.8167 30.835L60.8168 30.835Q61.028 31.1575 61.1807 31.5186Q61.3301 31.8718 61.4137 32.24L61.4138 32.24Q61.52 32.7078 61.52 33.1997ZM51.6642 37.283Q51.0805 37.136 50.5173 36.8977Q49.8533 36.6169 49.2602 36.2278L49.2601 36.2278L49.26 36.2278Q48.5838 35.7842 47.9997 35.2002Q47.4157 34.6162 46.9722 33.9399L46.9721 33.9399Q46.5831 33.3467 46.3022 32.6826Q46.0266 32.031 45.873 31.3516L45.873 31.3516L45.873 31.3513Q45.68 30.4976 45.68 29.5999Q45.68 28.7024 45.873 27.8484L45.8732 27.8474Q46.0267 27.1685 46.3022 26.5173Q46.583 25.8535 46.9717 25.2607L46.9722 25.26Q47.4157 24.5837 47.9997 23.9998Q48.5838 23.4155 49.26 22.9722L49.26 22.9722Q49.8532 22.583 50.5173 22.3022Q51.1692 22.0264 51.8486 21.8728L51.8488 21.8728Q52.7026 21.6799 53.6 21.6799Q54.4976 21.6799 55.3515 21.873Q56.0309 22.0264 56.6827 22.3022Q57.3468 22.583 57.9399 22.9722L57.94 22.9722L57.9404 22.9724Q58.6164 23.4158 59.2003 23.9998Q59.7843 24.5837 60.2279 25.26L60.2279 25.26Q60.6169 25.8533 60.8978 26.5173Q61.1359 27.0801 61.2828 27.6636C60.1171 25.2583 57.6522 23.5999 54.8 23.5999C50.8236 23.5999 47.6 26.8235 47.6 30.7998C47.6 33.6523 49.2587 36.1172 51.6642 37.283ZM53.276 37.3474Q52.7193 37.2183 52.1844 36.9919Q51.6214 36.7537 51.1184 36.4241L51.1176 36.4236Q50.5438 36.0471 50.0483 35.5515Q49.5526 35.0559 49.1762 34.4819L49.1759 34.4817L49.1759 34.4814L49.1759 34.4814Q48.8461 33.9785 48.6079 33.4155Q48.3745 32.8635 48.2443 32.2886L48.2441 32.2876Q48.08 31.5623 48.08 30.7998Q48.08 30.0376 48.2441 29.3123L48.2441 29.3123Q48.3743 28.7366 48.6079 28.1843Q48.8461 27.6213 49.1758 27.1182L49.1759 27.1182L49.1759 27.1182Q49.5524 26.5439 50.0483 26.0481Q50.5439 25.5525 51.1178 25.176L51.1183 25.1758L51.1187 25.1755Q51.6216 24.8457 52.1844 24.6077Q52.7367 24.374 53.3124 24.2439L53.3128 24.2439Q54.0379 24.0798 54.8 24.0798Q55.5623 24.0798 56.2876 24.2439L56.2876 24.2439Q56.8633 24.374 57.4156 24.6077Q57.9785 24.8459 58.4814 25.1755L58.4817 25.1758L58.4817 25.1758Q59.0559 25.5522 59.5518 26.0481Q60.0477 26.5439 60.4241 27.1182L60.4246 27.1189Q60.7541 27.6216 60.9921 28.1843Q61.2185 28.7195 61.3478 29.2766C60.3554 27.3318 58.3332 26 56 26C52.6863 26 50 28.6863 50 32C50 34.333 51.3315 36.355 53.276 37.3474ZM54.8923 37.4097Q54.8341 37.3979 54.7762 37.3848Q54.3043 37.2778 53.8515 37.0864Q53.3895 36.8909 52.9768 36.6204L52.9767 36.6204L52.9767 36.6204L52.9756 36.6196Q52.504 36.3105 52.0968 35.9033Q51.6891 35.4956 51.3796 35.0234L51.3796 35.0234L51.3796 35.0232Q51.109 34.6106 50.9136 34.1484Q50.7222 33.696 50.6153 33.2244L50.6152 33.2239Q50.48 32.6272 50.48 32Q50.48 31.3728 50.6152 30.7761L50.6152 30.7761Q50.7221 30.3042 50.9136 29.8516Q51.1091 29.3894 51.3796 28.9766L51.3796 28.9766Q51.6891 28.5044 52.0968 28.0967Q52.5045 27.689 52.9767 27.3796L52.9776 27.3789Q53.39 27.1089 53.8515 26.9136Q54.3043 26.7222 54.7763 26.6152Q55.3728 26.48 56 26.48Q56.6272 26.48 57.2237 26.6152L57.2238 26.6152Q57.6957 26.7222 58.1485 26.9136Q58.6105 27.1091 59.0234 27.3796L59.0234 27.3796Q59.4955 27.689 59.9032 28.0967Q60.311 28.5044 60.6204 28.9766L60.6204 28.9766Q60.891 29.3894 61.0864 29.8516Q61.2779 30.3042 61.3848 30.7761L61.3848 30.7761Q61.3979 30.834 61.4097 30.8918C60.5937 29.4065 59.0144 28.3999 57.2 28.3999C54.549 28.3999 52.4 30.5488 52.4 33.2C52.4 35.0144 53.4069 36.5938 54.8923 37.4097Z" clip-rule="evenodd" fill="url(#paint_linear_150_426_0)" fill-opacity="1.000000" fill-rule="evenodd"/>
		<path id="Union" d="M26.0001 14C19.3727 14 14.0001 19.3726 14.0001 26C14.0001 32.6274 19.3727 38 26.0001 38L28.3671 38C28.3781 38 28.3891 38 28.4001 38L38.0001 38L38.0001 26C38.0001 19.3726 32.6275 14 26.0001 14ZM23.5439 37.3652Q23.4902 37.3538 23.4366 37.3416Q22.4359 37.1162 21.4759 36.71Q20.4997 36.2971 19.628 35.7251L19.6279 35.7251Q18.637 35.075 17.7811 34.219Q16.9255 33.3633 16.2754 32.3728L16.2753 32.3728Q15.703 31.5007 15.29 30.5242Q14.884 29.5642 14.6584 28.5637L14.6583 28.563Q14.3767 27.3132 14.3767 26Q14.3767 24.6863 14.6585 23.4363L14.6585 23.4363L14.6585 23.436Q14.884 22.4355 15.29 21.4758Q15.7029 20.4995 16.2751 19.6277L16.2751 19.6274Q16.9253 18.6367 17.7811 17.781Q18.6368 16.9253 19.6273 16.2751L19.6274 16.2751Q20.4994 15.7029 21.4759 15.2898Q22.436 14.8838 23.4368 14.6582Q24.6867 14.3767 26.0001 14.3767Q27.3135 14.3767 28.5635 14.6582L28.5635 14.6582L28.5636 14.6582Q29.5643 14.8838 30.5243 15.2898Q31.5008 15.7029 32.3727 16.2751Q33.3633 16.9253 34.219 17.781Q35.0747 18.6367 35.7248 19.6272L35.7249 19.6272L35.7249 19.6272Q36.2972 20.4993 36.7102 21.4758Q37.1162 22.4358 37.3417 23.4363L37.3417 23.4365Q37.3537 23.4895 37.3652 23.543C35.8666 19.3779 31.8811 16.3999 27.2001 16.3999C21.2354 16.3999 16.4001 21.2351 16.4001 27.2C16.4001 31.8813 19.3786 35.8669 23.5439 37.3652ZM24.4418 37.1487Q23.8029 36.9712 23.1832 36.709Q22.3173 36.3428 21.5439 35.8354L21.5434 35.8352L21.5433 35.8352Q20.6631 35.2576 19.9027 34.4973Q19.1425 33.7368 18.5649 32.8567L18.5649 32.8567L18.5648 32.8567Q18.0573 32.083 17.6909 31.2168Q17.331 30.366 17.1309 29.479Q16.8801 28.3677 16.8801 27.2Q16.8801 26.032 17.1309 24.9207L17.1311 24.9194Q17.3313 24.0332 17.6909 23.1831Q18.0573 22.3169 18.5648 21.5432L18.5654 21.5425Q19.1428 20.6626 19.9027 19.9026Q20.6631 19.1421 21.5434 18.5647L21.5435 18.5647Q22.317 18.0571 23.1832 17.6907Q24.0341 17.3308 24.9209 17.1306L24.921 17.1306L24.921 17.1306Q26.0322 16.8799 27.2001 16.8799Q28.3679 16.8799 29.4791 17.1306L29.4791 17.1306L29.48 17.1309Q30.3665 17.3311 31.2169 17.6907Q32.083 18.0571 32.8565 18.5645L32.8566 18.5645L32.8566 18.5645Q33.737 19.1421 34.4974 19.9026Q35.2578 20.6628 35.8354 21.5432Q36.3429 22.3169 36.7093 23.1831Q36.9716 23.8032 37.1491 24.4429C35.6415 21.115 32.2912 18.8 28.4001 18.8C23.0982 18.8 18.8001 23.0981 18.8001 28.4001C18.8001 32.2908 21.1146 35.6409 24.4418 37.1487ZM26.0532 37.2166Q25.4419 37.0537 24.8503 36.8035Q24.0851 36.48 23.4018 36.0315L23.4012 36.0312Q22.6232 35.5208 21.9513 34.8489Q21.279 34.1765 20.7685 33.3982L20.7674 33.3965Q20.3198 32.7139 19.9966 31.9497Q19.6788 31.1985 19.502 30.4155L19.502 30.4153Q19.2801 29.4329 19.2801 28.4001Q19.2801 27.3674 19.502 26.3848Q19.6788 25.6016 19.9966 24.8503Q20.3202 24.0852 20.7685 23.4016Q21.2791 22.6235 21.9513 21.9512Q22.6233 21.2791 23.4014 20.7688L23.4018 20.7686L23.4018 20.7683Q24.0852 20.3201 24.8503 19.9966Q25.6016 19.6787 26.3848 19.502L26.3848 19.502Q27.3674 19.28 28.4001 19.28Q29.4327 19.28 30.4153 19.502L30.4153 19.502L30.4154 19.502Q31.1985 19.6787 31.9498 19.9966Q32.715 20.3201 33.3984 20.7686L33.3984 20.7686L33.3984 20.7686Q34.1767 21.2791 34.8489 21.9512Q35.5211 22.6235 36.0317 23.4019L36.0317 23.4019Q36.4799 24.0852 36.8036 24.8503Q37.0536 25.4414 37.2164 26.0525C35.8792 23.1863 32.9716 21.2 29.6001 21.2C24.9609 21.2 21.2001 24.9607 21.2001 29.5999C21.2001 32.9717 23.1867 35.8794 26.0532 37.2166ZM37.5201 33.1997L37.5201 33.2L37.5201 37.5198L33.1776 37.5198Q32.6974 37.5176 32.2401 37.4136L32.2385 37.4133Q31.8711 37.3296 31.5187 37.1807Q31.1577 37.0278 30.835 36.8167L30.835 36.8167L30.835 36.8167Q30.4649 36.5742 30.1454 36.2546Q29.8258 35.9351 29.5834 35.5649L29.5834 35.5649Q29.3721 35.2422 29.2194 34.8813Q29.07 34.5281 28.9864 34.1599L28.9863 34.1599Q28.8801 33.6919 28.8801 33.2Q28.8801 32.7078 28.9863 32.24Q29.0699 31.8718 29.2194 31.5186Q29.3721 31.1575 29.5834 30.8347Q29.8258 30.4648 30.1454 30.1453Q30.4649 29.8257 30.8351 29.5833Q31.1577 29.3718 31.5187 29.2192Q31.8719 29.0698 32.2401 28.9861Q32.708 28.8799 33.2001 28.8799Q33.6921 28.8799 34.16 28.9861L34.16 28.9861Q34.5282 29.0698 34.8815 29.2192Q35.2425 29.3718 35.5651 29.5833Q35.9352 29.8257 36.2548 30.1453Q36.574 30.4644 36.8162 30.834L36.8168 30.835L36.8168 30.835Q37.0281 31.1575 37.1808 31.5186Q37.3302 31.8718 37.4138 32.24L37.4138 32.24Q37.52 32.7078 37.5201 33.1997ZM27.6643 37.283Q27.0805 37.136 26.5174 36.8977Q25.8534 36.6169 25.2602 36.2278L25.2601 36.2278L25.2601 36.2278Q24.5838 35.7842 23.9998 35.2002Q23.4157 34.6162 22.9722 33.9399L22.9722 33.9399Q22.5832 33.3467 22.3023 32.6826Q22.0266 32.031 21.8731 31.3516L21.8731 31.3516L21.8731 31.3513Q21.6801 30.4976 21.6801 29.5999Q21.6801 28.7024 21.8731 27.8484L21.8733 27.8474Q22.0268 27.1685 22.3023 26.5173Q22.583 25.8535 22.9718 25.2607L22.9722 25.26Q23.4158 24.5837 23.9998 23.9998Q24.5838 23.4155 25.26 22.9722L25.2601 22.9722Q25.8533 22.583 26.5174 22.3022Q27.1692 22.0264 27.8487 21.8728L27.8488 21.8728Q28.7027 21.6799 29.6001 21.6799Q30.4976 21.6799 31.3515 21.873Q32.0309 22.0264 32.6827 22.3022Q33.3468 22.583 33.94 22.9722L33.94 22.9722L33.9404 22.9724Q34.6165 23.4158 35.2004 23.9998Q35.7844 24.5837 36.2279 25.26L36.2279 25.26Q36.617 25.8533 36.8979 26.5173Q37.1359 27.0801 37.2829 27.6636C36.1171 25.2583 33.6523 23.5999 30.8001 23.5999C26.8236 23.5999 23.6001 26.8235 23.6001 30.7998C23.6001 33.6523 25.2588 36.1172 27.6643 37.283ZM29.2761 37.3474Q28.7193 37.2183 28.1845 36.9919Q27.6214 36.7537 27.1184 36.4241L27.1177 36.4236Q26.5439 36.0471 26.0483 35.5515Q25.5527 35.0559 25.1763 34.4819L25.176 34.4817L25.176 34.4814L25.1759 34.4814Q24.8461 33.9785 24.608 33.4155Q24.3746 32.8635 24.2444 32.2886L24.2442 32.2876Q24.0801 31.5623 24.0801 30.7998Q24.0801 30.0376 24.2441 29.3123L24.2441 29.3123Q24.3744 28.7366 24.608 28.1843Q24.8461 27.6213 25.1759 27.1182L25.1759 27.1182L25.1759 27.1182Q25.5524 26.5439 26.0483 26.0481Q26.544 25.5525 27.1178 25.176L27.1183 25.1758L27.1188 25.1755Q27.6216 24.8457 28.1845 24.6077Q28.7368 24.374 29.3125 24.2439L29.3129 24.2439Q30.0379 24.0798 30.8001 24.0798Q31.5624 24.0798 32.2876 24.2439L32.2876 24.2439Q32.8633 24.374 33.4156 24.6077Q33.9786 24.8459 34.4815 25.1755L34.4817 25.1758L34.4818 25.1758Q35.0559 25.5522 35.5518 26.0481Q36.0477 26.5439 36.4242 27.1182L36.4247 27.1189Q36.7542 27.6216 36.9922 28.1843Q37.2185 28.7195 37.3478 29.2766C36.3554 27.3318 34.3333 26 32.0001 26C28.6864 26 26.0001 28.6863 26.0001 32C26.0001 34.333 27.3316 36.355 29.2761 37.3474ZM30.8924 37.4097Q30.8342 37.3979 30.7763 37.3848Q30.3043 37.2778 29.8516 37.0864Q29.3896 36.8909 28.9768 36.6204L28.9768 36.6204L28.9767 36.6204L28.9756 36.6196Q28.5041 36.3105 28.0968 35.9033Q27.6891 35.4956 27.3797 35.0234L27.3797 35.0234L27.3796 35.0232Q27.1091 34.6106 26.9137 34.1484Q26.7223 33.696 26.6154 33.2244L26.6153 33.2239Q26.4801 32.6272 26.4801 32Q26.4801 31.3728 26.6152 30.7761L26.6153 30.7761Q26.7222 30.3042 26.9137 29.8516Q27.1091 29.3894 27.3797 28.9766L27.3797 28.9766Q27.6891 28.5044 28.0968 28.0967Q28.5046 27.689 28.9767 27.3796L28.9777 27.3789Q29.3901 27.1089 29.8516 26.9136Q30.3044 26.7222 30.7763 26.6152Q31.3729 26.48 32.0001 26.48Q32.6272 26.48 33.2237 26.6152L33.2238 26.6152Q33.6958 26.7222 34.1486 26.9136Q34.6106 27.1091 35.0234 27.3796L35.0234 27.3796Q35.4956 27.689 35.9033 28.0967Q36.311 28.5044 36.6205 28.9766L36.6205 28.9766Q36.891 29.3894 37.0865 29.8516Q37.278 30.3042 37.3849 30.7761L37.3849 30.7761Q37.398 30.834 37.4098 30.8918C36.5937 29.4065 35.0145 28.3999 33.2001 28.3999C30.5491 28.3999 28.4001 30.5488 28.4001 33.2C28.4001 35.0144 29.4069 36.5938 30.8924 37.4097Z" clip-rule="evenodd" fill="url(#paint_linear_150_434_0)" fill-opacity="1.000000" fill-rule="evenodd"/>
	</g>
</svg>
