<svg width="40" height="40" viewBox="0 0 40 40" xmlns="http://www.w3.org/2000/svg">
<path d="M15 7.5C15 6.11929 13.8722 4.97815 12.5107 5.20799C5.43445 6.40261 0 12.5975 0 20V30C0 32.7614 2.23858 35 5 35H10C12.7614 35 15 32.7614 15 30V25C15 22.2386 12.7614 20 10 20C7.23858 20 4.89245 17.6277 6.21201 15.202C7.52265 12.7926 9.79497 10.9921 12.5247 10.3048C13.8636 9.96768 15 8.88071 15 7.5ZM34 7.5C34 6.11929 32.8722 4.97815 31.5107 5.20799C24.4344 6.40261 19 12.5975 19 20V30C19 32.7614 21.2386 35 24 35H29C31.7614 35 34 32.7614 34 30V25C34 22.2386 31.7614 20 29 20C26.2386 20 23.8924 17.6277 25.212 15.202C26.5227 12.7926 28.795 10.9921 31.5247 10.3048C32.8636 9.96768 34 8.88071 34 7.5Z"/>
</svg>
