<svg width="120" height="120" viewBox="0 0 120 120" fill="none" xmlns="http://www.w3.org/2000/svg">
<path fill-rule="evenodd" clip-rule="evenodd" d="M98.4 60C98.4 38.7922 81.2077 21.6 60 21.6C38.7923 21.6 21.6 38.7922 21.6 60C21.6 81.2077 38.7923 98.4 60 98.4C81.2077 98.4 98.4 81.2077 98.4 60ZM55.2 60C55.2 76.8519 56.5569 91.1685 58.4444 96.3385C58.088 95.9689 57.7028 95.4594 57.2963 94.7717C56.232 92.971 55.2319 90.2855 54.376 86.8618C52.6687 80.0329 51.6 70.5353 51.6 60C51.6 49.4647 52.6687 39.967 54.376 33.1381C55.2319 29.7144 56.232 27.0289 57.2963 25.2282C57.7028 24.5405 58.088 24.0311 58.4444 23.6615C56.5569 28.8315 55.2 43.148 55.2 60ZM62.7037 94.7717C62.2972 95.4594 61.912 95.9689 61.5556 96.3385C63.4431 91.1685 64.8 76.8519 64.8 60C64.8 43.148 63.4431 28.8315 61.5556 23.6615C61.912 24.0311 62.2972 24.5405 62.7037 25.2282C63.768 27.0289 64.7681 29.7144 65.6241 33.1381C67.3313 39.967 68.4 49.4647 68.4 60C68.4 70.5353 67.3313 80.0329 65.6241 86.8618C64.7681 90.2855 63.768 92.971 62.7037 94.7717ZM56.4944 95.7592C56.0945 95.4285 55.6936 95.0383 55.2928 94.5862C53.7021 92.792 52.2147 90.1273 50.9413 86.7315C48.3977 79.9488 46.8 70.498 46.8 60C46.8 49.5019 48.3977 40.0512 50.9413 33.2684C52.2147 29.8726 53.7021 27.2079 55.2928 25.4137C55.6936 24.9616 56.0945 24.5715 56.4944 24.2408C52.9263 29.8419 50.4 43.7408 50.4 60C50.4 76.2591 52.9263 90.1581 56.4944 95.7592ZM63.5056 95.7592C63.9055 95.4285 64.3064 95.0383 64.7072 94.5862C66.298 92.792 67.7853 90.1273 69.0587 86.7315C71.6023 79.9488 73.2 70.498 73.2 60C73.2 49.5019 71.6023 40.0512 69.0587 33.2684C67.7853 29.8726 66.298 27.2079 64.7072 25.4137C64.3064 24.9616 63.9055 24.5715 63.5056 24.2408C67.0737 29.8419 69.6 43.7408 69.6 60C69.6 76.2591 67.0737 90.1581 63.5056 95.7592ZM47.4969 86.6162C49.4459 90.5143 51.7474 93.4135 54.2208 95.1824C49.1453 89.2452 45.6 75.7266 45.6 60C45.6 44.2733 49.1453 30.7548 54.2208 24.8176C51.7474 26.5865 49.4459 29.4856 47.4969 33.3837C44.122 40.1334 42 49.542 42 60C42 70.4579 44.122 79.8665 47.4969 86.6162ZM72.5031 86.6162C70.5541 90.5143 68.2527 93.4135 65.7792 95.1824C70.8547 89.2452 74.4 75.7266 74.4 60C74.4 44.2733 70.8547 30.7548 65.7792 24.8176C68.2527 26.5865 70.5541 29.4856 72.5031 33.3837C75.878 40.1334 78 49.542 78 60C78 70.4579 75.878 79.8665 72.5031 86.6162ZM51.6862 94.6231C48.8442 92.7931 46.2475 90.0377 44.047 86.5169C39.8408 79.7869 37.2 70.4149 37.2 60C37.2 49.585 39.8408 40.213 44.047 33.4831C46.2475 29.9623 48.8442 27.2069 51.6862 25.3768C45.2455 31.5744 40.8 44.7489 40.8 60C40.8 75.2511 45.2455 88.4256 51.6862 94.6231ZM68.3138 94.6231C71.1558 92.7931 73.7525 90.0377 75.953 86.5169C80.1592 79.7869 82.8 70.4149 82.8 60C82.8 49.585 80.1592 40.213 75.953 33.4831C73.7525 29.9623 71.1558 27.2069 68.3138 25.3768C74.7545 31.5744 79.2 44.7489 79.2 60C79.2 75.2511 74.7545 88.4256 68.3138 94.6231ZM40.5953 86.4329C42.9978 89.6362 45.8163 92.2317 48.9193 94.0712C41.2418 87.666 36 74.8124 36 60C36 45.1875 41.2418 32.3339 48.9193 25.9288C45.8163 27.7683 42.9978 30.3638 40.5953 33.5671C35.5538 40.2892 32.4 49.6306 32.4 60C32.4 70.3693 35.5538 79.7108 40.5953 86.4329ZM79.4047 86.4329C77.0022 89.6362 74.1837 92.2317 71.0807 94.0712C78.7582 87.666 84 74.8124 84 60C84 45.1875 78.7582 32.3339 71.0807 25.9288C74.1837 27.7683 77.0022 30.3637 79.4047 33.5671C84.4463 40.2892 87.6 49.6306 87.6 60C87.6 70.3693 84.4463 79.7108 79.4047 86.4329ZM45.9139 93.5013C35.1212 87.5063 27.6 74.8314 27.6 60C27.6 45.1685 35.1212 32.4937 45.9139 26.4986C37.1327 33.0766 31.2 45.6145 31.2 60C31.2 74.3855 37.1328 86.9234 45.9139 93.5013ZM74.0861 93.5013C84.8788 87.5063 92.4 74.8314 92.4 60C92.4 45.1685 84.8788 32.4936 74.0861 26.4986C82.8673 33.0766 88.8 45.6145 88.8 60C88.8 74.3855 82.8673 86.9234 74.0861 93.5013ZM22.8 60C22.8 74.3379 30.9116 86.7813 42.796 92.9913C32.9762 86.2886 26.4 74.022 26.4 60C26.4 45.978 32.9762 33.7114 42.796 27.0086C30.9116 33.2187 22.8 45.6621 22.8 60ZM97.2 60C97.2 74.3379 89.0884 86.7813 77.204 92.9913C87.0238 86.2886 93.6 74.022 93.6 60C93.6 45.978 87.0238 33.7114 77.204 27.0086C89.0884 33.2187 97.2 45.6621 97.2 60ZM62.2034 87.004C63.0641 80.1181 63.6 70.5702 63.6 60C63.6 49.4297 63.0641 39.8818 62.2034 32.9959C61.772 29.5445 61.2644 26.808 60.7176 24.9577C60.6782 24.8244 60.639 24.697 60.6 24.5756V95.4244C60.639 95.3029 60.6782 95.1756 60.7176 95.0422C61.2644 93.1919 61.772 90.4554 62.2034 87.004ZM59.4 24.5756V95.4244C59.3611 95.3029 59.3218 95.1756 59.2824 95.0422C58.7356 93.1919 58.2281 90.4554 57.7966 87.004C56.9359 80.1181 56.4 70.5702 56.4 60C56.4 49.4297 56.9359 39.8818 57.7966 32.9959C58.2281 29.5445 58.7356 26.808 59.2824 24.9577C59.3218 24.8244 59.3611 24.697 59.4 24.5756Z" fill="url(#paint0_linear_17_102)"/>
<defs>
<linearGradient id="paint0_linear_17_102" x1="43.8" y1="25.2" x2="72.6" y2="100.8" gradientUnits="userSpaceOnUse">
<stop stop-color="#0E0E0E"/>
<stop offset="1" stop-color="#0E0E0E" stop-opacity="0"/>
</linearGradient>
</defs>
</svg>
