<svg width="120" height="120" viewBox="0 0 120 120" fill="none" xmlns="http://www.w3.org/2000/svg">
<path fill-rule="evenodd" clip-rule="evenodd" d="M60.5745 97.9919L102 68.5674L86.0977 21.6H33.9023L18 68.5674L18.6 68.9936V69.141H18.8075L60 98.4L60.5643 97.9991L60.5713 98.0013L60.5745 97.9919ZM59.7228 96.7737L68.9882 69.141H20.8198L59.7228 96.7737ZM19.4556 67.9936H49.4833L34.4849 23.6047L19.4556 67.9936ZM35.4563 22.7474H84.0631L44.6367 49.9174L35.4563 22.7474ZM85.3933 23.245L61.0261 40.0373L100.225 67.0506L85.3933 23.245ZM100.178 68.4324L61.2036 96.1157L76.0591 51.8114L100.178 68.4324ZM45.0243 51.0646L50.7444 67.9936H69.373L75.0355 51.106L59.9999 40.7444L45.0243 51.0646Z" fill="url(#paint0_linear_17_100)"/>
<defs>
<linearGradient id="paint0_linear_17_100" x1="18" y1="60" x2="102" y2="60" gradientUnits="userSpaceOnUse">
<stop stop-color="#9FE11F"/>
<stop offset="0.58" stop-color="#FFDD48"/>
<stop offset="1" stop-color="#FF9217"/>
</linearGradient>
</defs>
</svg>
