<svg width="43" height="79" viewBox="0 0 43 79" fill="none" xmlns="http://www.w3.org/2000/svg">
<g clip-path="url(#clip0_133_85)">
<path d="M40.5307 62.4635H40.2366V62.2988H41.0288V62.4635H40.7364V63.2849H40.5307V62.4635ZM42.1109 62.5064H42.1063L41.8146 63.2852H41.6812L41.3915 62.5064H41.388V63.2852H41.194V62.2991H41.4794L41.748 62.9974L42.0158 62.2991H42.3001V63.2852H42.1108L42.1109 62.5064Z" fill="#E76F00"/>
<path d="M14.1862 42.3002C14.1862 42.3002 12.1386 43.4909 15.6433 43.8938C19.8891 44.3782 22.0591 44.3087 26.738 43.4232C26.738 43.4232 27.9681 44.1945 29.686 44.8626C19.1972 49.3579 5.94773 44.6022 14.1862 42.3002ZM12.9045 36.4341C12.9045 36.4341 10.608 38.134 14.1152 38.4968C18.6507 38.9647 22.2325 39.0029 28.4304 37.8095C28.4304 37.8095 29.2877 38.6786 30.6357 39.1538C17.9539 42.8621 3.82887 39.4463 12.9045 36.4341Z" fill="#5382A1"/>
<path d="M23.7096 26.4832C26.294 29.4587 23.0307 32.1364 23.0307 32.1364C23.0307 32.1364 29.5928 28.7488 26.5791 24.5066C23.7643 20.5503 21.6058 18.5849 33.2914 11.8076C33.2915 11.8075 14.9488 16.3886 23.7096 26.4832Z" fill="#E76F00"/>
<path d="M37.5818 46.6391C37.5818 46.6391 39.097 47.8877 35.913 48.8534C29.8587 50.6875 10.7144 51.2413 5.39618 48.9266C3.48442 48.0948 7.06952 46.9406 8.19725 46.6984C9.37337 46.4434 10.0455 46.4909 10.0455 46.4909C7.9194 44.9932 -3.6966 49.4316 4.14512 50.7029C25.5306 54.171 43.129 49.1412 37.5818 46.6391ZM15.1708 30.356C15.1708 30.356 5.43272 32.669 11.7223 33.5089C14.3779 33.8644 19.6719 33.784 24.6029 33.3708C28.633 33.0309 32.6797 32.3082 32.6797 32.3082C32.6797 32.3082 31.2587 32.9168 30.2306 33.6186C20.3418 36.2195 1.23848 35.0095 6.73809 32.3492C11.3891 30.101 15.1708 30.356 15.1708 30.356ZM32.6396 40.1205C42.692 34.8969 38.0443 29.8769 34.8 30.5533C34.0049 30.7188 33.6504 30.8622 33.6504 30.8622C33.6504 30.8622 33.9457 30.3998 34.5092 30.1996C40.9271 27.9433 45.8629 36.8544 32.4374 40.3839C32.4374 40.3839 32.5932 40.245 32.6396 40.1205Z" fill="#5382A1"/>
<path d="M26.5789 0.864014C26.5789 0.864014 32.1461 6.43294 21.2987 14.9967C12.6002 21.8661 19.3152 25.7829 21.2951 30.2582C16.2177 25.6769 12.4916 21.6443 14.9914 17.8909C18.6604 12.3814 28.8252 9.71014 26.5789 0.864014Z" fill="#E76F00"/>
<path d="M16.1586 54.2754C25.8077 54.8931 40.6249 53.9327 40.9757 49.3672C40.9757 49.3672 40.3013 51.0979 33.0013 52.4725C24.7657 54.0223 14.608 53.8414 8.5835 52.8482C8.58378 52.8479 9.81694 53.8687 16.1586 54.2754Z" fill="#5382A1"/>
<path d="M14.5772 71.721C13.6669 72.5105 12.7056 72.9537 11.8428 72.9537C10.6114 72.9537 9.94609 72.2153 9.94609 71.031C9.94609 69.7499 10.6591 68.8132 13.5188 68.8132H14.577L14.5772 71.721ZM17.0888 74.5548V65.7828C17.0888 63.5418 15.8108 62.0633 12.7292 62.0633C10.9303 62.0633 9.35442 62.5075 8.07361 63.074L8.44331 64.6268C9.45176 64.2566 10.7571 63.9121 12.0384 63.9121C13.8135 63.9121 14.5772 64.6268 14.5772 66.1044V67.2132H13.6912C9.37825 67.2132 7.43269 68.8874 7.43269 71.4002C7.43269 73.5691 8.71481 74.8018 11.1288 74.8018C12.6806 74.8018 13.8389 74.161 14.9218 73.2235L15.1183 74.5551L17.0888 74.5548ZM25.4711 74.5548H22.3386L18.5685 62.2854H21.3043L23.6435 69.8237L24.1636 72.0908C25.3471 68.8129 26.1842 65.4873 26.6029 62.2854H29.264C28.5509 66.3255 27.2679 70.7602 25.4711 74.5548ZM37.4884 71.721C36.5765 72.5105 35.6135 72.9537 34.7506 72.9537C33.5214 72.9537 32.8543 72.2153 32.8543 71.031C32.8543 69.7499 33.5687 68.8132 36.4283 68.8132H37.4884V71.721ZM39.9998 74.5548V65.7828C39.9998 63.5418 38.7187 62.0633 35.6405 62.0633C33.8404 62.0633 32.2639 62.5075 30.9837 63.074L31.353 64.6268C32.3617 64.2566 33.6695 63.9121 34.9498 63.9121C36.7236 63.9121 37.4884 64.6268 37.4884 66.1044V67.2132H36.6009C32.2868 67.2132 30.3419 68.8874 30.3419 71.4002C30.3419 73.5691 31.623 74.8018 34.0366 74.8018C35.5894 74.8018 36.7473 74.161 37.8319 73.2235L38.0291 74.5551L39.9998 74.5548ZM4.6787 76.6383C3.9627 77.6837 2.80622 78.5108 1.54014 78.9787L0.300049 77.5194C1.26373 77.0249 2.09021 76.2263 2.47421 75.4826C2.80637 74.821 2.94385 73.9684 2.94385 71.9294V57.9219H5.61235V71.7375C5.6122 74.4633 5.39428 75.5644 4.6787 76.6383Z" fill="#E76F00"/>
</g>
<defs>
<clipPath id="clip0_133_85">
<rect width="42" height="78.125" fill="white" transform="translate(0.300049 0.858887)"/>
</clipPath>
</defs>
</svg>
