<svg width="53" height="38" viewBox="0 0 53 38" fill="none" xmlns="http://www.w3.org/2000/svg">
<path d="M52.5212 24.8564C51.9372 21.2161 49.5634 18.1598 42.5331 15.3082C40.091 14.1857 37.3684 13.3819 36.5569 11.5313C36.2687 10.4544 36.2308 9.8477 36.4128 9.19547C36.9361 7.07954 39.4616 6.41974 41.4637 7.02646C42.753 7.45874 43.974 8.45232 44.7097 10.0373C48.1528 7.80768 48.1452 7.82278 50.5494 6.29089C49.6696 4.92577 49.1994 4.29622 48.623 3.71233C46.5526 1.39921 43.7314 0.208524 39.2189 0.299531C38.4377 0.398123 37.6491 0.504223 36.8679 0.602891C34.6155 1.17169 32.4691 2.35479 31.2102 3.93985C27.4334 8.2248 28.5103 15.7253 33.1062 18.8121C37.6338 22.2097 44.285 22.9832 45.1344 26.1609C45.9611 30.0515 42.2753 31.3104 38.6122 30.863C35.9123 30.3018 34.4107 28.9291 32.7877 26.434C29.7997 28.1631 29.7997 28.1631 26.7281 29.9302C27.4562 31.5228 28.2221 32.2433 29.4432 33.6236C35.2222 39.486 49.6848 39.1978 52.2786 30.3245C52.3847 30.0211 53.0825 27.9886 52.5212 24.8564ZM22.6403 0.769663H15.1776C15.1776 7.21605 15.1474 13.6169 15.1474 20.0633C15.1474 24.1663 15.3597 27.9279 14.6923 29.0807C13.6002 31.3482 10.7714 31.0677 9.48214 30.6278C8.17011 29.9831 7.50272 29.0655 6.72915 27.7687C6.5168 27.3971 6.35754 27.1089 6.30437 27.0861C4.27952 28.3223 2.26211 29.566 0.237183 30.8023C1.24593 32.8727 2.73232 34.6701 4.6359 35.838C7.47989 37.5444 11.3022 38.0676 15.2991 37.15C17.9004 36.3916 20.1452 34.8218 21.3207 32.4328C23.0195 29.3006 22.6555 25.5086 22.6403 21.3147C22.6782 14.4739 22.6403 7.63317 22.6403 0.769663Z" fill="white"/>
</svg>
