<svg width="54" height="58" viewBox="0 0 54 58" fill="none" xmlns="http://www.w3.org/2000/svg">
<g clip-path="url(#clip0_133_73)">
<path d="M24.8308 0.789715C26.2582 -0.0273425 28.1175 -0.0310331 29.5437 0.789715C36.7188 4.84404 43.8962 8.89202 51.0701 12.9488C52.4195 13.7089 53.322 15.2105 53.3083 16.7653V41.1577C53.3183 42.7768 52.3266 44.3144 50.903 45.0572C43.7515 49.0892 36.6036 53.1261 29.4533 57.1581C27.9963 57.9911 26.0997 57.9269 24.6883 57.0256C22.5443 55.7827 20.3965 54.546 18.2523 53.3043C17.8141 53.0431 17.3202 52.8352 17.0108 52.4103C17.2843 52.0417 17.7733 51.9957 18.1707 51.8348C19.0657 51.5502 19.8876 51.0934 20.7098 50.6501C20.9177 50.5078 21.1716 50.5624 21.3709 50.6897C23.2043 51.7409 25.0215 52.8226 26.861 53.8638C27.2535 54.0904 27.6508 53.7896 27.9863 53.6026C35.0041 49.6362 42.0306 45.6848 49.0473 41.7172C49.3073 41.5922 49.451 41.3162 49.4299 41.0314C49.4348 32.9849 49.4311 24.9369 49.4323 16.8904C49.4621 16.5672 49.2751 16.2701 48.9829 16.1379C41.8561 12.1244 34.7331 8.10469 27.6076 4.09014C27.4841 4.00526 27.3379 3.95972 27.188 3.9595C27.0382 3.95928 26.8919 4.00439 26.7682 4.08891C19.6426 8.10469 12.5208 12.1281 5.39528 16.1414C5.10413 16.2738 4.90874 16.566 4.94339 16.8904C4.94462 24.9369 4.94339 32.9849 4.94339 41.0326C4.93103 41.1716 4.96155 41.311 5.03083 41.4321C5.10012 41.5531 5.20484 41.6501 5.3309 41.7098C7.23238 42.7881 9.13632 43.8588 11.039 44.9334C12.1109 45.5103 13.427 45.8532 14.608 45.4111C15.6502 45.0373 16.3808 43.9738 16.3609 42.8673C16.3707 34.8677 16.3559 26.8669 16.3683 18.8685C16.3422 18.5134 16.6791 18.22 17.0244 18.2534C17.938 18.2473 18.8528 18.2411 19.7665 18.2559C20.1478 18.2473 20.4103 18.6297 20.3631 18.9874C20.3594 27.0377 20.373 35.0881 20.357 43.1383C20.3594 45.2838 19.478 47.6183 17.4935 48.6681C15.0487 49.9345 12.0269 49.666 9.61158 48.4515C7.52065 47.4079 5.52527 46.1763 3.47145 45.0582C2.04422 44.3195 1.05739 42.7758 1.06744 41.1579V16.7653C1.05247 15.1783 1.99091 13.6494 3.38226 12.9004C10.5326 8.86516 17.6817 4.82682 24.8308 0.789715Z" fill="#8CC84B"/>
<path d="M31.069 17.6867C34.1875 17.486 37.5261 17.5678 40.3324 19.1041C42.5051 20.2814 43.7097 22.7522 43.748 25.1661C43.6873 25.4917 43.347 25.6713 43.0362 25.6489C42.1313 25.6477 41.2263 25.6612 40.3215 25.6428C39.9377 25.6576 39.7146 25.3037 39.6664 24.9643C39.4065 23.8094 38.7766 22.6655 37.6895 22.1084C36.0207 21.2729 34.0858 21.315 32.2662 21.3324C30.9378 21.4029 29.5093 21.5179 28.3839 22.2991C27.5199 22.8908 27.2574 24.0854 27.5658 25.0474C27.8565 25.7381 28.6539 25.961 29.3063 26.1665C33.0646 27.1494 37.0471 27.0516 40.7336 28.3451C42.2599 28.8725 43.753 29.8976 44.2754 31.4957C44.9588 33.6375 44.6592 36.1975 43.1354 37.9169C41.8997 39.3318 40.0999 40.1019 38.3048 40.5202C35.9168 41.0527 33.4385 41.0662 31.0134 40.8298C28.733 40.5698 26.36 39.9707 24.5996 38.417C23.0942 37.1099 22.359 35.0733 22.4319 33.1076C22.4494 32.7757 22.7799 32.5442 23.0979 32.5715C24.0091 32.5641 24.9202 32.5616 25.8314 32.5727C26.1953 32.5467 26.4652 32.8612 26.4838 33.2042C26.6519 34.3046 27.0655 35.4596 28.0251 36.112C29.8769 37.3067 32.2006 37.2249 34.321 37.2583C36.0777 37.1804 38.0497 37.1568 39.4833 35.9957C40.2397 35.3335 40.4638 34.2255 40.2594 33.2723C40.038 32.4675 39.1961 32.0925 38.4731 31.8473C34.7631 30.6737 30.736 31.0996 27.0618 29.7724C25.5702 29.2452 24.1278 28.2486 23.5547 26.7161C22.7551 24.5473 23.1215 21.8646 24.805 20.2033C26.4465 18.5507 28.8161 17.9145 31.069 17.6867Z" fill="#8CC84B"/>
</g>
<defs>
<clipPath id="clip0_133_73">
<rect width="52.5" height="57.8194" fill="white" transform="translate(0.943726 0.0559082)"/>
</clipPath>
</defs>
</svg>
