<svg width="59" height="30" viewBox="0 0 59 30" fill="none" xmlns="http://www.w3.org/2000/svg">
<g clip-path="url(#clip0_132_45)">
<path d="M4.82682 7.18262H13.0296C15.4372 7.20283 17.1819 7.89698 18.2635 9.26393C19.3452 10.6309 19.7021 12.4979 19.3348 14.8651C19.1921 15.9468 18.8757 17.0076 18.3859 18.0483C17.9164 19.0889 17.2639 20.0274 16.4271 20.8642C15.4066 21.925 14.3151 22.5984 13.1521 22.8843C11.989 23.1701 10.7849 23.3128 9.54038 23.3128H5.86748L4.70439 29.1282H0.449951L4.82682 7.18262ZM8.4079 10.6719L6.57145 19.8541C6.69388 19.8743 6.81631 19.8847 6.93874 19.8847C7.08138 19.8847 7.2246 19.8847 7.36725 19.8847C9.32613 19.9049 10.9587 19.7115 12.2644 19.3032C13.5702 18.8747 14.448 17.3853 14.8967 14.8345C15.264 12.692 14.8967 11.4573 13.7948 11.131C12.7132 10.8047 11.3566 10.6517 9.72402 10.6719C9.47916 10.6921 9.2447 10.7025 9.02005 10.7025C8.81619 10.7025 8.60194 10.7025 8.37729 10.7025L8.4079 10.6719Z" fill="white"/>
<path d="M24.1812 1.33667H28.405L27.2113 7.1827H31.0066C33.0879 7.22371 34.6385 7.65221 35.659 8.46822C36.6996 9.28423 37.0057 10.8354 36.5772 13.1206L34.5265 23.3129H30.2414L32.2003 13.5797C32.4042 12.5592 32.343 11.835 32.0167 11.4065C31.6904 10.978 30.9864 10.7638 29.9048 10.7638L26.5073 10.7332L23.9975 23.3129H19.7737L24.1812 1.33667Z" fill="white"/>
<path d="M41.1127 7.18262H49.3155C51.7231 7.20283 53.4677 7.89698 54.5494 9.26393C55.6311 10.6309 55.988 12.4979 55.6207 14.8651C55.478 15.9468 55.1616 17.0076 54.6718 18.0483C54.2023 19.0889 53.5498 20.0274 52.713 20.8642C51.6925 21.925 50.601 22.5984 49.438 22.8843C48.2749 23.1701 47.0708 23.3128 45.8263 23.3128H42.1534L40.9903 29.1282H36.7358L41.1127 7.18262ZM44.6938 10.6719L42.8573 19.8541C42.9798 19.8743 43.1022 19.8847 43.2246 19.8847C43.3673 19.8847 43.5105 19.8847 43.6531 19.8847C45.612 19.9049 47.2446 19.7115 48.5503 19.3032C49.8561 18.8747 50.7339 17.3853 51.1826 14.8345C51.5499 12.692 51.1826 11.4573 50.0807 11.131C48.9991 10.8047 47.6425 10.6517 46.0099 10.6719C45.7651 10.6921 45.5306 10.7025 45.3059 10.7025C45.1021 10.7025 44.8878 10.7025 44.6632 10.7025L44.6938 10.6719Z" fill="white"/>
</g>
<defs>
<clipPath id="clip0_132_45">
<rect width="57.75" height="28.875" fill="white" transform="translate(0.449951 0.759033)"/>
</clipPath>
</defs>
</svg>
