<svg width="54" height="54" viewBox="0 0 54 54" fill="none" xmlns="http://www.w3.org/2000/svg">
<path d="M26.7797 0.675727C24.6149 0.685786 22.5476 0.870412 20.7285 1.19229C15.3698 2.13899 14.3969 4.12051 14.3969 7.77478V12.601H27.0601V14.2097H14.3969H9.64454C5.96427 14.2097 2.74172 16.4217 1.73374 20.6298C0.571058 25.4533 0.519487 28.4632 1.73374 33.4996C2.63389 37.2486 4.78355 39.9198 8.46382 39.9198H12.8177V34.1343C12.8177 29.9546 16.4341 26.2677 20.7285 26.2677H33.3769C36.8978 26.2677 39.7085 23.3688 39.7085 19.8328V7.77478C39.7085 4.34299 36.8134 1.76504 33.3769 1.19229C31.2016 0.830176 28.9445 0.665668 26.7797 0.675727ZM19.9315 4.55733C21.2395 4.55733 22.3077 5.64295 22.3077 6.9778C22.3077 8.30792 21.2395 9.38351 19.9315 9.38351C18.6188 9.38351 17.5553 8.30792 17.5553 6.9778C17.5553 5.64295 18.6188 4.55733 19.9315 4.55733Z" fill="url(#paint0_linear_0_1)"/>
<path d="M41.2878 14.2095V19.8326C41.2878 24.1922 37.5917 27.8615 33.377 27.8615H20.7286C17.2639 27.8615 14.397 30.8267 14.397 34.2964V46.3545C14.397 49.7863 17.3812 51.8048 20.7286 52.7894C24.737 53.968 28.5809 54.181 33.377 52.7894C36.565 51.8663 39.7086 50.0087 39.7086 46.3545V41.5283H27.0602V39.9196H39.7086H46.0402C49.7204 39.9196 51.0919 37.3525 52.3717 33.4994C53.6938 29.5327 53.6376 25.7181 52.3717 20.6296C51.4622 16.9659 49.7251 14.2095 46.0402 14.2095H41.2878ZM34.174 44.7457C35.4867 44.7457 36.5502 45.8213 36.5502 47.1515C36.5502 48.4863 35.4867 49.5719 34.174 49.5719C32.8659 49.5719 31.7978 48.4863 31.7978 47.1515C31.7978 45.8213 32.8659 44.7457 34.174 44.7457Z" fill="url(#paint1_linear_0_1)"/>
<defs>
<linearGradient id="paint0_linear_0_1" x1="0.842285" y1="0.675293" x2="30.0422" y2="25.5577" gradientUnits="userSpaceOnUse">
<stop stop-color="#5A9FD4"/>
<stop offset="1" stop-color="#306998"/>
</linearGradient>
<linearGradient id="paint1_linear_0_1" x1="33.8697" y1="46.7457" x2="23.3938" y2="32.066" gradientUnits="userSpaceOnUse">
<stop stop-color="#FFD43B"/>
<stop offset="1" stop-color="#FFE873"/>
</linearGradient>
</defs>
</svg>
