<svg width="54" height="36" viewBox="0 0 54 36" fill="none" xmlns="http://www.w3.org/2000/svg">
<path d="M0.803711 4.09735V7.1584H10.569V34.952H17.4986V7.1584H27.2639V4.15369C27.2639 2.46354 27.2639 1.09265 27.1888 1.05509C27.1888 0.998748 21.2357 0.97997 14.0057 0.97997L0.86005 1.03631V4.11614L0.803711 4.09735ZM44.6913 0.961189C46.6068 1.4119 48.0716 2.27575 49.3861 3.64665C50.081 4.39783 51.1138 5.71239 51.1889 6.05042C51.1889 6.16309 47.9401 8.36029 45.9683 9.58095C45.8932 9.63729 45.5927 9.31804 45.2922 8.82977C44.3157 7.44009 43.3204 6.83915 41.7617 6.72648C39.5081 6.57624 38.0058 7.75935 38.0058 9.73119C38.0058 10.3321 38.1185 10.6702 38.3438 11.1584C38.8509 12.1913 39.7898 12.811 42.7006 14.088C48.0716 16.3979 50.4002 17.919 51.8087 20.0974C53.4049 22.5388 53.7617 26.3698 52.6913 29.243C51.4894 32.3792 48.5598 34.5013 44.372 35.1961C43.0575 35.4215 40.0527 35.3839 38.6443 35.1398C35.6396 34.5764 32.7663 33.074 31.0011 31.1398C30.3062 30.3886 28.9729 28.3792 29.048 28.2477L29.7616 27.797L32.5785 26.1632L34.7006 24.9238L35.1889 25.581C35.8086 26.5576 37.1983 27.8721 38.0058 28.3228C40.4471 29.5811 43.7147 29.412 45.3298 27.9472C46.0246 27.3087 46.3251 26.6327 46.3251 25.6937C46.3251 24.8299 46.1936 24.4355 45.7617 23.7782C45.1608 22.9519 43.9589 22.2759 40.5786 20.7735C36.6912 19.1209 35.0386 18.0693 33.4987 16.4542C32.6161 15.4777 31.8086 13.9566 31.433 12.6983C31.1513 11.6091 31.0574 8.94245 31.3203 7.87202C32.1278 4.11614 34.9635 1.48701 39.0199 0.735836C40.3344 0.472924 43.433 0.585601 44.7288 0.923631L44.6913 0.961189Z" fill="white"/>
</svg>
