<svg width="15" height="28" viewBox="0 0 15 28" fill="none" xmlns="http://www.w3.org/2000/svg">
<path d="M8.32678 27.5365L13.9156 22.0151C14.4585 21.4472 14.4585 20.5322 13.8836 19.9958C13.3088 19.4594 12.4146 19.4594 11.8717 19.9958L8.77389 23.0563L8.77389 1.4199C8.77389 0.631116 8.10323 9.1281e-05 7.30483 9.12461e-05C6.50643 9.12112e-05 5.86772 0.631115 5.86772 1.4199L5.86772 23.0563L2.76993 19.9958C2.19508 19.4594 1.26894 19.4594 0.72603 20.0274C0.18312 20.5953 0.18312 21.4787 0.72603 22.0151L6.31482 27.5365C6.85773 28.1045 7.75194 28.1676 8.32678 27.6312C8.32678 27.5996 8.35872 27.5996 8.32678 27.5365Z" fill="black"/>
</svg>
