<svg width="29" height="43" viewBox="0 0 29 43" fill="none" xmlns="http://www.w3.org/2000/svg">
<path d="M14.2759 42.8276C6.38979 42.8276 3.05176e-05 36.197 3.05176e-05 28.0652V14.7207C3.05176e-05 6.58886 6.38979 0 14.2759 0C22.162 0 28.5518 6.58886 28.5518 14.7207V28.0652C28.5518 36.197 22.162 42.8276 14.2759 42.8276ZM14.2759 3.54464C8.29055 3.54464 3.43756 8.54884 3.43756 14.7207V28.0652C3.43756 34.237 8.29055 39.2412 14.2759 39.2412C20.2612 39.2412 25.1142 34.237 25.1142 28.0652V14.7207C25.1142 8.54884 20.2612 3.54464 14.2759 3.54464Z" fill="black"/>
<path d="M14.2759 17.8448C13.0032 17.8448 11.8966 16.9175 11.8966 15.7462V10.4263C11.8966 9.30371 12.9479 8.32759 14.2759 8.32759C15.6039 8.32759 16.6552 9.25491 16.6552 10.4263V15.7462C16.6552 16.9175 15.6039 17.8448 14.2759 17.8448Z" fill="black"/>
</svg>
