<svg width="410" height="381" viewBox="0 0 410 381" fill="none" xmlns="http://www.w3.org/2000/svg">
<circle cx="92.3232" cy="229.181" r="16.4" transform="rotate(-103 92.3232 229.181)" fill="url(#paint0_linear_150_193)"/>
<circle cx="104.76" cy="260.757" r="16.4" transform="rotate(-120 104.76 260.757)" fill="url(#paint1_linear_150_193)"/>
<circle cx="125.885" cy="287.317" r="16.4" transform="rotate(-137 125.885 287.317)" fill="url(#paint2_linear_150_193)"/>
<circle cx="153.854" cy="306.538" r="16.4" transform="rotate(-154 153.854 306.538)" fill="url(#paint3_linear_150_193)"/>
<circle cx="186.219" cy="316.745" r="16.4" transform="rotate(-171 186.219 316.745)" fill="url(#paint4_linear_150_193)"/>
<circle cx="220.156" cy="317.04" r="16.4" transform="rotate(172 220.156 317.04)" fill="url(#paint5_linear_150_193)"/>
<circle cx="252.696" cy="307.402" r="16.4" transform="rotate(155 252.696 307.402)" fill="url(#paint6_linear_150_193)"/>
<circle cx="280.996" cy="288.67" r="16.4" transform="rotate(138 280.996 288.67)" fill="url(#paint7_linear_150_193)"/>
<circle cx="302.583" cy="262.483" r="16.4" transform="rotate(121 302.583 262.483)" fill="url(#paint8_linear_150_193)"/>
<circle cx="315.571" cy="231.13" r="16.4" transform="rotate(104 315.571 231.13)" fill="url(#paint9_linear_150_193)"/>
<circle cx="16.4" cy="16.4" r="16.4" transform="matrix(-0.224951 -0.97437 -0.97437 0.224951 335.708 189.822)" fill="url(#paint10_linear_150_193)"/>
<circle cx="16.4" cy="16.4" r="16.4" transform="matrix(-0.5 -0.866026 -0.866026 0.5 326.003 151.959)" fill="url(#paint11_linear_150_193)"/>
<circle cx="16.4" cy="16.4" r="16.4" transform="matrix(-0.731354 -0.681998 -0.681998 0.731354 305.652 118.589)" fill="url(#paint12_linear_150_193)"/>
<circle cx="16.4" cy="16.4" r="16.4" transform="matrix(-0.898794 -0.438371 -0.438371 0.898794 276.433 92.626)" fill="url(#paint13_linear_150_193)"/>
<circle cx="16.4" cy="16.4" r="16.4" transform="matrix(-0.987688 -0.156434 -0.156434 0.987688 240.9 76.3398)" fill="url(#paint14_linear_150_193)"/>
<circle cx="16.4" cy="16.4" r="16.4" transform="matrix(-0.990268 0.139173 0.139173 0.990268 202.159 71.1533)" fill="url(#paint15_linear_150_193)"/>
<circle cx="16.4" cy="16.4" r="16.4" transform="matrix(-0.906308 0.422618 0.422618 0.906308 163.595 77.519)" fill="url(#paint16_linear_150_193)"/>
<circle cx="16.4" cy="16.4" r="16.4" transform="matrix(-0.743145 0.669131 0.669131 0.743145 128.578 94.8838)" fill="url(#paint17_linear_150_193)"/>
<circle cx="16.4" cy="16.4" r="16.4" transform="matrix(-0.515038 0.857167 0.857167 0.515038 100.168 121.726)" fill="url(#paint18_linear_150_193)"/>
<circle cx="16.4" cy="16.4" r="16.4" transform="matrix(-0.241922 0.970296 0.970296 0.241922 80.8457 155.706)" fill="url(#paint19_linear_150_193)"/>
<circle cx="113.184" cy="224.367" r="13.3415" transform="rotate(-103 113.184 224.367)" fill="url(#paint20_linear_150_193)"/>
<circle cx="123.302" cy="250.053" r="13.3415" transform="rotate(-120 123.302 250.053)" fill="url(#paint21_linear_150_193)"/>
<circle cx="140.487" cy="271.66" r="13.3415" transform="rotate(-137 140.487 271.66)" fill="url(#paint22_linear_150_193)"/>
<circle cx="163.24" cy="287.297" r="13.3415" transform="rotate(-154 163.24 287.297)" fill="url(#paint23_linear_150_193)"/>
<circle cx="189.57" cy="295.6" r="13.3415" transform="rotate(-171 189.57 295.6)" fill="url(#paint24_linear_150_193)"/>
<circle cx="217.177" cy="295.84" r="13.3415" transform="rotate(172 217.177 295.84)" fill="url(#paint25_linear_150_193)"/>
<circle cx="243.648" cy="288" r="13.3415" transform="rotate(155 243.648 288)" fill="url(#paint26_linear_150_193)"/>
<circle cx="266.67" cy="272.761" r="13.3415" transform="rotate(138 266.67 272.761)" fill="url(#paint27_linear_150_193)"/>
<circle cx="284.232" cy="251.457" r="13.3415" transform="rotate(121 284.232 251.457)" fill="url(#paint28_linear_150_193)"/>
<circle cx="294.797" cy="225.952" r="13.3415" transform="rotate(104 294.797 225.952)" fill="url(#paint29_linear_150_193)"/>
<circle cx="13.3415" cy="13.3415" r="13.3415" transform="matrix(-0.224951 -0.97437 -0.97437 0.224951 311.179 192.346)" fill="url(#paint30_linear_150_193)"/>
<circle cx="13.3415" cy="13.3415" r="13.3415" transform="matrix(-0.5 -0.866026 -0.866026 0.5 303.284 161.545)" fill="url(#paint31_linear_150_193)"/>
<circle cx="13.3415" cy="13.3415" r="13.3415" transform="matrix(-0.731354 -0.681998 -0.681998 0.731354 286.729 134.397)" fill="url(#paint32_linear_150_193)"/>
<circle cx="13.3415" cy="13.3415" r="13.3415" transform="matrix(-0.898794 -0.438371 -0.438371 0.898794 262.958 113.276)" fill="url(#paint33_linear_150_193)"/>
<circle cx="13.3415" cy="13.3415" r="13.3415" transform="matrix(-0.987688 -0.156434 -0.156434 0.987688 234.052 100.028)" fill="url(#paint34_linear_150_193)"/>
<circle cx="13.3415" cy="13.3415" r="13.3415" transform="matrix(-0.990268 0.139173 0.139173 0.990268 202.536 95.8071)" fill="url(#paint35_linear_150_193)"/>
<circle cx="13.3415" cy="13.3415" r="13.3415" transform="matrix(-0.906308 0.422618 0.422618 0.906308 171.164 100.986)" fill="url(#paint36_linear_150_193)"/>
<circle cx="13.3415" cy="13.3415" r="13.3415" transform="matrix(-0.743145 0.669131 0.669131 0.743145 142.678 115.114)" fill="url(#paint37_linear_150_193)"/>
<circle cx="13.3415" cy="13.3415" r="13.3415" transform="matrix(-0.515038 0.857167 0.857167 0.515038 119.565 136.949)" fill="url(#paint38_linear_150_193)"/>
<circle cx="13.3415" cy="13.3415" r="13.3415" transform="matrix(-0.241922 0.970296 0.970296 0.241922 103.847 164.593)" fill="url(#paint39_linear_150_193)"/>
<circle cx="130.572" cy="220.353" r="10.792" transform="rotate(-103 130.572 220.353)" fill="url(#paint40_linear_150_193)"/>
<circle cx="138.756" cy="241.13" r="10.792" transform="rotate(-120 138.756 241.13)" fill="url(#paint41_linear_150_193)"/>
<circle cx="152.657" cy="258.608" r="10.792" transform="rotate(-137 152.657 258.608)" fill="url(#paint42_linear_150_193)"/>
<circle cx="171.062" cy="271.258" r="10.792" transform="rotate(-154 171.062 271.258)" fill="url(#paint43_linear_150_193)"/>
<circle cx="192.361" cy="277.974" r="10.792" transform="rotate(-171 192.361 277.974)" fill="url(#paint44_linear_150_193)"/>
<circle cx="214.693" cy="278.168" r="10.792" transform="rotate(172 214.693 278.168)" fill="url(#paint45_linear_150_193)"/>
<circle cx="236.106" cy="271.827" r="10.792" transform="rotate(155 236.106 271.827)" fill="url(#paint46_linear_150_193)"/>
<circle cx="254.728" cy="259.499" r="10.792" transform="rotate(138 254.728 259.499)" fill="url(#paint47_linear_150_193)"/>
<circle cx="268.934" cy="242.266" r="10.792" transform="rotate(121 268.934 242.266)" fill="url(#paint48_linear_150_193)"/>
<circle cx="277.48" cy="221.636" r="10.792" transform="rotate(104 277.48 221.636)" fill="url(#paint49_linear_150_193)"/>
<circle cx="10.792" cy="10.792" r="10.792" transform="matrix(-0.224951 -0.97437 -0.97437 0.224951 290.731 194.448)" fill="url(#paint50_linear_150_193)"/>
<circle cx="10.792" cy="10.792" r="10.792" transform="matrix(-0.5 -0.866026 -0.866026 0.5 284.345 169.534)" fill="url(#paint51_linear_150_193)"/>
<circle cx="10.792" cy="10.792" r="10.792" transform="matrix(-0.731354 -0.681998 -0.681998 0.731354 270.955 147.575)" fill="url(#paint52_linear_150_193)"/>
<circle cx="10.792" cy="10.792" r="10.792" transform="matrix(-0.898794 -0.438371 -0.438371 0.898794 251.726 130.49)" fill="url(#paint53_linear_150_193)"/>
<circle cx="10.792" cy="10.792" r="10.792" transform="matrix(-0.987688 -0.156434 -0.156434 0.987688 228.344 119.772)" fill="url(#paint54_linear_150_193)"/>
<circle cx="10.792" cy="10.792" r="10.792" transform="matrix(-0.990268 0.139173 0.139173 0.990268 202.85 116.358)" fill="url(#paint55_linear_150_193)"/>
<circle cx="10.792" cy="10.792" r="10.792" transform="matrix(-0.906308 0.422618 0.422618 0.906308 177.473 120.549)" fill="url(#paint56_linear_150_193)"/>
<circle cx="10.792" cy="10.792" r="10.792" transform="matrix(-0.743145 0.669131 0.669131 0.743145 154.43 131.976)" fill="url(#paint57_linear_150_193)"/>
<circle cx="10.792" cy="10.792" r="10.792" transform="matrix(-0.515038 0.857167 0.857167 0.515038 135.734 149.639)" fill="url(#paint58_linear_150_193)"/>
<circle cx="10.792" cy="10.792" r="10.792" transform="matrix(-0.241922 0.970296 0.970296 0.241922 123.02 171.999)" fill="url(#paint59_linear_150_193)"/>
<circle cx="147.96" cy="216.336" r="8.24274" transform="rotate(-103 147.96 216.336)" fill="url(#paint60_linear_150_193)"/>
<circle cx="154.211" cy="232.205" r="8.24274" transform="rotate(-120 154.211 232.205)" fill="url(#paint61_linear_150_193)"/>
<circle cx="164.829" cy="245.555" r="8.24274" transform="rotate(-137 164.829 245.555)" fill="url(#paint62_linear_150_193)"/>
<circle cx="178.886" cy="255.217" r="8.24274" transform="rotate(-154 178.886 255.217)" fill="url(#paint63_linear_150_193)"/>
<circle cx="195.153" cy="260.346" r="8.24274" transform="rotate(-171 195.153 260.346)" fill="url(#paint64_linear_150_193)"/>
<circle cx="212.21" cy="260.496" r="8.24274" transform="rotate(172 212.21 260.496)" fill="url(#paint65_linear_150_193)"/>
<circle cx="228.565" cy="255.653" r="8.24274" transform="rotate(155 228.565 255.653)" fill="url(#paint66_linear_150_193)"/>
<circle cx="242.789" cy="246.236" r="8.24274" transform="rotate(138 242.789 246.236)" fill="url(#paint67_linear_150_193)"/>
<circle cx="253.638" cy="233.072" r="8.24274" transform="rotate(121 253.638 233.072)" fill="url(#paint68_linear_150_193)"/>
<circle cx="260.166" cy="217.315" r="8.24274" transform="rotate(104 260.166 217.315)" fill="url(#paint69_linear_150_193)"/>
<circle cx="8.24274" cy="8.24274" r="8.24274" transform="matrix(-0.224951 -0.97437 -0.97437 0.224951 270.288 196.553)" fill="url(#paint70_linear_150_193)"/>
<circle cx="8.24274" cy="8.24274" r="8.24274" transform="matrix(-0.5 -0.866026 -0.866026 0.5 265.41 177.525)" fill="url(#paint71_linear_150_193)"/>
<circle cx="8.24274" cy="8.24274" r="8.24274" transform="matrix(-0.731354 -0.681998 -0.681998 0.731354 255.182 160.753)" fill="url(#paint72_linear_150_193)"/>
<circle cx="8.24274" cy="8.24274" r="8.24274" transform="matrix(-0.898794 -0.438371 -0.438371 0.898794 240.496 147.704)" fill="url(#paint73_linear_150_193)"/>
<circle cx="8.24274" cy="8.24274" r="8.24274" transform="matrix(-0.987688 -0.156434 -0.156434 0.987688 222.637 139.516)" fill="url(#paint74_linear_150_193)"/>
<circle cx="8.24274" cy="8.24274" r="8.24274" transform="matrix(-0.990268 0.139173 0.139173 0.990268 203.166 136.909)" fill="url(#paint75_linear_150_193)"/>
<circle cx="8.24274" cy="8.24274" r="8.24274" transform="matrix(-0.906308 0.422618 0.422618 0.906308 183.782 140.11)" fill="url(#paint76_linear_150_193)"/>
<circle cx="8.24274" cy="8.24274" r="8.24274" transform="matrix(-0.743145 0.669131 0.669131 0.743145 166.183 148.837)" fill="url(#paint77_linear_150_193)"/>
<circle cx="8.24274" cy="8.24274" r="8.24274" transform="matrix(-0.515038 0.857167 0.857167 0.515038 151.904 162.328)" fill="url(#paint78_linear_150_193)"/>
<circle cx="8.24274" cy="8.24274" r="8.24274" transform="matrix(-0.241922 0.970296 0.970296 0.241922 142.193 179.406)" fill="url(#paint79_linear_150_193)"/>
<defs>
<linearGradient id="paint0_linear_150_193" x1="92.3232" y1="212.781" x2="92.3232" y2="245.581" gradientUnits="userSpaceOnUse">
<stop stop-color="#FF9217"/>
<stop offset="1" stop-color="#FFFB1F" stop-opacity="0"/>
</linearGradient>
<linearGradient id="paint1_linear_150_193" x1="104.76" y1="244.357" x2="104.76" y2="277.157" gradientUnits="userSpaceOnUse">
<stop stop-color="#FF9217"/>
<stop offset="1" stop-color="#FFFB1F" stop-opacity="0"/>
</linearGradient>
<linearGradient id="paint2_linear_150_193" x1="125.885" y1="270.917" x2="125.885" y2="303.717" gradientUnits="userSpaceOnUse">
<stop stop-color="#FF9217"/>
<stop offset="1" stop-color="#FFFB1F" stop-opacity="0"/>
</linearGradient>
<linearGradient id="paint3_linear_150_193" x1="153.854" y1="290.138" x2="153.854" y2="322.938" gradientUnits="userSpaceOnUse">
<stop stop-color="#FF9217"/>
<stop offset="1" stop-color="#FFFB1F" stop-opacity="0"/>
</linearGradient>
<linearGradient id="paint4_linear_150_193" x1="186.219" y1="300.345" x2="186.219" y2="333.145" gradientUnits="userSpaceOnUse">
<stop stop-color="#FF9217"/>
<stop offset="1" stop-color="#FFFB1F" stop-opacity="0"/>
</linearGradient>
<linearGradient id="paint5_linear_150_193" x1="220.156" y1="300.64" x2="220.156" y2="333.44" gradientUnits="userSpaceOnUse">
<stop stop-color="#FF9217"/>
<stop offset="1" stop-color="#FFFB1F" stop-opacity="0"/>
</linearGradient>
<linearGradient id="paint6_linear_150_193" x1="252.696" y1="291.002" x2="252.696" y2="323.802" gradientUnits="userSpaceOnUse">
<stop stop-color="#FF9217"/>
<stop offset="1" stop-color="#FFFB1F" stop-opacity="0"/>
</linearGradient>
<linearGradient id="paint7_linear_150_193" x1="280.996" y1="272.27" x2="280.996" y2="305.07" gradientUnits="userSpaceOnUse">
<stop stop-color="#FF9217"/>
<stop offset="1" stop-color="#FFFB1F" stop-opacity="0"/>
</linearGradient>
<linearGradient id="paint8_linear_150_193" x1="302.583" y1="246.083" x2="302.583" y2="278.883" gradientUnits="userSpaceOnUse">
<stop stop-color="#FF9217"/>
<stop offset="1" stop-color="#FFFB1F" stop-opacity="0"/>
</linearGradient>
<linearGradient id="paint9_linear_150_193" x1="315.571" y1="214.73" x2="315.571" y2="247.53" gradientUnits="userSpaceOnUse">
<stop stop-color="#FF9217"/>
<stop offset="1" stop-color="#FFFB1F" stop-opacity="0"/>
</linearGradient>
<linearGradient id="paint10_linear_150_193" x1="16.4" y1="0" x2="16.4" y2="32.8" gradientUnits="userSpaceOnUse">
<stop stop-color="#FF9217"/>
<stop offset="1" stop-color="#FFFB1F" stop-opacity="0"/>
</linearGradient>
<linearGradient id="paint11_linear_150_193" x1="16.4" y1="0" x2="16.4" y2="32.8" gradientUnits="userSpaceOnUse">
<stop stop-color="#FF9217"/>
<stop offset="1" stop-color="#FFFB1F" stop-opacity="0"/>
</linearGradient>
<linearGradient id="paint12_linear_150_193" x1="16.4" y1="0" x2="16.4" y2="32.8" gradientUnits="userSpaceOnUse">
<stop stop-color="#FF9217"/>
<stop offset="1" stop-color="#FFFB1F" stop-opacity="0"/>
</linearGradient>
<linearGradient id="paint13_linear_150_193" x1="16.4" y1="0" x2="16.4" y2="32.8" gradientUnits="userSpaceOnUse">
<stop stop-color="#FF9217"/>
<stop offset="1" stop-color="#FFFB1F" stop-opacity="0"/>
</linearGradient>
<linearGradient id="paint14_linear_150_193" x1="16.4" y1="0" x2="16.4" y2="32.8" gradientUnits="userSpaceOnUse">
<stop stop-color="#FF9217"/>
<stop offset="1" stop-color="#FFFB1F" stop-opacity="0"/>
</linearGradient>
<linearGradient id="paint15_linear_150_193" x1="16.4" y1="0" x2="16.4" y2="32.8" gradientUnits="userSpaceOnUse">
<stop stop-color="#FF9217"/>
<stop offset="1" stop-color="#FFFB1F" stop-opacity="0"/>
</linearGradient>
<linearGradient id="paint16_linear_150_193" x1="16.4" y1="0" x2="16.4" y2="32.8" gradientUnits="userSpaceOnUse">
<stop stop-color="#FF9217"/>
<stop offset="1" stop-color="#FFFB1F" stop-opacity="0"/>
</linearGradient>
<linearGradient id="paint17_linear_150_193" x1="16.4" y1="0" x2="16.4" y2="32.8" gradientUnits="userSpaceOnUse">
<stop stop-color="#FF9217"/>
<stop offset="1" stop-color="#FFFB1F" stop-opacity="0"/>
</linearGradient>
<linearGradient id="paint18_linear_150_193" x1="16.4" y1="0" x2="16.4" y2="32.8" gradientUnits="userSpaceOnUse">
<stop stop-color="#FF9217"/>
<stop offset="1" stop-color="#FFFB1F" stop-opacity="0"/>
</linearGradient>
<linearGradient id="paint19_linear_150_193" x1="16.4" y1="0" x2="16.4" y2="32.8" gradientUnits="userSpaceOnUse">
<stop stop-color="#FF9217"/>
<stop offset="1" stop-color="#FFFB1F" stop-opacity="0"/>
</linearGradient>
<linearGradient id="paint20_linear_150_193" x1="113.184" y1="211.025" x2="113.184" y2="237.708" gradientUnits="userSpaceOnUse">
<stop stop-color="#FF9217"/>
<stop offset="1" stop-color="#FFFB1F" stop-opacity="0"/>
</linearGradient>
<linearGradient id="paint21_linear_150_193" x1="123.302" y1="236.711" x2="123.302" y2="263.394" gradientUnits="userSpaceOnUse">
<stop stop-color="#FF9217"/>
<stop offset="1" stop-color="#FFFB1F" stop-opacity="0"/>
</linearGradient>
<linearGradient id="paint22_linear_150_193" x1="140.487" y1="258.318" x2="140.487" y2="285.001" gradientUnits="userSpaceOnUse">
<stop stop-color="#FF9217"/>
<stop offset="1" stop-color="#FFFB1F" stop-opacity="0"/>
</linearGradient>
<linearGradient id="paint23_linear_150_193" x1="163.24" y1="273.956" x2="163.24" y2="300.639" gradientUnits="userSpaceOnUse">
<stop stop-color="#FF9217"/>
<stop offset="1" stop-color="#FFFB1F" stop-opacity="0"/>
</linearGradient>
<linearGradient id="paint24_linear_150_193" x1="189.57" y1="282.259" x2="189.57" y2="308.942" gradientUnits="userSpaceOnUse">
<stop stop-color="#FF9217"/>
<stop offset="1" stop-color="#FFFB1F" stop-opacity="0"/>
</linearGradient>
<linearGradient id="paint25_linear_150_193" x1="217.177" y1="282.499" x2="217.177" y2="309.182" gradientUnits="userSpaceOnUse">
<stop stop-color="#FF9217"/>
<stop offset="1" stop-color="#FFFB1F" stop-opacity="0"/>
</linearGradient>
<linearGradient id="paint26_linear_150_193" x1="243.648" y1="274.658" x2="243.648" y2="301.341" gradientUnits="userSpaceOnUse">
<stop stop-color="#FF9217"/>
<stop offset="1" stop-color="#FFFB1F" stop-opacity="0"/>
</linearGradient>
<linearGradient id="paint27_linear_150_193" x1="266.67" y1="259.419" x2="266.67" y2="286.102" gradientUnits="userSpaceOnUse">
<stop stop-color="#FF9217"/>
<stop offset="1" stop-color="#FFFB1F" stop-opacity="0"/>
</linearGradient>
<linearGradient id="paint28_linear_150_193" x1="284.232" y1="238.116" x2="284.232" y2="264.799" gradientUnits="userSpaceOnUse">
<stop stop-color="#FF9217"/>
<stop offset="1" stop-color="#FFFB1F" stop-opacity="0"/>
</linearGradient>
<linearGradient id="paint29_linear_150_193" x1="294.797" y1="212.61" x2="294.797" y2="239.293" gradientUnits="userSpaceOnUse">
<stop stop-color="#FF9217"/>
<stop offset="1" stop-color="#FFFB1F" stop-opacity="0"/>
</linearGradient>
<linearGradient id="paint30_linear_150_193" x1="13.3415" y1="0" x2="13.3415" y2="26.683" gradientUnits="userSpaceOnUse">
<stop stop-color="#FF9217"/>
<stop offset="1" stop-color="#FFFB1F" stop-opacity="0"/>
</linearGradient>
<linearGradient id="paint31_linear_150_193" x1="13.3415" y1="0" x2="13.3415" y2="26.683" gradientUnits="userSpaceOnUse">
<stop stop-color="#FF9217"/>
<stop offset="1" stop-color="#FFFB1F" stop-opacity="0"/>
</linearGradient>
<linearGradient id="paint32_linear_150_193" x1="13.3415" y1="0" x2="13.3415" y2="26.683" gradientUnits="userSpaceOnUse">
<stop stop-color="#FF9217"/>
<stop offset="1" stop-color="#FFFB1F" stop-opacity="0"/>
</linearGradient>
<linearGradient id="paint33_linear_150_193" x1="13.3415" y1="0" x2="13.3415" y2="26.683" gradientUnits="userSpaceOnUse">
<stop stop-color="#FF9217"/>
<stop offset="1" stop-color="#FFFB1F" stop-opacity="0"/>
</linearGradient>
<linearGradient id="paint34_linear_150_193" x1="13.3415" y1="0" x2="13.3415" y2="26.683" gradientUnits="userSpaceOnUse">
<stop stop-color="#FF9217"/>
<stop offset="1" stop-color="#FFFB1F" stop-opacity="0"/>
</linearGradient>
<linearGradient id="paint35_linear_150_193" x1="13.3415" y1="0" x2="13.3415" y2="26.683" gradientUnits="userSpaceOnUse">
<stop stop-color="#FF9217"/>
<stop offset="1" stop-color="#FFFB1F" stop-opacity="0"/>
</linearGradient>
<linearGradient id="paint36_linear_150_193" x1="13.3415" y1="0" x2="13.3415" y2="26.683" gradientUnits="userSpaceOnUse">
<stop stop-color="#FF9217"/>
<stop offset="1" stop-color="#FFFB1F" stop-opacity="0"/>
</linearGradient>
<linearGradient id="paint37_linear_150_193" x1="13.3415" y1="0" x2="13.3415" y2="26.683" gradientUnits="userSpaceOnUse">
<stop stop-color="#FF9217"/>
<stop offset="1" stop-color="#FFFB1F" stop-opacity="0"/>
</linearGradient>
<linearGradient id="paint38_linear_150_193" x1="13.3415" y1="0" x2="13.3415" y2="26.683" gradientUnits="userSpaceOnUse">
<stop stop-color="#FF9217"/>
<stop offset="1" stop-color="#FFFB1F" stop-opacity="0"/>
</linearGradient>
<linearGradient id="paint39_linear_150_193" x1="13.3415" y1="0" x2="13.3415" y2="26.683" gradientUnits="userSpaceOnUse">
<stop stop-color="#FF9217"/>
<stop offset="1" stop-color="#FFFB1F" stop-opacity="0"/>
</linearGradient>
<linearGradient id="paint40_linear_150_193" x1="130.572" y1="209.561" x2="130.572" y2="231.145" gradientUnits="userSpaceOnUse">
<stop stop-color="#FF9217"/>
<stop offset="1" stop-color="#FFFB1F" stop-opacity="0"/>
</linearGradient>
<linearGradient id="paint41_linear_150_193" x1="138.756" y1="230.338" x2="138.756" y2="251.922" gradientUnits="userSpaceOnUse">
<stop stop-color="#FF9217"/>
<stop offset="1" stop-color="#FFFB1F" stop-opacity="0"/>
</linearGradient>
<linearGradient id="paint42_linear_150_193" x1="152.657" y1="247.816" x2="152.657" y2="269.4" gradientUnits="userSpaceOnUse">
<stop stop-color="#FF9217"/>
<stop offset="1" stop-color="#FFFB1F" stop-opacity="0"/>
</linearGradient>
<linearGradient id="paint43_linear_150_193" x1="171.062" y1="260.466" x2="171.062" y2="282.05" gradientUnits="userSpaceOnUse">
<stop stop-color="#FF9217"/>
<stop offset="1" stop-color="#FFFB1F" stop-opacity="0"/>
</linearGradient>
<linearGradient id="paint44_linear_150_193" x1="192.361" y1="267.182" x2="192.361" y2="288.766" gradientUnits="userSpaceOnUse">
<stop stop-color="#FF9217"/>
<stop offset="1" stop-color="#FFFB1F" stop-opacity="0"/>
</linearGradient>
<linearGradient id="paint45_linear_150_193" x1="214.693" y1="267.376" x2="214.693" y2="288.96" gradientUnits="userSpaceOnUse">
<stop stop-color="#FF9217"/>
<stop offset="1" stop-color="#FFFB1F" stop-opacity="0"/>
</linearGradient>
<linearGradient id="paint46_linear_150_193" x1="236.106" y1="261.035" x2="236.106" y2="282.619" gradientUnits="userSpaceOnUse">
<stop stop-color="#FF9217"/>
<stop offset="1" stop-color="#FFFB1F" stop-opacity="0"/>
</linearGradient>
<linearGradient id="paint47_linear_150_193" x1="254.728" y1="248.707" x2="254.728" y2="270.291" gradientUnits="userSpaceOnUse">
<stop stop-color="#FF9217"/>
<stop offset="1" stop-color="#FFFB1F" stop-opacity="0"/>
</linearGradient>
<linearGradient id="paint48_linear_150_193" x1="268.934" y1="231.473" x2="268.934" y2="253.058" gradientUnits="userSpaceOnUse">
<stop stop-color="#FF9217"/>
<stop offset="1" stop-color="#FFFB1F" stop-opacity="0"/>
</linearGradient>
<linearGradient id="paint49_linear_150_193" x1="277.48" y1="210.844" x2="277.48" y2="232.428" gradientUnits="userSpaceOnUse">
<stop stop-color="#FF9217"/>
<stop offset="1" stop-color="#FFFB1F" stop-opacity="0"/>
</linearGradient>
<linearGradient id="paint50_linear_150_193" x1="10.792" y1="0" x2="10.792" y2="21.584" gradientUnits="userSpaceOnUse">
<stop stop-color="#FF9217"/>
<stop offset="1" stop-color="#FFFB1F" stop-opacity="0"/>
</linearGradient>
<linearGradient id="paint51_linear_150_193" x1="10.792" y1="0" x2="10.792" y2="21.584" gradientUnits="userSpaceOnUse">
<stop stop-color="#FF9217"/>
<stop offset="1" stop-color="#FFFB1F" stop-opacity="0"/>
</linearGradient>
<linearGradient id="paint52_linear_150_193" x1="10.792" y1="0" x2="10.792" y2="21.584" gradientUnits="userSpaceOnUse">
<stop stop-color="#FF9217"/>
<stop offset="1" stop-color="#FFFB1F" stop-opacity="0"/>
</linearGradient>
<linearGradient id="paint53_linear_150_193" x1="10.792" y1="0" x2="10.792" y2="21.584" gradientUnits="userSpaceOnUse">
<stop stop-color="#FF9217"/>
<stop offset="1" stop-color="#FFFB1F" stop-opacity="0"/>
</linearGradient>
<linearGradient id="paint54_linear_150_193" x1="10.792" y1="0" x2="10.792" y2="21.584" gradientUnits="userSpaceOnUse">
<stop stop-color="#FF9217"/>
<stop offset="1" stop-color="#FFFB1F" stop-opacity="0"/>
</linearGradient>
<linearGradient id="paint55_linear_150_193" x1="10.792" y1="0" x2="10.792" y2="21.584" gradientUnits="userSpaceOnUse">
<stop stop-color="#FF9217"/>
<stop offset="1" stop-color="#FFFB1F" stop-opacity="0"/>
</linearGradient>
<linearGradient id="paint56_linear_150_193" x1="10.792" y1="0" x2="10.792" y2="21.584" gradientUnits="userSpaceOnUse">
<stop stop-color="#FF9217"/>
<stop offset="1" stop-color="#FFFB1F" stop-opacity="0"/>
</linearGradient>
<linearGradient id="paint57_linear_150_193" x1="10.792" y1="0" x2="10.792" y2="21.584" gradientUnits="userSpaceOnUse">
<stop stop-color="#FF9217"/>
<stop offset="1" stop-color="#FFFB1F" stop-opacity="0"/>
</linearGradient>
<linearGradient id="paint58_linear_150_193" x1="10.792" y1="0" x2="10.792" y2="21.584" gradientUnits="userSpaceOnUse">
<stop stop-color="#FF9217"/>
<stop offset="1" stop-color="#FFFB1F" stop-opacity="0"/>
</linearGradient>
<linearGradient id="paint59_linear_150_193" x1="10.792" y1="0" x2="10.792" y2="21.584" gradientUnits="userSpaceOnUse">
<stop stop-color="#FF9217"/>
<stop offset="1" stop-color="#FFFB1F" stop-opacity="0"/>
</linearGradient>
<linearGradient id="paint60_linear_150_193" x1="147.96" y1="208.094" x2="147.96" y2="224.579" gradientUnits="userSpaceOnUse">
<stop stop-color="#FF9217"/>
<stop offset="1" stop-color="#FFFB1F" stop-opacity="0"/>
</linearGradient>
<linearGradient id="paint61_linear_150_193" x1="154.211" y1="223.962" x2="154.211" y2="240.448" gradientUnits="userSpaceOnUse">
<stop stop-color="#FF9217"/>
<stop offset="1" stop-color="#FFFB1F" stop-opacity="0"/>
</linearGradient>
<linearGradient id="paint62_linear_150_193" x1="164.829" y1="237.312" x2="164.829" y2="253.797" gradientUnits="userSpaceOnUse">
<stop stop-color="#FF9217"/>
<stop offset="1" stop-color="#FFFB1F" stop-opacity="0"/>
</linearGradient>
<linearGradient id="paint63_linear_150_193" x1="178.886" y1="246.975" x2="178.886" y2="263.46" gradientUnits="userSpaceOnUse">
<stop stop-color="#FF9217"/>
<stop offset="1" stop-color="#FFFB1F" stop-opacity="0"/>
</linearGradient>
<linearGradient id="paint64_linear_150_193" x1="195.153" y1="252.103" x2="195.153" y2="268.589" gradientUnits="userSpaceOnUse">
<stop stop-color="#FF9217"/>
<stop offset="1" stop-color="#FFFB1F" stop-opacity="0"/>
</linearGradient>
<linearGradient id="paint65_linear_150_193" x1="212.21" y1="252.253" x2="212.21" y2="268.739" gradientUnits="userSpaceOnUse">
<stop stop-color="#FF9217"/>
<stop offset="1" stop-color="#FFFB1F" stop-opacity="0"/>
</linearGradient>
<linearGradient id="paint66_linear_150_193" x1="228.565" y1="247.41" x2="228.565" y2="263.895" gradientUnits="userSpaceOnUse">
<stop stop-color="#FF9217"/>
<stop offset="1" stop-color="#FFFB1F" stop-opacity="0"/>
</linearGradient>
<linearGradient id="paint67_linear_150_193" x1="242.789" y1="237.993" x2="242.789" y2="254.479" gradientUnits="userSpaceOnUse">
<stop stop-color="#FF9217"/>
<stop offset="1" stop-color="#FFFB1F" stop-opacity="0"/>
</linearGradient>
<linearGradient id="paint68_linear_150_193" x1="253.639" y1="224.829" x2="253.639" y2="241.315" gradientUnits="userSpaceOnUse">
<stop stop-color="#FF9217"/>
<stop offset="1" stop-color="#FFFB1F" stop-opacity="0"/>
</linearGradient>
<linearGradient id="paint69_linear_150_193" x1="260.166" y1="209.073" x2="260.166" y2="225.558" gradientUnits="userSpaceOnUse">
<stop stop-color="#FF9217"/>
<stop offset="1" stop-color="#FFFB1F" stop-opacity="0"/>
</linearGradient>
<linearGradient id="paint70_linear_150_193" x1="8.24274" y1="0" x2="8.24274" y2="16.4855" gradientUnits="userSpaceOnUse">
<stop stop-color="#FF9217"/>
<stop offset="1" stop-color="#FFFB1F" stop-opacity="0"/>
</linearGradient>
<linearGradient id="paint71_linear_150_193" x1="8.24274" y1="0" x2="8.24274" y2="16.4855" gradientUnits="userSpaceOnUse">
<stop stop-color="#FF9217"/>
<stop offset="1" stop-color="#FFFB1F" stop-opacity="0"/>
</linearGradient>
<linearGradient id="paint72_linear_150_193" x1="8.24274" y1="0" x2="8.24274" y2="16.4855" gradientUnits="userSpaceOnUse">
<stop stop-color="#FF9217"/>
<stop offset="1" stop-color="#FFFB1F" stop-opacity="0"/>
</linearGradient>
<linearGradient id="paint73_linear_150_193" x1="8.24274" y1="0" x2="8.24274" y2="16.4855" gradientUnits="userSpaceOnUse">
<stop stop-color="#FF9217"/>
<stop offset="1" stop-color="#FFFB1F" stop-opacity="0"/>
</linearGradient>
<linearGradient id="paint74_linear_150_193" x1="8.24274" y1="0" x2="8.24274" y2="16.4855" gradientUnits="userSpaceOnUse">
<stop stop-color="#FF9217"/>
<stop offset="1" stop-color="#FFFB1F" stop-opacity="0"/>
</linearGradient>
<linearGradient id="paint75_linear_150_193" x1="8.24274" y1="0" x2="8.24274" y2="16.4855" gradientUnits="userSpaceOnUse">
<stop stop-color="#FF9217"/>
<stop offset="1" stop-color="#FFFB1F" stop-opacity="0"/>
</linearGradient>
<linearGradient id="paint76_linear_150_193" x1="8.24274" y1="0" x2="8.24274" y2="16.4855" gradientUnits="userSpaceOnUse">
<stop stop-color="#FF9217"/>
<stop offset="1" stop-color="#FFFB1F" stop-opacity="0"/>
</linearGradient>
<linearGradient id="paint77_linear_150_193" x1="8.24274" y1="0" x2="8.24274" y2="16.4855" gradientUnits="userSpaceOnUse">
<stop stop-color="#FF9217"/>
<stop offset="1" stop-color="#FFFB1F" stop-opacity="0"/>
</linearGradient>
<linearGradient id="paint78_linear_150_193" x1="8.24274" y1="0" x2="8.24274" y2="16.4855" gradientUnits="userSpaceOnUse">
<stop stop-color="#FF9217"/>
<stop offset="1" stop-color="#FFFB1F" stop-opacity="0"/>
</linearGradient>
<linearGradient id="paint79_linear_150_193" x1="8.24274" y1="0" x2="8.24274" y2="16.4855" gradientUnits="userSpaceOnUse">
<stop stop-color="#FF9217"/>
<stop offset="1" stop-color="#FFFB1F" stop-opacity="0"/>
</linearGradient>
</defs>
</svg>
