<svg width="1160" height="677" fill="none" xmlns="http://www.w3.org/2000/svg"><circle cx="1022" cy="405" r="5" fill="#F5DE44"/><path d="M679 5h120" stroke="url(#paint0_linear_0_1)" stroke-dasharray="8 8"/><path d="M1099 5h45c8.28 0 15 6.716 15 15v215" stroke="url(#paint1_linear_0_1)"/><path d="M5 553l-5-10h10l-5 10z" fill="#9FE11F"/><path d="M1022 410v77.231c0 8.285-6.72 15-15 15H20c-8.284 0-15 6.716-15 15V545" stroke="url(#paint2_linear_0_1)"/><path stroke="url(#paint3_linear_0_1)" stroke-dasharray="8 8" d="M259 5.5h120"/><circle cx="259" cy="6" r="5" fill="#FF971B"/><circle cx="678" cy="6" r="5" fill="#FF971B"/><path d="M800 5l-10 5V0l10 5z" fill="#9FE11F"/><path stroke="url(#paint4_linear_0_1)" stroke-dasharray="8 8" d="M259 671.5h120"/><circle cx="259" cy="672" r="5" fill="#FF971B"/><defs><linearGradient id="paint0_linear_0_1" x1="679" y1="5.5" x2="799" y2="5.5" gradientUnits="userSpaceOnUse"><stop stop-color="#9FE11F"/><stop offset=".58" stop-color="#FFDD48"/><stop offset="1" stop-color="#FF9217"/></linearGradient><linearGradient id="paint1_linear_0_1" x1="1099" y1="120" x2="1159" y2="120" gradientUnits="userSpaceOnUse"><stop stop-color="#9FE11F"/><stop offset=".58" stop-color="#FFDD48"/><stop offset="1" stop-color="#FF9217"/></linearGradient><linearGradient id="paint2_linear_0_1" x1="5" y1="477.5" x2="1022" y2="477.5" gradientUnits="userSpaceOnUse"><stop stop-color="#9FE11F"/><stop offset=".58" stop-color="#FFDD48"/><stop offset="1" stop-color="#FF9217"/></linearGradient><linearGradient id="paint3_linear_0_1" x1="259" y1="6.5" x2="379" y2="6.5" gradientUnits="userSpaceOnUse"><stop stop-color="#9FE11F"/><stop offset=".58" stop-color="#FFDD48"/><stop offset="1" stop-color="#FF9217"/></linearGradient><linearGradient id="paint4_linear_0_1" x1="259" y1="672.5" x2="379" y2="672.5" gradientUnits="userSpaceOnUse"><stop stop-color="#9FE11F"/><stop offset=".58" stop-color="#FFDD48"/><stop offset="1" stop-color="#FF9217"/></linearGradient></defs></svg>