<svg width="1306" height="1435" viewBox="0 0 1306 1435" fill="none" xmlns="http://www.w3.org/2000/svg">
<g style="mix-blend-mode:lighten" opacity="0.3" filter="url(#filter0_d_130_77)">
<path d="M1166.39 569.643C1228.8 620.686 1269.58 679.273 1288.72 745.405C1306.9 810.738 1304.55 881.266 1281.68 956.988C1259.6 1031.73 1217.45 1107.15 1155.21 1183.25C1123.3 1222.27 1090.63 1258.23 1057.21 1291.13C1024.59 1323.06 992.895 1350.87 962.133 1374.55C930.396 1397.44 899.989 1415.71 870.911 1429.38L745.116 1326.49C789.442 1304.13 839.086 1272.29 894.05 1230.95C949.811 1188.64 1000.43 1139.68 1045.91 1084.08C1088.2 1032.38 1116.87 983.381 1131.95 937.096C1147.02 890.812 1149.06 848.521 1138.06 810.225C1127.07 771.929 1104.51 738.824 1070.38 710.91C1036.25 682.996 1001.5 666.784 966.126 662.276C930.754 657.768 888.556 665.585 839.532 685.729C790.331 704.1 728.586 735.818 654.296 780.883C601.017 812.199 551.151 837.353 504.698 856.343C458.068 873.56 413.388 883.417 370.658 885.916C327.928 888.414 286.174 882.756 245.395 868.94C205.413 854.15 164.945 830.006 123.988 796.508C68.4043 751.048 32.6783 698.221 16.8101 638.029C-0.0332152 577.039 1.16387 512.895 20.4014 445.597C40.4367 377.323 77.1827 310.506 130.639 245.145C177.713 187.589 226.161 139.297 275.983 100.269C325.805 61.2409 375.449 29.3944 424.916 4.72909L504.036 137.819C458.913 161.152 413.435 189.894 367.603 224.045C322.568 257.219 281.301 296.732 243.801 342.582C207.898 386.481 184.316 428.247 173.058 467.881C161.799 507.515 161.887 544.219 173.323 577.994C183.784 610.97 204.129 639.821 234.359 664.545C269.464 693.257 304.703 709.867 340.074 714.375C375.446 718.883 415.959 712.13 461.615 694.116C507.27 676.101 563.962 647.576 631.691 608.542C704.385 565.427 771.05 533.663 831.687 513.249C892.147 491.062 949.194 483.992 1002.83 492.04C1057.26 499.112 1111.78 524.98 1166.39 569.643Z" fill="url(#paint0_linear_130_77)"/>
</g>
<defs>
<filter id="filter0_d_130_77" x="0.624218" y="0.886309" width="1304.56" height="1433.43" filterUnits="userSpaceOnUse" color-interpolation-filters="sRGB">
<feFlood flood-opacity="0" result="BackgroundImageFix"/>
<feColorMatrix in="SourceAlpha" type="matrix" values="0 0 0 0 0 0 0 0 0 0 0 0 0 0 0 0 0 0 127 0" result="hardAlpha"/>
<feOffset dy="0.548956"/>
<feGaussianBlur stdDeviation="2.19583"/>
<feColorMatrix type="matrix" values="0 0 0 0 1 0 0 0 0 1 0 0 0 0 1 0 0 0 0.25 0"/>
<feBlend mode="normal" in2="BackgroundImageFix" result="effect1_dropShadow_130_77"/>
<feBlend mode="normal" in="SourceGraphic" in2="effect1_dropShadow_130_77" result="shape"/>
</filter>
<linearGradient id="paint0_linear_130_77" x1="876.326" y1="678.509" x2="1280.38" y2="867.813" gradientUnits="userSpaceOnUse">
<stop offset="0.390625" stop-color="white" stop-opacity="0.35"/>
<stop offset="1" stop-color="white"/>
</linearGradient>
</defs>
</svg>
