<svg width="109" height="16" viewBox="0 0 109 16" xmlns="http://www.w3.org/2000/svg">
<path d="M7.68627 0.313965L9.41195 5.62505H14.9964L10.4785 8.90748L12.2042 14.2186L7.68627 10.9361L3.1684 14.2186L4.89407 8.90748L0.376193 5.62505H5.9606L7.68627 0.313965Z"/>
<path d="M31.0588 0.313965L32.7845 5.62505H38.3689L33.851 8.90748L35.5767 14.2186L31.0588 10.9361L26.5409 14.2186L28.2666 8.90748L23.7487 5.62505H29.3331L31.0588 0.313965Z"/>
<path d="M54.4314 0.313965L56.1571 5.62505H61.7415L57.2236 8.90748L58.9493 14.2186L54.4314 10.9361L49.9135 14.2186L51.6392 8.90748L47.1213 5.62505H52.7057L54.4314 0.313965Z"/>
<path d="M77.8039 0.313965L79.5296 5.62505H85.114L80.5961 8.90748L82.3218 14.2186L77.8039 10.9361L73.286 14.2186L75.0117 8.90748L70.4938 5.62505H76.0782L77.8039 0.313965Z"/>
<path d="M101.176 0.313965L102.902 5.62505H108.487L103.969 8.90748L105.694 14.2186L101.176 10.9361L96.6586 14.2186L98.3843 8.90748L93.8664 5.62505H99.4508L101.176 0.313965Z"/>
</svg>
