<svg width="450" height="410" viewBox="0 0 450 410" fill="none" xmlns="http://www.w3.org/2000/svg">
<path d="M224.209 82.0607C214.129 71.9802 196.596 70.8324 175.993 77.7C155.462 84.5439 132.241 99.2529 111.249 120.245C90.2575 141.236 75.5485 164.457 68.7046 184.989C61.837 205.591 62.9848 223.124 73.0653 233.205C83.1459 243.285 100.679 244.433 121.282 237.566C141.813 230.722 165.034 216.013 186.026 195.021C207.017 174.029 221.726 150.809 228.57 130.277C235.438 109.674 234.29 92.1413 224.209 82.0607Z" stroke="url(#paint0_linear_150_25)" stroke-width="2.25"/>
<path d="M236.937 94.7902C226.857 84.7097 209.324 83.5619 188.721 90.4295C168.189 97.2734 144.968 111.982 123.977 132.974C102.985 153.966 88.2763 177.187 81.4324 197.718C74.5648 218.321 75.7126 235.854 85.7931 245.934C95.8736 256.015 113.407 257.163 134.009 250.295C154.541 243.451 177.762 228.742 198.753 207.751C219.745 186.759 234.454 163.538 241.298 143.007C248.166 122.404 247.018 104.871 236.937 94.7902Z" fill="url(#paint1_linear_150_25)" stroke="url(#paint2_linear_150_25)" stroke-width="2.25"/>
<path d="M249.664 107.519C239.584 97.4382 222.051 96.2904 201.448 103.158C180.917 110.002 157.696 124.711 136.704 145.703C115.713 166.694 101.004 189.915 94.1597 210.447C87.2921 231.049 88.4399 248.582 98.5204 258.663C108.601 268.743 126.134 269.891 146.737 263.024C167.268 256.18 190.489 241.471 211.481 220.479C232.472 199.487 247.181 176.267 254.025 155.735C260.893 135.132 259.745 117.599 249.664 107.519Z" fill="url(#paint3_linear_150_25)" stroke="url(#paint4_linear_150_25)" stroke-width="2.25"/>
<path d="M262.393 120.245C252.312 110.164 234.779 109.017 214.176 115.884C193.645 122.728 170.424 137.437 149.432 158.429C128.441 179.42 113.732 202.641 106.888 223.173C100.02 243.775 101.168 261.308 111.248 271.389C121.329 281.469 138.862 282.617 159.465 275.75C179.996 268.906 203.217 254.197 224.209 233.205C245.2 212.214 259.909 188.993 266.753 168.461C273.621 147.858 272.473 130.325 262.393 120.245Z" fill="url(#paint5_linear_150_25)" stroke="url(#paint6_linear_150_25)" stroke-width="2.25"/>
<path d="M275.12 132.973C265.039 122.893 247.506 121.745 226.904 128.613C206.372 135.456 183.151 150.166 162.16 171.157C141.168 192.149 126.459 215.37 119.615 235.901C112.747 256.504 113.895 274.037 123.976 284.117C134.056 294.198 151.589 295.346 172.192 288.478C192.724 281.634 215.944 266.925 236.936 245.934C257.928 224.942 272.637 201.721 279.481 181.19C286.348 160.587 285.2 143.054 275.12 132.973Z" fill="url(#paint7_linear_150_25)" stroke="url(#paint8_linear_150_25)" stroke-width="2.25"/>
<path d="M287.848 145.702C277.767 135.622 260.234 134.474 239.632 141.342C219.1 148.185 195.879 162.895 174.888 183.886C153.896 204.878 139.187 228.099 132.343 248.63C125.475 269.233 126.623 286.766 136.704 296.846C146.784 306.927 164.317 308.075 184.92 301.207C205.452 294.363 228.672 279.654 249.664 258.663C270.656 237.671 285.365 214.45 292.209 193.919C299.076 173.316 297.928 155.783 287.848 145.702Z" fill="url(#paint9_linear_150_25)" stroke="url(#paint10_linear_150_25)" stroke-width="2.25"/>
<path d="M300.576 158.429C290.496 148.349 272.963 147.201 252.36 154.069C231.829 160.913 208.608 175.622 187.616 196.613C166.624 217.605 151.915 240.826 145.072 261.357C138.204 281.96 139.352 299.493 149.432 309.573C159.513 319.654 177.046 320.802 197.649 313.934C218.18 307.09 241.401 292.381 262.393 271.39C283.384 250.398 298.093 227.177 304.937 206.646C311.805 186.043 310.657 168.51 300.576 158.429Z" fill="url(#paint11_linear_150_25)" stroke="url(#paint12_linear_150_25)" stroke-width="2.25"/>
<path d="M313.304 171.158C303.224 161.077 285.691 159.93 265.088 166.797C244.556 173.641 221.335 188.35 200.344 209.342C179.352 230.333 164.643 253.554 157.799 274.086C150.932 294.689 152.08 312.221 162.16 322.302C172.241 332.383 189.773 333.53 210.376 326.663C230.908 319.819 254.129 305.11 275.12 284.118C296.112 263.127 310.821 239.906 317.665 219.374C324.532 198.771 323.385 181.238 313.304 171.158Z" fill="url(#paint13_linear_150_25)" stroke="url(#paint14_linear_150_25)" stroke-width="2.25"/>
<path d="M326.031 183.887C315.951 173.806 298.418 172.659 277.815 179.526C257.283 186.37 234.062 201.079 213.071 222.071C192.079 243.062 177.37 266.283 170.526 286.815C163.659 307.418 164.807 324.95 174.887 335.031C184.968 345.112 202.501 346.259 223.103 339.392C243.635 332.548 266.856 317.839 287.847 296.847C308.839 275.856 323.548 252.635 330.392 232.103C337.26 211.5 336.112 193.967 326.031 183.887Z" fill="url(#paint15_linear_150_25)" stroke="url(#paint16_linear_150_25)" stroke-width="2.25"/>
<path d="M338.759 196.613C328.679 186.533 311.146 185.385 290.543 192.253C270.012 199.097 246.791 213.806 225.799 234.797C204.808 255.789 190.099 279.01 183.255 299.541C176.387 320.144 177.535 337.677 187.615 347.758C197.696 357.838 215.229 358.986 235.832 352.118C256.363 345.274 279.584 330.565 300.576 309.574C321.567 288.582 336.276 265.361 343.12 244.83C349.988 224.227 348.84 206.694 338.759 196.613Z" fill="url(#paint17_linear_150_25)" stroke="url(#paint18_linear_150_25)" stroke-width="2.25"/>
<path d="M351.488 209.342C341.407 199.261 323.875 198.114 303.272 204.981C282.74 211.825 259.519 226.534 238.528 247.526C217.536 268.517 202.827 291.738 195.983 312.27C189.116 332.873 190.263 350.406 200.344 360.486C210.424 370.567 227.957 371.714 248.56 364.847C269.092 358.003 292.313 343.294 313.304 322.302C334.296 301.311 349.005 278.09 355.849 257.558C362.716 236.955 361.568 219.423 351.488 209.342Z" fill="url(#paint19_linear_150_25)" stroke="url(#paint20_linear_150_25)" stroke-width="2.25"/>
<path d="M364.216 222.069C354.135 211.988 336.602 210.84 315.999 217.708C295.468 224.552 272.247 239.261 251.255 260.252C230.264 281.244 215.555 304.465 208.711 324.996C201.843 345.599 202.991 363.132 213.072 373.213C223.152 383.293 240.685 384.441 261.288 377.573C281.819 370.729 305.04 356.02 326.032 335.029C347.024 314.037 361.733 290.816 368.576 270.285C375.444 249.682 374.296 232.149 364.216 222.069Z" fill="url(#paint21_linear_150_25)" stroke="url(#paint22_linear_150_25)" stroke-width="2.25"/>
<path d="M376.943 234.798C366.863 224.718 349.33 223.57 328.727 230.437C308.196 237.281 284.975 251.99 263.983 272.982C242.991 293.973 228.282 317.194 221.439 337.726C214.571 358.329 215.719 375.862 225.799 385.942C235.88 396.023 253.413 397.17 274.016 390.303C294.547 383.459 317.768 368.75 338.76 347.758C359.751 326.767 374.46 303.546 381.304 283.014C388.172 262.411 387.024 244.879 376.943 234.798Z" stroke="url(#paint23_linear_150_25)" stroke-width="2.25"/>
<path d="M300.579 258.75L308.859 283.395L335.654 267.925L313.977 298.626L322.257 323.271L300.579 317.601L278.902 348.302L287.182 314.096L265.505 308.425L292.299 292.956L300.579 258.75Z" fill="url(#paint24_radial_150_25)"/>
<defs>
<linearGradient id="paint0_linear_150_25" x1="76.5048" y1="132.75" x2="240.755" y2="96.75" gradientUnits="userSpaceOnUse">
<stop stop-color="white"/>
<stop offset="1" stop-color="white" stop-opacity="0"/>
</linearGradient>
<linearGradient id="paint1_linear_150_25" x1="234.209" y1="58.7062" x2="296.852" y2="157.136" gradientUnits="userSpaceOnUse">
<stop stop-color="#FFE264"/>
<stop offset="0.927083" stop-color="#FF9217"/>
</linearGradient>
<linearGradient id="paint2_linear_150_25" x1="199.549" y1="208.546" x2="123.181" y2="132.179" gradientUnits="userSpaceOnUse">
<stop stop-color="white"/>
<stop offset="1" stop-color="white" stop-opacity="0"/>
</linearGradient>
<linearGradient id="paint3_linear_150_25" x1="246.936" y1="71.4347" x2="309.58" y2="169.865" gradientUnits="userSpaceOnUse">
<stop stop-color="#FFE264"/>
<stop offset="0.927083" stop-color="#FF9217"/>
</linearGradient>
<linearGradient id="paint4_linear_150_25" x1="212.276" y1="221.275" x2="135.909" y2="144.907" gradientUnits="userSpaceOnUse">
<stop stop-color="white"/>
<stop offset="1" stop-color="white" stop-opacity="0"/>
</linearGradient>
<linearGradient id="paint5_linear_150_25" x1="259.664" y1="84.1608" x2="322.308" y2="182.591" gradientUnits="userSpaceOnUse">
<stop stop-color="#FFE264"/>
<stop offset="0.927083" stop-color="#FF9217"/>
</linearGradient>
<linearGradient id="paint6_linear_150_25" x1="225.004" y1="234.001" x2="148.637" y2="157.633" gradientUnits="userSpaceOnUse">
<stop stop-color="white"/>
<stop offset="1" stop-color="white" stop-opacity="0"/>
</linearGradient>
<linearGradient id="paint7_linear_150_25" x1="272.391" y1="96.8893" x2="335.035" y2="195.319" gradientUnits="userSpaceOnUse">
<stop stop-color="#FFE264"/>
<stop offset="0.927083" stop-color="#FF9217"/>
</linearGradient>
<linearGradient id="paint8_linear_150_25" x1="237.732" y1="246.729" x2="161.364" y2="170.362" gradientUnits="userSpaceOnUse">
<stop stop-color="white"/>
<stop offset="1" stop-color="white" stop-opacity="0"/>
</linearGradient>
<linearGradient id="paint9_linear_150_25" x1="285.119" y1="109.618" x2="347.763" y2="208.048" gradientUnits="userSpaceOnUse">
<stop stop-color="#FFE264"/>
<stop offset="0.927083" stop-color="#FF9217"/>
</linearGradient>
<linearGradient id="paint10_linear_150_25" x1="250.46" y1="259.458" x2="174.092" y2="183.091" gradientUnits="userSpaceOnUse">
<stop stop-color="white"/>
<stop offset="1" stop-color="white" stop-opacity="0"/>
</linearGradient>
<linearGradient id="paint11_linear_150_25" x1="297.848" y1="122.345" x2="360.492" y2="220.775" gradientUnits="userSpaceOnUse">
<stop stop-color="#FFE264"/>
<stop offset="0.927083" stop-color="#FF9217"/>
</linearGradient>
<linearGradient id="paint12_linear_150_25" x1="263.188" y1="272.185" x2="186.821" y2="195.818" gradientUnits="userSpaceOnUse">
<stop stop-color="white"/>
<stop offset="1" stop-color="white" stop-opacity="0"/>
</linearGradient>
<linearGradient id="paint13_linear_150_25" x1="310.576" y1="135.074" x2="373.219" y2="233.504" gradientUnits="userSpaceOnUse">
<stop stop-color="#FFE264"/>
<stop offset="0.927083" stop-color="#FF9217"/>
</linearGradient>
<linearGradient id="paint14_linear_150_25" x1="275.916" y1="284.914" x2="199.548" y2="208.546" gradientUnits="userSpaceOnUse">
<stop stop-color="white"/>
<stop offset="1" stop-color="white" stop-opacity="0"/>
</linearGradient>
<linearGradient id="paint15_linear_150_25" x1="323.303" y1="147.803" x2="385.946" y2="246.233" gradientUnits="userSpaceOnUse">
<stop stop-color="#FFE264"/>
<stop offset="0.927083" stop-color="#FF9217"/>
</linearGradient>
<linearGradient id="paint16_linear_150_25" x1="288.643" y1="297.643" x2="212.275" y2="221.275" gradientUnits="userSpaceOnUse">
<stop stop-color="white"/>
<stop offset="1" stop-color="white" stop-opacity="0"/>
</linearGradient>
<linearGradient id="paint17_linear_150_25" x1="336.031" y1="160.529" x2="398.675" y2="258.959" gradientUnits="userSpaceOnUse">
<stop stop-color="#FFE264"/>
<stop offset="0.927083" stop-color="#FF9217"/>
</linearGradient>
<linearGradient id="paint18_linear_150_25" x1="301.371" y1="310.369" x2="225.004" y2="234.002" gradientUnits="userSpaceOnUse">
<stop stop-color="white"/>
<stop offset="1" stop-color="white" stop-opacity="0"/>
</linearGradient>
<linearGradient id="paint19_linear_150_25" x1="348.76" y1="173.258" x2="411.403" y2="271.688" gradientUnits="userSpaceOnUse">
<stop stop-color="#FFE264"/>
<stop offset="0.927083" stop-color="#FF9217"/>
</linearGradient>
<linearGradient id="paint20_linear_150_25" x1="314.1" y1="323.098" x2="237.732" y2="246.73" gradientUnits="userSpaceOnUse">
<stop stop-color="white"/>
<stop offset="1" stop-color="white" stop-opacity="0"/>
</linearGradient>
<linearGradient id="paint21_linear_150_25" x1="361.487" y1="185.984" x2="424.131" y2="284.414" gradientUnits="userSpaceOnUse">
<stop stop-color="#FFE264"/>
<stop offset="0.927083" stop-color="#FF9217"/>
</linearGradient>
<linearGradient id="paint22_linear_150_25" x1="326.827" y1="335.824" x2="250.46" y2="259.457" gradientUnits="userSpaceOnUse">
<stop stop-color="white"/>
<stop offset="1" stop-color="white" stop-opacity="0"/>
</linearGradient>
<linearGradient id="paint23_linear_150_25" x1="256.504" y1="243.001" x2="369.004" y2="387.001" gradientUnits="userSpaceOnUse">
<stop stop-color="white"/>
<stop offset="1" stop-color="white" stop-opacity="0"/>
</linearGradient>
<radialGradient id="paint24_radial_150_25" cx="0" cy="0" r="1" gradientUnits="userSpaceOnUse" gradientTransform="translate(300.579 301.335) rotate(90) scale(68.6089 59.4171)">
<stop stop-color="white"/>
<stop offset="1" stop-color="white" stop-opacity="0"/>
</radialGradient>
</defs>
</svg>
