<svg width="350" height="350" viewBox="0 0 350 350" fill="none" xmlns="http://www.w3.org/2000/svg">
<path d="M301 70L238 35V105L301 70Z" fill="url(#paint0_linear_150_288)"/>
<path d="M238 70L175 35V105L238 70Z" fill="url(#paint1_linear_150_288)"/>
<path d="M175 70L112 35L112 105L175 70Z" fill="url(#paint2_linear_150_288)"/>
<path d="M112 70L49 35L49 105L112 70Z" fill="url(#paint3_linear_150_288)"/>
<path d="M49 140L112 105L112 175L49 140Z" fill="url(#paint4_linear_150_288)"/>
<path d="M112 140L175 105V175L112 140Z" fill="url(#paint5_linear_150_288)"/>
<path d="M175 140L238 105V175L175 140Z" fill="url(#paint6_linear_150_288)"/>
<path d="M238 140L301 105V175L238 140Z" fill="url(#paint7_linear_150_288)"/>
<path d="M301 210L238 175V245L301 210Z" fill="url(#paint8_linear_150_288)"/>
<path d="M238 210L175 175V245L238 210Z" fill="url(#paint9_linear_150_288)"/>
<path d="M175 210L112 175L112 245L175 210Z" fill="url(#paint10_linear_150_288)"/>
<path d="M112 210L49 175L49 245L112 210Z" fill="url(#paint11_linear_150_288)"/>
<path d="M49 280L112 245L112 315L49 280Z" fill="url(#paint12_linear_150_288)"/>
<path d="M112 280L175 245V315L112 280Z" fill="url(#paint13_linear_150_288)"/>
<path d="M175 280L238 245V315L175 280Z" fill="url(#paint14_linear_150_288)"/>
<path d="M238 280L301 245V315L238 280Z" fill="url(#paint15_linear_150_288)"/>
<defs>
<linearGradient id="paint0_linear_150_288" x1="301" y1="70" x2="238" y2="70" gradientUnits="userSpaceOnUse">
<stop stop-color="#FF9217"/>
<stop offset="1" stop-color="#FF9217" stop-opacity="0"/>
</linearGradient>
<linearGradient id="paint1_linear_150_288" x1="238" y1="70" x2="175" y2="70" gradientUnits="userSpaceOnUse">
<stop stop-color="#FF9217"/>
<stop offset="1" stop-color="#FF9217" stop-opacity="0"/>
</linearGradient>
<linearGradient id="paint2_linear_150_288" x1="175" y1="70" x2="112" y2="70" gradientUnits="userSpaceOnUse">
<stop stop-color="#FF9217"/>
<stop offset="1" stop-color="#FF9217" stop-opacity="0"/>
</linearGradient>
<linearGradient id="paint3_linear_150_288" x1="112" y1="70" x2="49" y2="70" gradientUnits="userSpaceOnUse">
<stop stop-color="#FF9217"/>
<stop offset="1" stop-color="#FF9217" stop-opacity="0"/>
</linearGradient>
<linearGradient id="paint4_linear_150_288" x1="49" y1="140" x2="112" y2="140" gradientUnits="userSpaceOnUse">
<stop stop-color="#FF9217"/>
<stop offset="1" stop-color="#FF9217" stop-opacity="0"/>
</linearGradient>
<linearGradient id="paint5_linear_150_288" x1="112" y1="140" x2="175" y2="140" gradientUnits="userSpaceOnUse">
<stop stop-color="#FF9217"/>
<stop offset="1" stop-color="#FF9217" stop-opacity="0"/>
</linearGradient>
<linearGradient id="paint6_linear_150_288" x1="175" y1="140" x2="238" y2="140" gradientUnits="userSpaceOnUse">
<stop stop-color="#FF9217"/>
<stop offset="1" stop-color="#FF9217" stop-opacity="0"/>
</linearGradient>
<linearGradient id="paint7_linear_150_288" x1="238" y1="140" x2="301" y2="140" gradientUnits="userSpaceOnUse">
<stop stop-color="#FF9217"/>
<stop offset="1" stop-color="#FF9217" stop-opacity="0"/>
</linearGradient>
<linearGradient id="paint8_linear_150_288" x1="301" y1="210" x2="238" y2="210" gradientUnits="userSpaceOnUse">
<stop stop-color="#FF9217"/>
<stop offset="1" stop-color="#FF9217" stop-opacity="0"/>
</linearGradient>
<linearGradient id="paint9_linear_150_288" x1="238" y1="210" x2="175" y2="210" gradientUnits="userSpaceOnUse">
<stop stop-color="#FF9217"/>
<stop offset="1" stop-color="#FF9217" stop-opacity="0"/>
</linearGradient>
<linearGradient id="paint10_linear_150_288" x1="175" y1="210" x2="112" y2="210" gradientUnits="userSpaceOnUse">
<stop stop-color="#FF9217"/>
<stop offset="1" stop-color="#FF9217" stop-opacity="0"/>
</linearGradient>
<linearGradient id="paint11_linear_150_288" x1="112" y1="210" x2="49" y2="210" gradientUnits="userSpaceOnUse">
<stop stop-color="#FF9217"/>
<stop offset="1" stop-color="#FF9217" stop-opacity="0"/>
</linearGradient>
<linearGradient id="paint12_linear_150_288" x1="49" y1="280" x2="112" y2="280" gradientUnits="userSpaceOnUse">
<stop stop-color="#FF9217"/>
<stop offset="1" stop-color="#FF9217" stop-opacity="0"/>
</linearGradient>
<linearGradient id="paint13_linear_150_288" x1="112" y1="280" x2="175" y2="280" gradientUnits="userSpaceOnUse">
<stop stop-color="#FF9217"/>
<stop offset="1" stop-color="#FF9217" stop-opacity="0"/>
</linearGradient>
<linearGradient id="paint14_linear_150_288" x1="175" y1="280" x2="238" y2="280" gradientUnits="userSpaceOnUse">
<stop stop-color="#FF9217"/>
<stop offset="1" stop-color="#FF9217" stop-opacity="0"/>
</linearGradient>
<linearGradient id="paint15_linear_150_288" x1="238" y1="280" x2="301" y2="280" gradientUnits="userSpaceOnUse">
<stop stop-color="#FF9217"/>
<stop offset="1" stop-color="#FF9217" stop-opacity="0"/>
</linearGradient>
</defs>
</svg>
