<svg width="431" height="392" viewBox="0 0 431 392" fill="none" xmlns="http://www.w3.org/2000/svg">
<rect width="103.44" height="103.44" transform="matrix(0.5 -0.866025 1 2.20305e-08 60.3401 350.636)" fill="url(#paint0_linear_150_69)"/>
<rect width="103.44" height="103.44" transform="matrix(0.5 0.866025 1 -2.20305e-08 60.3401 171.472)" fill="url(#paint1_linear_150_69)"/>
<rect width="103.44" height="103.44" transform="matrix(0.5 -0.866025 1 2.20305e-08 60.3401 171.472)" fill="url(#paint2_linear_150_69)"/>
<rect width="103.44" height="103.44" transform="matrix(0.5 -0.866025 1 2.20305e-08 137.92 350.636)" fill="url(#paint3_linear_150_69)"/>
<rect width="103.44" height="103.44" transform="matrix(0.5 0.866025 1 -2.20305e-08 137.92 171.472)" fill="url(#paint4_linear_150_69)"/>
<rect width="103.44" height="103.44" transform="matrix(0.5 -0.866025 1 2.20305e-08 137.92 171.472)" fill="url(#paint5_linear_150_69)"/>
<rect width="103.44" height="103.44" transform="matrix(0.5 -0.866025 1 2.20305e-08 215.5 350.636)" fill="url(#paint6_linear_150_69)"/>
<rect width="103.44" height="103.44" transform="matrix(0.5 0.866025 1 -2.20305e-08 215.5 171.472)" fill="url(#paint7_linear_150_69)"/>
<rect width="103.44" height="103.44" transform="matrix(0.5 -0.866025 1 2.20305e-08 215.5 171.472)" fill="url(#paint8_linear_150_69)"/>
<defs>
<linearGradient id="paint0_linear_150_69" x1="51.72" y1="0" x2="51.72" y2="103.44" gradientUnits="userSpaceOnUse">
<stop stop-color="#FF9217"/>
<stop offset="1" stop-color="#FF9217" stop-opacity="0"/>
</linearGradient>
<linearGradient id="paint1_linear_150_69" x1="51.72" y1="0" x2="51.72" y2="103.44" gradientUnits="userSpaceOnUse">
<stop stop-color="#FF9217"/>
<stop offset="1" stop-color="#FF9217" stop-opacity="0"/>
</linearGradient>
<linearGradient id="paint2_linear_150_69" x1="51.72" y1="0" x2="51.72" y2="103.44" gradientUnits="userSpaceOnUse">
<stop stop-color="#FF9217"/>
<stop offset="1" stop-color="#FF9217" stop-opacity="0"/>
</linearGradient>
<linearGradient id="paint3_linear_150_69" x1="51.72" y1="0" x2="51.72" y2="103.44" gradientUnits="userSpaceOnUse">
<stop stop-color="#FF9217"/>
<stop offset="1" stop-color="#FF9217" stop-opacity="0"/>
</linearGradient>
<linearGradient id="paint4_linear_150_69" x1="51.72" y1="0" x2="51.72" y2="103.44" gradientUnits="userSpaceOnUse">
<stop stop-color="#FF9217"/>
<stop offset="1" stop-color="#FF9217" stop-opacity="0"/>
</linearGradient>
<linearGradient id="paint5_linear_150_69" x1="51.72" y1="0" x2="51.72" y2="103.44" gradientUnits="userSpaceOnUse">
<stop stop-color="#FF9217"/>
<stop offset="1" stop-color="#FF9217" stop-opacity="0"/>
</linearGradient>
<linearGradient id="paint6_linear_150_69" x1="51.72" y1="0" x2="51.72" y2="103.44" gradientUnits="userSpaceOnUse">
<stop stop-color="#FF9217"/>
<stop offset="1" stop-color="#FF9217" stop-opacity="0"/>
</linearGradient>
<linearGradient id="paint7_linear_150_69" x1="51.72" y1="0" x2="51.72" y2="103.44" gradientUnits="userSpaceOnUse">
<stop stop-color="#FF9217"/>
<stop offset="1" stop-color="#FF9217" stop-opacity="0"/>
</linearGradient>
<linearGradient id="paint8_linear_150_69" x1="51.72" y1="0" x2="51.72" y2="103.44" gradientUnits="userSpaceOnUse">
<stop stop-color="#FF9217"/>
<stop offset="1" stop-color="#FF9217" stop-opacity="0"/>
</linearGradient>
</defs>
</svg>
