<svg width="135" height="40" viewBox="0 0 135 40" fill="none" xmlns="http://www.w3.org/2000/svg">
<path d="M0.111816 0.187012C5.46369 5.96868 13.4521 21.7773 2.59098 38.7586C10.1466 32.4916 20.2285 16.0037 0.111816 0.187012Z" fill="white"/>
<path d="M22.7029 5.54395C18.6428 11.7669 13.1618 26.5861 23.7179 36.0798C16.6612 32.3653 6.57883 21.0579 22.7029 5.54395Z" fill="white"/>
<path d="M38.866 25.419C37.3462 25.419 35.8706 25.2315 34.44 24.8565C33.0093 24.4815 31.8469 23.9815 30.9528 23.3565L32.6963 19.4457C33.5369 19.9993 34.5115 20.4458 35.6205 20.785C36.7291 21.1243 37.8198 21.2939 38.893 21.2939C40.9317 21.2939 41.9512 20.785 41.9512 19.7672C41.9512 19.2314 41.6561 18.8386 41.0657 18.5886C40.4935 18.3207 39.5638 18.044 38.2759 17.7582C36.8631 17.4547 35.6829 17.1332 34.735 16.794C33.7874 16.4368 32.9735 15.8743 32.294 15.1065C31.6145 14.3386 31.2747 13.3029 31.2747 11.9993C31.2747 10.8564 31.5876 9.82965 32.2135 8.91894C32.8395 7.99037 33.7695 7.25821 35.0034 6.7225C36.2551 6.1868 37.7844 5.91895 39.5904 5.91895C40.8243 5.91895 42.0406 6.06179 43.2387 6.3475C44.4368 6.61535 45.4921 7.01716 46.4039 7.55287L44.7676 11.4904C42.9794 10.5261 41.2446 10.0439 39.5634 10.0439C38.5085 10.0439 37.7395 10.2047 37.2567 10.5261C36.7737 10.8297 36.5323 11.2314 36.5323 11.7315C36.5323 12.2314 36.8186 12.6065 37.3908 12.8564C37.963 13.1064 38.8839 13.3654 40.1539 13.6332C41.5845 13.9368 42.7647 14.2671 43.6948 14.6243C44.6424 14.9636 45.4563 15.5172 46.1358 16.285C46.8333 17.035 47.182 18.0618 47.182 19.3654C47.182 20.4904 46.8691 21.5083 46.2432 22.419C45.617 23.3297 44.6782 24.0618 43.4264 24.6154C42.1746 25.1511 40.6545 25.419 38.866 25.419Z" fill="white"/>
<path d="M64.7112 20.9457V25.0439H49.6354V6.29395H64.3625V10.3922H54.893V13.5529H63.2356V17.5172H54.893V20.9457H64.7112Z" fill="white"/>
<path d="M80.2394 21.4011H72.2992L70.8239 25.0439H65.4051L73.6941 6.29395H78.9249L87.2409 25.0439H81.7147L80.2394 21.4011ZM78.6835 17.4904L76.2695 11.4904L73.8551 17.4904H78.6835Z" fill="white"/>
<path d="M95.3455 25.419C93.8253 25.419 92.3501 25.2315 90.9194 24.8565C89.4887 24.4815 88.3264 23.9815 87.4322 23.3565L89.1758 19.4457C90.0164 19.9993 90.991 20.4458 92.0996 20.785C93.2086 21.1243 94.2993 21.2939 95.3725 21.2939C97.4111 21.2939 98.4303 20.785 98.4303 19.7672C98.4303 19.2314 98.1352 18.8386 97.5451 18.5886C96.9729 18.3207 96.0429 18.044 94.7554 17.7582C93.3426 17.4547 92.1624 17.1332 91.2145 16.794C90.2665 16.4368 89.453 15.8743 88.7734 15.1065C88.0938 14.3386 87.7539 13.3029 87.7539 11.9993C87.7539 10.8564 88.0668 9.82965 88.693 8.91894C89.3189 7.99037 90.2486 7.25821 91.4828 6.7225C92.7346 6.1868 94.2635 5.91895 96.0699 5.91895C97.3038 5.91895 98.5197 6.06179 99.7182 6.3475C100.916 6.61535 101.971 7.01716 102.883 7.55287L101.247 11.4904C99.4586 10.5261 97.7241 10.0439 96.0429 10.0439C94.988 10.0439 94.2189 10.2047 93.7359 10.5261C93.2531 10.8297 93.0117 11.2314 93.0117 11.7315C93.0117 12.2314 93.298 12.6065 93.8702 12.8564C94.4424 13.1064 95.3634 13.3654 96.633 13.6332C98.0637 13.9368 99.2442 14.2671 100.174 14.6243C101.122 14.9636 101.935 15.5172 102.615 16.285C103.312 17.035 103.661 18.0618 103.661 19.3654C103.661 20.4904 103.348 21.5083 102.722 22.419C102.096 23.3297 101.158 24.0618 99.9059 24.6154C98.6541 25.1511 97.134 25.419 95.3455 25.419Z" fill="white"/>
<path d="M106.115 6.29395H111.426V25.0439H106.115V6.29395Z" fill="white"/>
<path d="M127.786 21.4011H119.846L118.37 25.0439H112.952L121.24 6.29395H126.472L134.787 25.0439H129.261L127.786 21.4011ZM126.23 17.4904L123.816 11.4904L121.401 17.4904H126.23Z" fill="white"/>
<path d="M35.2096 34.6749H32.129L31.4655 36.1599H30.8572L33.385 30.6016H33.9615L36.489 36.1599H35.8729L35.2096 34.6749ZM34.9962 34.1986L33.6693 31.213L32.3422 34.1986H34.9962Z" fill="white"/>
<path d="M41.8724 36.2552C41.3087 36.2552 40.798 36.1332 40.3399 35.8899C39.8871 35.6411 39.529 35.2995 39.2658 34.8655C39.0075 34.4261 38.8787 33.9313 38.8787 33.3809C38.8787 32.8301 39.0075 32.3379 39.2658 31.9038C39.529 31.4645 39.8871 31.1231 40.3399 30.8796C40.798 30.6307 41.3116 30.5063 41.8802 30.5063C42.3594 30.5063 42.7911 30.5911 43.1756 30.7604C43.5653 30.9298 43.8919 31.1733 44.1551 31.4909L43.3337 32.2532C42.9596 31.8191 42.4964 31.6021 41.9434 31.6021C41.6011 31.6021 41.2957 31.6789 41.027 31.8324C40.7586 31.9806 40.5478 32.1897 40.3952 32.4596C40.2479 32.7296 40.174 33.0367 40.174 33.3809C40.174 33.7247 40.2479 34.0318 40.3952 34.3018C40.5478 34.5718 40.7586 34.7836 41.027 34.9371C41.2957 35.0851 41.6011 35.1593 41.9434 35.1593C42.4964 35.1593 42.9596 34.9397 43.3337 34.5002L44.1551 35.2624C43.8919 35.5854 43.5653 35.8317 43.1756 36.0012C42.7859 36.1703 42.3516 36.2552 41.8724 36.2552Z" fill="white"/>
<path d="M50.0508 36.1599L50.0427 32.8249L48.4155 35.572H47.8391L46.2198 32.8964V36.1599H45.0191V30.6016H46.0776L48.1472 34.0555L50.1849 30.6016H51.2356L51.2515 36.1599H50.0508Z" fill="white"/>
<path d="M57.5949 36.1599L57.5868 32.8249L55.9596 35.572H55.3832L53.7638 32.8964V36.1599H52.5631V30.6016H53.6217L55.6912 34.0555L57.7289 30.6016H58.7796L58.7953 36.1599H57.5949Z" fill="white"/>
<path d="M60.1072 30.6016H61.3869V36.1599H60.1072V30.6016Z" fill="white"/>
<path d="M64.7662 30.6016H66.0459V35.1117H68.8185V36.1599H64.7662V30.6016Z" fill="white"/>
<path d="M73.5782 34.0397C73.5782 34.0553 73.5704 34.1666 73.5545 34.3731H70.3399C70.3978 34.6376 70.5347 34.8468 70.7504 35.0003C70.9664 35.1539 71.2351 35.2306 71.5562 35.2306C71.7774 35.2306 71.9722 35.1988 72.1407 35.1353C72.3144 35.0664 72.4751 34.9606 72.6225 34.8178L73.278 35.5322C72.8779 35.9928 72.2933 36.2231 71.5246 36.2231C71.0454 36.2231 70.6216 36.1304 70.253 35.9453C69.8841 35.7547 69.5998 35.4925 69.3997 35.1591C69.1997 34.8256 69.0995 34.447 69.0995 34.0238C69.0995 33.6054 69.1971 33.2297 69.3919 32.8963C69.592 32.5573 69.8633 32.2954 70.2055 32.1101C70.5529 31.9195 70.94 31.8242 71.3665 31.8242C71.7826 31.8242 72.1593 31.9142 72.4963 32.0942C72.8333 32.2742 73.0965 32.5336 73.2861 32.8722C73.481 33.206 73.5782 33.595 73.5782 34.0397ZM71.3746 32.7613C71.0955 32.7613 70.861 32.8407 70.6717 32.9994C70.482 33.1581 70.3662 33.3751 70.3239 33.6503H72.4172C72.3749 33.3807 72.2591 33.1663 72.0695 33.0072C71.8802 32.8433 71.6482 32.7613 71.3746 32.7613Z" fill="white"/>
<path d="M78.5394 31.8877L76.7464 36.1596H75.4748L73.6895 31.8877H74.9614L76.1384 34.7937L77.3547 31.8877H78.5394Z" fill="white"/>
<path d="M83.0894 34.0397C83.0894 34.0553 83.0813 34.1666 83.0657 34.3731H79.8507C79.9086 34.6376 80.0456 34.8468 80.2616 35.0003C80.4776 35.1539 80.7459 35.2306 81.0673 35.2306C81.2885 35.2306 81.4831 35.1988 81.6516 35.1353C81.8256 35.0664 81.986 34.9606 82.1337 34.8178L82.7892 35.5322C82.389 35.9928 81.8045 36.2231 81.0355 36.2231C80.5563 36.2231 80.1324 36.1304 79.7638 35.9453C79.3953 35.7547 79.111 35.4925 78.9109 35.1591C78.7109 34.8256 78.6107 34.447 78.6107 34.0238C78.6107 33.6054 78.7082 33.2297 78.9028 32.8963C79.1032 32.5573 79.3741 32.2954 79.7164 32.1101C80.0641 31.9195 80.4512 31.8242 80.8777 31.8242C81.2937 31.8242 81.6701 31.9142 82.0071 32.0942C82.3441 32.2742 82.6076 32.5336 82.797 32.8722C82.9918 33.206 83.0894 33.595 83.0894 34.0397ZM80.8855 32.7613C80.6064 32.7613 80.3722 32.8407 80.1825 32.9994C79.9929 33.1581 79.8771 33.3751 79.8351 33.6503H81.9281C81.8861 33.3807 81.7703 33.1663 81.5807 33.0072C81.391 32.8433 81.1594 32.7613 80.8855 32.7613Z" fill="white"/>
<path d="M83.9098 30.2681H85.1421V36.1598H83.9098V30.2681Z" fill="white"/>
<path d="M90.1576 32.6899C90.937 32.6899 91.5108 32.846 91.8794 33.1583C92.2535 33.4706 92.4402 33.8889 92.4402 34.413C92.4402 34.7516 92.3559 35.0613 92.1874 35.342C92.0189 35.6172 91.761 35.8394 91.4135 36.0089C91.0713 36.1729 90.6471 36.2552 90.1416 36.2552C89.7522 36.2552 89.3677 36.2047 88.9884 36.1042C88.6147 35.9982 88.2962 35.8502 88.0327 35.6595L88.5382 34.6749C88.749 34.8336 88.991 34.9582 89.2649 35.048C89.5388 35.1329 89.8205 35.1752 90.1101 35.1752C90.4315 35.1752 90.6842 35.1117 90.8683 34.9845C91.0528 34.8577 91.1448 34.6804 91.1448 34.4527C91.1448 34.2146 91.0476 34.0343 90.8527 33.9127C90.6631 33.791 90.3313 33.7302 89.8573 33.7302H88.4435L88.7279 30.6016H92.1006V31.6338H89.7942L89.7073 32.6899H90.1576Z" fill="white"/>
<path d="M98.0204 36.2071C97.4729 36.2071 96.9778 36.0855 96.5354 35.8418C96.0982 35.5985 95.7534 35.2621 95.5006 34.8334C95.2531 34.3994 95.1295 33.915 95.1295 33.3806C95.1295 32.8458 95.2531 32.3641 95.5006 31.9353C95.7534 31.5012 96.1011 31.1624 96.5432 30.919C96.9856 30.6755 97.4807 30.5537 98.0282 30.5537C98.4391 30.5537 98.818 30.6225 99.1658 30.7601C99.5132 30.8978 99.8083 31.0989 100.05 31.3636L99.6791 31.7368C99.2474 31.2974 98.7022 31.0778 98.0442 31.0778C97.6069 31.0778 97.2094 31.1784 96.8513 31.3795C96.4934 31.5807 96.2117 31.8559 96.0061 32.2053C95.8061 32.5546 95.7062 32.9463 95.7062 33.3806C95.7062 33.8145 95.8061 34.2062 96.0061 34.5556C96.2117 34.9049 96.4934 35.1801 96.8513 35.3815C97.2094 35.5825 97.6069 35.6831 98.0442 35.6831C98.7078 35.6831 99.2526 35.4609 99.6791 35.0162L100.05 35.3893C99.8083 35.6541 99.5106 35.8577 99.158 36.0009C98.8102 36.1385 98.4313 36.2071 98.0204 36.2071Z" fill="white"/>
<path d="M102.691 36.1998C102.291 36.1998 101.93 36.1097 101.609 35.9298C101.288 35.7443 101.035 35.4903 100.851 35.1676C100.666 34.8446 100.574 34.4792 100.574 34.0716C100.574 33.664 100.666 33.2987 100.851 32.976C101.035 32.653 101.288 32.4016 101.609 32.2216C101.93 32.0416 102.291 31.9517 102.691 31.9517C103.091 31.9517 103.452 32.0416 103.773 32.2216C104.094 32.4016 104.345 32.653 104.523 32.976C104.708 33.2987 104.8 33.664 104.8 34.0716C104.8 34.4792 104.708 34.8446 104.523 35.1676C104.345 35.4903 104.094 35.7443 103.773 35.9298C103.452 36.1097 103.091 36.1998 102.691 36.1998ZM102.691 35.6995C102.986 35.6995 103.249 35.6334 103.481 35.501C103.718 35.3634 103.902 35.1702 104.034 34.9213C104.166 34.6725 104.231 34.3895 104.231 34.0716C104.231 33.7542 104.166 33.4708 104.034 33.222C103.902 32.9734 103.718 32.7828 103.481 32.6504C103.249 32.5128 102.986 32.4439 102.691 32.4439C102.396 32.4439 102.13 32.5128 101.893 32.6504C101.661 32.7828 101.477 32.9734 101.34 33.222C101.209 33.4708 101.143 33.7542 101.143 34.0716C101.143 34.3895 101.209 34.6725 101.34 34.9213C101.477 35.1702 101.661 35.3634 101.893 35.501C102.13 35.6334 102.396 35.6995 102.691 35.6995Z" fill="white"/>
<path d="M111.127 31.9517C111.648 31.9517 112.056 32.1025 112.351 32.4043C112.651 32.706 112.801 33.1507 112.801 33.7382V36.1601H112.24V33.7938C112.24 33.3596 112.135 33.0287 111.924 32.8013C111.719 32.5736 111.427 32.4598 111.048 32.4598C110.616 32.4598 110.276 32.5948 110.029 32.8648C109.781 33.1296 109.657 33.4975 109.657 33.9685V36.1601H109.097V33.7938C109.097 33.3596 108.992 33.0287 108.781 32.8013C108.575 32.5736 108.28 32.4598 107.896 32.4598C107.469 32.4598 107.13 32.5948 106.877 32.8648C106.629 33.1296 106.506 33.4975 106.506 33.9685V36.1601H105.945V31.9834H106.482V32.7457C106.63 32.4916 106.835 32.2957 107.098 32.1581C107.361 32.0205 107.664 31.9517 108.006 31.9517C108.354 31.9517 108.654 32.0258 108.907 32.174C109.165 32.3222 109.357 32.5418 109.484 32.8329C109.637 32.5577 109.855 32.3434 110.139 32.1898C110.429 32.0311 110.758 31.9517 111.127 31.9517Z" fill="white"/>
<path d="M116.463 31.9517C116.852 31.9517 117.205 32.0416 117.521 32.2216C117.837 32.3963 118.085 32.6452 118.264 32.9679C118.443 33.2909 118.532 33.6588 118.532 34.0716C118.532 34.49 118.443 34.8605 118.264 35.1832C118.085 35.5062 117.837 35.7577 117.521 35.9376C117.211 36.1123 116.858 36.1998 116.463 36.1998C116.126 36.1998 115.82 36.1308 115.546 35.9932C115.278 35.8504 115.057 35.6438 114.883 35.3738V37.7004H114.322V31.9834H114.859V32.8092C115.028 32.5339 115.249 32.3222 115.523 32.174C115.802 32.0258 116.115 31.9517 116.463 31.9517ZM116.423 35.6995C116.713 35.6995 116.976 35.6334 117.213 35.501C117.45 35.3634 117.634 35.1702 117.766 34.9213C117.903 34.6725 117.971 34.3895 117.971 34.0716C117.971 33.7542 117.903 33.4734 117.766 33.2301C117.634 32.9812 117.45 32.788 117.213 32.6504C116.976 32.5128 116.713 32.4439 116.423 32.4439C116.128 32.4439 115.863 32.5128 115.625 32.6504C115.394 32.788 115.209 32.9812 115.073 33.2301C114.941 33.4734 114.875 33.7542 114.875 34.0716C114.875 34.3895 114.941 34.6725 115.073 34.9213C115.209 35.1702 115.394 35.3634 115.625 35.501C115.863 35.6334 116.128 35.6995 116.423 35.6995Z" fill="white"/>
<path d="M121.106 31.9517C121.648 31.9517 122.064 32.0893 122.354 32.3645C122.643 32.6345 122.788 33.0369 122.788 33.5713V36.1601H122.251V35.5088C122.125 35.7258 121.938 35.8953 121.69 36.0169C121.448 36.1389 121.158 36.1998 120.821 36.1998C120.358 36.1998 119.989 36.0885 119.715 35.8663C119.442 35.6438 119.305 35.3501 119.305 34.9848C119.305 34.6302 119.431 34.3442 119.684 34.1273C119.942 33.9103 120.35 33.8016 120.908 33.8016H122.227V33.5476C122.227 33.1878 122.127 32.9152 121.927 32.7298C121.727 32.5392 121.435 32.4439 121.05 32.4439C120.787 32.4439 120.535 32.4889 120.292 32.5788C120.05 32.6637 119.842 32.7828 119.668 32.9363L119.415 32.5154C119.626 32.3354 119.879 32.1978 120.174 32.1025C120.468 32.002 120.779 31.9517 121.106 31.9517ZM120.908 35.7551C121.224 35.7551 121.495 35.6835 121.722 35.5407C121.948 35.3924 122.117 35.1806 122.227 34.9054V34.2226H120.924C120.213 34.2226 119.858 34.4714 119.858 34.9688C119.858 35.2125 119.95 35.4057 120.134 35.5485C120.319 35.6861 120.576 35.7551 120.908 35.7551Z" fill="white"/>
<path d="M126.428 31.9517C126.95 31.9517 127.363 32.1052 127.668 32.4122C127.979 32.7138 128.135 33.1559 128.135 33.7382V36.1601H127.574V33.7938C127.574 33.3596 127.466 33.0287 127.25 32.8013C127.034 32.5736 126.726 32.4598 126.326 32.4598C125.878 32.4598 125.523 32.5948 125.259 32.8648C125.001 33.1296 124.872 33.4975 124.872 33.9685V36.1601H124.312V31.9834H124.849V32.7535C125.001 32.4995 125.212 32.3037 125.48 32.166C125.754 32.0231 126.07 31.9517 126.428 31.9517Z" fill="white"/>
<path d="M133.071 31.9829L130.994 36.6596C130.825 37.0516 130.631 37.3294 130.409 37.4933C130.188 37.6576 129.922 37.7396 129.611 37.7396C129.411 37.7396 129.224 37.7077 129.051 37.6443C128.877 37.5808 128.727 37.4855 128.6 37.3583L128.861 36.9377C129.072 37.1495 129.324 37.2552 129.62 37.2552C129.809 37.2552 129.97 37.2022 130.101 37.0964C130.238 36.9907 130.364 36.8105 130.48 36.5564L130.662 36.1514L128.806 31.9829H129.39L130.954 35.5321L132.518 31.9829H133.071Z" fill="white"/>
</svg>
