<svg width="135" height="40" fill="none" xmlns="http://www.w3.org/2000/svg"><path d="M.112.187c5.352 5.782 13.34 21.59 2.479 38.572C10.147 32.492 20.229 16.004.111.187z" fill="#fff"/><path d="M22.703 5.544c-4.06 6.223-9.541 21.042 1.015 30.536-7.057-3.715-17.14-15.022-1.015-30.536zm16.163 19.875c-1.52 0-2.995-.188-4.426-.563-1.43-.375-2.593-.875-3.487-1.5l1.743-3.91c.84.553 1.816 1 2.925 1.339 1.108.34 2.199.509 3.272.509 2.039 0 3.058-.509 3.058-1.527 0-.536-.295-.928-.885-1.178-.573-.268-1.502-.545-2.79-.83-1.413-.304-2.593-.626-3.541-.965a6.08 6.08 0 01-2.441-1.688c-.68-.767-1.02-1.803-1.02-3.107 0-1.143.314-2.17.94-3.08.626-.929 1.556-1.66 2.79-2.197 1.251-.535 2.78-.803 4.586-.803 1.234 0 2.45.143 3.649.429 1.198.267 2.253.67 3.165 1.205l-1.636 3.937c-1.789-.964-3.523-1.446-5.205-1.446-1.055 0-1.824.16-2.306.482-.483.304-.725.705-.725 1.206 0 .5.287.875.859 1.124.572.25 1.493.51 2.763.777 1.43.304 2.61.634 3.54.991.948.34 1.762.893 2.442 1.661.697.75 1.046 1.777 1.046 3.08a5.269 5.269 0 01-.939 3.054c-.626.91-1.565 1.643-2.817 2.196-1.251.536-2.772.804-4.56.804zm25.845-4.473v4.098H49.635V6.294h14.727v4.098h-9.469v3.16h8.343v3.965h-8.343v3.429h9.818zm15.529.455H72.3l-1.476 3.643h-5.419l8.29-18.75h5.23l8.316 18.75h-5.526L80.239 21.4zm-1.556-3.91l-2.415-6-2.414 6h4.828zm16.662 7.928c-1.52 0-2.996-.188-4.427-.563-1.43-.375-2.593-.875-3.487-1.5l1.744-3.91c.84.553 1.815 1 2.924 1.339 1.109.34 2.2.509 3.273.509 2.038 0 3.057-.509 3.057-1.527 0-.536-.295-.928-.885-1.178-.572-.268-1.502-.545-2.79-.83-1.412-.304-2.593-.626-3.54-.965a6.078 6.078 0 01-2.442-1.688c-.68-.767-1.02-1.803-1.02-3.107 0-1.143.314-2.17.94-3.08.626-.929 1.556-1.66 2.79-2.197 1.252-.535 2.78-.803 4.587-.803 1.234 0 2.45.143 3.648.429 1.198.267 2.253.67 3.165 1.205l-1.636 3.937c-1.788-.964-3.523-1.446-5.204-1.446-1.055 0-1.824.16-2.307.482-.483.304-.724.705-.724 1.206 0 .5.286.875.858 1.124.572.25 1.493.51 2.763.777 1.43.304 2.611.634 3.541.991.948.34 1.761.893 2.441 1.661.697.75 1.046 1.777 1.046 3.08a5.268 5.268 0 01-.939 3.054c-.626.91-1.564 1.643-2.816 2.196-1.252.536-2.772.804-4.56.804zm10.769-19.125h5.311v18.75h-5.311V6.294zm21.671 15.107h-7.94l-1.476 3.643h-5.418l8.288-18.75h5.232l8.315 18.75h-5.526l-1.475-3.643zm-1.556-3.91l-2.414-6-2.415 6h4.829zM35.21 34.675h-3.081l-.663 1.485h-.609l2.528-5.558h.577l2.527 5.558h-.616l-.663-1.485zm-.214-.476l-1.327-2.986-1.327 2.986h2.654zm6.876 2.056a3.215 3.215 0 01-1.532-.365 2.822 2.822 0 01-1.074-1.025 2.874 2.874 0 01-.387-1.484c0-.55.129-1.043.387-1.477a2.74 2.74 0 011.074-1.024 3.174 3.174 0 011.54-.374c.48 0 .911.085 1.296.254.39.17.716.413.98.73l-.822.763c-.374-.434-.838-.65-1.39-.65a1.81 1.81 0 00-.917.23c-.268.148-.48.357-.632.627-.147.27-.221.577-.221.92 0 .345.074.652.221.922.153.27.364.482.632.635.269.148.574.222.916.222.553 0 1.017-.22 1.39-.659l.822.762c-.263.323-.59.57-.98.74a3.24 3.24 0 01-1.303.253zm8.178-.095l-.007-3.335-1.627 2.747h-.577l-1.62-2.676v3.264h-1.2v-5.558h1.059l2.07 3.454 2.037-3.454h1.05l.017 5.558H50.05zm7.545 0l-.008-3.335-1.627 2.747h-.577l-1.62-2.676v3.264h-1.2v-5.558h1.059l2.07 3.454 2.037-3.454h1.05l.016 5.558h-1.2zm2.512-5.558h1.28v5.558h-1.28v-5.558zm4.659 0h1.28v4.51h2.772v1.048h-4.052v-5.558zm8.812 3.438c0 .015-.008.127-.023.333H70.34c.058.265.195.474.41.627.216.154.485.23.806.23.221 0 .416-.031.585-.095a1.47 1.47 0 00.481-.317l.656.714c-.4.46-.985.691-1.753.691-.48 0-.903-.093-1.272-.278a2.086 2.086 0 01-.853-.786c-.2-.333-.3-.712-.3-1.135 0-.419.097-.794.292-1.128.2-.339.471-.6.814-.786.347-.19.734-.286 1.16-.286.417 0 .793.09 1.13.27.337.18.6.44.79.778.195.334.292.723.292 1.168zm-2.203-1.279c-.28 0-.514.08-.703.238-.19.16-.306.376-.348.651h2.093a1.012 1.012 0 00-.347-.643 1.025 1.025 0 00-.695-.246zm7.165-.873l-1.794 4.272h-1.271l-1.785-4.272h1.271l1.177 2.906 1.217-2.906h1.184zm4.55 2.152c0 .015-.009.127-.024.333H79.85c.058.265.195.474.41.627.217.154.485.23.806.23.222 0 .416-.031.585-.095a1.47 1.47 0 00.482-.317l.655.714c-.4.46-.984.691-1.754.691-.479 0-.903-.093-1.271-.278a2.087 2.087 0 01-.853-.786c-.2-.333-.3-.712-.3-1.135 0-.419.097-.794.292-1.128.2-.339.471-.6.813-.786.348-.19.735-.286 1.162-.286.416 0 .792.09 1.13.27.336.18.6.44.789.778.195.334.292.723.292 1.168zm-2.205-1.279c-.279 0-.513.08-.703.238-.19.16-.305.376-.347.651h2.093a1.01 1.01 0 00-.347-.643 1.026 1.026 0 00-.696-.246zm3.025-2.493h1.232v5.892H83.91v-5.892zm6.248 2.422c.779 0 1.353.156 1.721.468.374.313.561.73.561 1.255 0 .339-.084.648-.253.929-.168.275-.426.497-.773.667-.343.164-.767.246-1.272.246-.39 0-.774-.05-1.154-.15a3.021 3.021 0 01-.955-.445l.505-.985c.211.159.453.283.727.373.274.085.555.127.845.127.322 0 .574-.063.758-.19a.609.609 0 00.277-.532.596.596 0 00-.292-.54c-.19-.122-.522-.183-.996-.183h-1.413l.284-3.128H92.1v1.032h-2.307l-.087 1.056h.45zm7.862 3.517a3.026 3.026 0 01-1.485-.365 2.71 2.71 0 01-1.034-1.009 2.88 2.88 0 01-.372-1.452c0-.535.124-1.017.372-1.446a2.68 2.68 0 011.042-1.016 3.028 3.028 0 011.485-.365c.411 0 .79.069 1.138.206.347.138.642.339.884.604l-.37.373c-.433-.44-.978-.66-1.636-.66-.437 0-.835.101-1.193.302a2.23 2.23 0 00-.845.826c-.2.35-.3.741-.3 1.176 0 .434.1.825.3 1.175.206.349.487.624.845.826.358.2.756.301 1.193.301.664 0 1.209-.222 1.635-.667l.371.373c-.242.265-.54.469-.892.612a3.064 3.064 0 01-1.138.206zm4.671-.007c-.4 0-.761-.09-1.082-.27a2.023 2.023 0 01-.758-.762 2.165 2.165 0 01-.277-1.096c0-.408.092-.773.277-1.096.184-.323.437-.574.758-.754.321-.18.682-.27 1.082-.27s.761.09 1.082.27c.321.18.572.431.75.754.185.323.277.688.277 1.096 0 .407-.092.773-.277 1.096a1.96 1.96 0 01-.75.762c-.321.18-.682.27-1.082.27zm0-.5c.295 0 .558-.067.79-.199.237-.138.421-.33.553-.58.132-.248.197-.532.197-.85 0-.317-.065-.6-.197-.849a1.378 1.378 0 00-.553-.572 1.518 1.518 0 00-.79-.206 1.56 1.56 0 00-.798.206 1.442 1.442 0 00-.553.572 1.797 1.797 0 00-.197.85c0 .317.066.6.197.85.137.248.321.441.553.579.237.132.503.199.798.199zm8.436-3.748c.521 0 .929.15 1.224.452.3.302.45.747.45 1.334v2.422h-.561v-2.366c0-.434-.105-.765-.316-.993-.205-.227-.497-.341-.876-.341-.432 0-.772.135-1.019.405-.248.265-.372.633-.372 1.103v2.192h-.56v-2.366c0-.434-.105-.765-.316-.993-.206-.227-.501-.341-.885-.341-.427 0-.766.135-1.019.405-.248.265-.371.633-.371 1.103v2.192h-.561v-4.177h.537v.763a1.51 1.51 0 01.616-.588c.263-.138.566-.206.908-.206.348 0 .648.074.901.222.258.148.45.368.577.659.153-.275.371-.49.655-.643a2.02 2.02 0 01.988-.238zm5.336 0a2.1 2.1 0 011.058.27c.316.174.564.423.743.746.179.323.268.69.268 1.104 0 .418-.089.788-.268 1.111a1.924 1.924 0 01-.743.755c-.31.174-.663.262-1.058.262-.337 0-.643-.07-.917-.207a1.776 1.776 0 01-.663-.62V37.7h-.561v-5.717h.537v.826c.169-.275.39-.487.664-.635.279-.148.592-.222.94-.222zm-.04 3.747c.29 0 .553-.066.79-.198.237-.138.421-.33.553-.58a1.73 1.73 0 00.205-.85c0-.317-.068-.598-.205-.84a1.429 1.429 0 00-.553-.58 1.544 1.544 0 00-.79-.207c-.295 0-.56.069-.798.206a1.497 1.497 0 00-.552.58 1.738 1.738 0 00-.198.842c0 .317.066.6.198.85.136.248.321.441.552.579.238.132.503.199.798.199zm4.683-3.747c.542 0 .958.137 1.248.412.289.27.434.673.434 1.207v2.59h-.537v-.652a1.28 1.28 0 01-.561.508 1.912 1.912 0 01-.869.183c-.463 0-.832-.111-1.106-.334a1.081 1.081 0 01-.41-.881c0-.355.126-.64.379-.858.258-.217.666-.325 1.224-.325h1.319v-.254c0-.36-.1-.633-.3-.818-.2-.19-.492-.286-.877-.286-.263 0-.515.045-.758.135-.242.085-.45.204-.624.357l-.253-.42c.211-.18.464-.318.759-.413a2.85 2.85 0 01.932-.151zm-.198 3.803c.316 0 .587-.072.814-.214.226-.149.395-.36.505-.636v-.682h-1.303c-.711 0-1.066.248-1.066.746 0 .243.092.437.276.58.185.137.442.206.774.206zm5.52-3.803c.522 0 .935.153 1.24.46.311.302.467.744.467 1.326v2.422h-.561v-2.366c0-.434-.108-.765-.324-.993-.216-.227-.524-.341-.924-.341-.448 0-.803.135-1.067.405-.258.265-.387.633-.387 1.103v2.192h-.56v-4.177h.537v.77a1.54 1.54 0 01.631-.587 2.02 2.02 0 01.948-.214zm6.643.031l-2.077 4.677c-.169.392-.363.67-.585.833a1.3 1.3 0 01-.798.247c-.2 0-.387-.032-.56-.096a1.219 1.219 0 01-.451-.286l.261-.42c.211.212.463.317.759.317.189 0 .35-.053.481-.159.137-.105.263-.285.379-.54l.182-.405-1.856-4.168h.584l1.564 3.55 1.564-3.55h.553z" fill="#fff"/></svg>