<svg width="119.677856" height="42.744141" viewBox="0 0 119.678 42.7441" fill="none" xmlns="http://www.w3.org/2000/svg" xmlns:xlink="http://www.w3.org/1999/xlink">
	<desc>
			Created with Pixso.
	</desc>
	<defs/>
	<path id="Vector" d="M8.14 0L6.1 5.59L34.34 5.59L36.38 0L8.14 0ZM5.08 8.38L3.05 13.97L31.29 13.97L33.33 8.38L5.08 8.38ZM2.03 16.77L0 22.36L28.24 22.36L30.27 16.77L2.03 16.77Z" fill="#FFFFFF" fill-opacity="1.000000" fill-rule="evenodd"/>
	<path id="Vector" d="M60.03 24.49L60.03 24.6C61.32 25.08 62.56 25.91 63.2 26.44C65.2 28.1 66.08 30.29 66.08 33.14C66.08 37.82 63.61 41.2 59.56 42.26C58.33 42.62 57.04 42.74 54.63 42.74L42.37 42.74L42.37 8.49L53.22 8.49C55.46 8.49 56.98 8.61 58.33 8.96C62.26 10.03 64.85 12.75 64.85 17.08C64.85 19.39 64.03 21.35 62.68 22.65C62.09 23.24 61.27 23.95 60.03 24.49ZM49.17 28.1L49.17 37.11L53.87 37.11C55.28 37.11 56.57 36.99 57.51 36.1C58.45 35.21 58.86 34.09 58.86 32.6C58.86 31.48 58.57 30.41 57.98 29.64C56.98 28.4 55.75 28.1 53.64 28.1L49.17 28.1ZM49.12 22.18L52.93 22.18C54.1 22.18 54.69 22.18 55.28 22C56.86 21.52 57.86 20.1 57.86 18.15C57.86 15.84 56.81 14.83 55.28 14.35C54.63 14.18 53.99 14.12 52.7 14.12L49.12 14.12L49.12 22.18ZM76.29 42.74L76.29 14.23L66.49 14.23L66.49 8.49L93.73 8.49L91.79 14.23L83.1 14.23L83.1 42.74L76.29 42.74ZM95.84 42.74L95.84 8.49L117.91 8.49L115.98 14.23L102.59 14.23L102.59 21.82L108.05 21.82C112.45 21.82 114.74 22.89 116.33 24.25C117.56 25.32 119.67 27.69 119.67 32.37C119.67 36.99 117.5 39.54 115.68 40.84C113.57 42.32 111.34 42.74 106.82 42.74L95.84 42.74ZM102.59 36.99L107.7 36.99C109.64 36.99 110.81 36.52 111.63 35.45C112.04 34.92 112.63 33.97 112.63 32.19C112.63 30.41 112.04 29.17 110.87 28.28C110.16 27.75 109.22 27.45 107.64 27.45L102.59 27.45L102.59 36.99Z" fill="#FFFFFF" fill-opacity="1.000000" fill-rule="evenodd"/>
</svg>
