<svg width="119.678" height="42.744" fill="none" xmlns="http://www.w3.org/2000/svg"><path d="M8.14 0L6.1 5.59h28.24L36.38 0H8.14zM5.08 8.38l-2.03 5.59h28.24l2.04-5.59H5.08zm-3.05 8.39L0 22.36h28.24l2.03-5.59H2.03zm58 7.72v.11c1.29.48 2.53 1.31 3.17 1.84 2 1.66 2.88 3.85 2.88 6.7 0 4.68-2.47 8.06-6.52 9.12-1.23.36-2.52.48-4.93.48H42.37V8.49h10.85c2.24 0 3.76.12 5.11.47 3.93 1.07 6.52 3.79 6.52 8.12 0 2.31-.82 4.27-2.17 5.57-.59.59-1.41 1.3-2.65 1.84zM49.17 28.1v9.01h4.7c1.41 0 2.7-.12 3.64-1.01s1.35-2.01 1.35-3.5c0-1.12-.29-2.19-.88-2.96-1-1.24-2.23-1.54-4.34-1.54h-4.47zm-.05-5.92h3.81c1.17 0 1.76 0 2.35-.18 1.58-.48 2.58-1.9 2.58-3.85 0-2.31-1.05-3.32-2.58-3.8-.65-.17-1.29-.23-2.58-.23h-3.58v8.06zm27.17 20.56V14.23h-9.8V8.49h27.24l-1.94 5.74H83.1v28.51h-6.81zm19.55 0V8.49h22.07l-1.93 5.74h-13.39v7.59h5.46c4.4 0 6.69 1.07 8.28 2.43 1.23 1.07 3.34 3.44 3.34 8.12 0 4.62-2.17 7.17-3.99 8.47-2.11 1.48-4.34 1.9-8.86 1.9H95.84zm6.75-5.75h5.11c1.94 0 3.11-.47 3.93-1.54.41-.53 1-1.48 1-3.26 0-1.78-.59-3.02-1.76-3.91-.71-.53-1.65-.83-3.23-.83h-5.05v9.54z" fill="#FFF" fill-rule="evenodd"/></svg>