<svg width="1440" height="900" viewBox="0 0 1440 900" fill="none" xmlns="http://www.w3.org/2000/svg">
<g filter="url(#filter0_f_61_700)">
<ellipse cx="585.214" cy="884.504" rx="268.698" ry="408.541" transform="rotate(-111.286 585.214 884.504)" fill="#25FE02"/>
</g>
<mask id="mask0_61_700" style="mask-type:alpha" maskUnits="userSpaceOnUse" x="-126" y="-72" width="1405" height="1614">
<path d="M1278 254.328L399.256 -71.2158L-69.2021 702.244L-125.5 950.828L281.157 1479.56L695.315 1541.85L1033.97 856.488L1278 254.328Z" fill="url(#paint0_linear_61_700)"/>
</mask>
<g mask="url(#mask0_61_700)">
<mask id="mask1_61_700" style="mask-type:alpha" maskUnits="userSpaceOnUse" x="-224" y="-113" width="1511" height="1709">
<path d="M648.604 1595.26C261.763 1403.46 -204.001 1117.38 -223.897 1109.1L386 -112.172L1286.5 247.828L648.604 1595.26Z" fill="url(#paint1_linear_61_700)"/>
</mask>
<g mask="url(#mask1_61_700)">
<path d="M150.994 734.355C217.233 600.301 411.56 556.096 535.85 617.51C660.14 678.925 796.435 813.786 725.366 957.614C690.148 1028.89 730.471 1156.48 626.736 1210.58C521.136 1265.65 361.305 1162.28 298.607 1131.3C174.317 1069.89 84.7547 868.409 150.994 734.355Z" fill="#FF971B"/>
<g filter="url(#filter1_f_61_700)">
<path d="M160.846 741.221C231.885 597.451 390.359 547.743 486.853 595.423C583.348 643.103 683.177 759.918 612.137 903.687C576.934 974.932 601.203 1094.55 511.326 1155.45C419.835 1217.45 297.909 1132.82 249.232 1108.77C152.738 1061.09 89.8058 884.99 160.846 741.221Z" fill="#FF971B"/>
</g>
<g filter="url(#filter2_f_61_700)">
<path d="M162.997 736.87C242.618 575.732 432.504 526.08 551.655 584.955C670.805 643.83 797.127 781.888 717.506 943.026C678.049 1022.88 723.989 1166.2 617.777 1231.76C509.657 1298.49 347.924 1191.25 287.818 1161.55C168.668 1102.67 83.3749 898.007 162.997 736.87Z" fill="#FF971B"/>
</g>
<g filter="url(#filter3_f_61_700)">
<path d="M211.135 737.44C341.748 554.457 594.01 474.078 748.165 550.249C902.321 626.421 1019.08 809.743 923.586 1003C876.266 1098.76 983.448 1304.89 850.461 1380.73C715.086 1457.94 439.205 1307.35 361.441 1268.92C207.286 1192.75 59.8275 949.414 211.135 737.44Z" fill="#FF971B"/>
</g>
<g filter="url(#filter4_f_61_700)">
<path d="M275.954 704.634C378.772 496.552 673.246 400.693 823.964 475.167C974.683 549.641 1083.89 738.875 981.077 946.958C930.125 1050.07 925.781 1203.7 790.191 1289.12C652.166 1376.08 309.603 1282.47 233.572 1244.9C82.8537 1170.43 173.136 912.716 275.954 704.634Z" fill="#FF971B"/>
</g>
<g filter="url(#filter5_f_61_700)">
<path d="M383.476 638.513C489.729 423.479 784.345 338.736 938.5 414.907C1092.66 491.079 1203.79 685.782 1097.53 900.816C1044.88 1007.38 757.712 1063.43 618.389 1152.1C476.563 1242.37 280.794 1109.17 203.03 1070.75C48.8748 994.576 277.223 853.547 383.476 638.513Z" fill="#FF971B"/>
</g>
<g filter="url(#filter6_f_61_700)">
<path d="M279.045 788.136C372.016 599.981 655.197 538.378 809.353 614.549C963.508 690.721 1081.58 871.379 988.609 1059.53C942.537 1152.77 927.603 1286.25 796.1 1359.09C662.234 1433.24 464.655 1303.71 386.891 1265.29C232.736 1189.12 186.073 976.29 279.045 788.136Z" fill="#FF971B"/>
</g>
</g>
</g>
<mask id="mask2_61_700" style="mask-type:alpha" maskUnits="userSpaceOnUse" x="132" y="268" width="1696" height="1181">
<path d="M132.476 1265.58C182.937 836.766 247.395 289.746 248.213 268.193L1827.74 451.481L1712 1448.87L132.476 1265.58Z" fill="url(#paint2_linear_61_700)"/>
</mask>
<g mask="url(#mask2_61_700)">
<path d="M963.367 528.601C1141.52 549.274 1273.48 720.261 1257.5 857.972C1241.52 995.683 1148.43 1168.04 957.29 1145.86C862.571 1134.86 736.882 1213.58 632.306 1131.94C525.85 1048.84 573.693 864.04 581.754 794.571C597.734 656.86 785.217 507.929 963.367 528.601Z" fill="#FFFB1F"/>
<g filter="url(#filter7_f_61_700)">
<path d="M959.862 540.148C1150.92 562.318 1272.34 710.22 1258.61 828.592C1244.87 946.964 1154.76 1093.94 963.695 1071.77C869.015 1060.78 744.516 1129.65 638.868 1057.65C531.322 984.358 576.093 825.935 583.022 766.222C596.758 647.85 768.801 517.977 959.862 540.148Z" fill="#FFFB1F"/>
</g>
<g filter="url(#filter8_f_61_700)">
<path d="M965.651 540.821C1179.79 565.671 1314.16 746.237 1297.23 892.175C1280.29 1038.11 1177.27 1220.26 963.131 1195.41C857.013 1183.09 714.827 1283.09 597.182 1195.78C477.424 1106.91 531.137 898.912 539.679 825.293C556.614 679.355 751.508 515.972 965.651 540.821Z" fill="#FFFB1F"/>
</g>
<g filter="url(#filter9_f_61_700)">
<path d="M988.36 560.973C1248.6 627.45 1445.63 842.145 1425.81 1012.95C1405.99 1183.75 1250.37 1352.82 993.552 1323.02C866.285 1308.25 681.079 1475.42 539.743 1372.82C395.869 1268.38 457.9 1039.49 467.899 953.325C487.718 782.523 686.892 483.963 988.36 560.973Z" fill="#FFFB1F"/>
</g>
<g filter="url(#filter10_f_61_700)">
<path d="M1069.42 640.434C1345.95 672.522 1558.47 920.209 1539.1 1087.2C1519.72 1254.2 1354.28 1417.96 1077.75 1385.87C940.715 1369.97 766.935 1414.39 613.777 1312.34C457.867 1208.46 521.981 985.071 531.756 900.83C551.134 733.836 792.887 608.345 1069.42 640.434Z" fill="#FFFB1F"/>
</g>
<g filter="url(#filter11_f_61_700)">
<path d="M1169.31 719.58C1455.08 752.741 1674.98 1006.37 1655.16 1177.17C1635.34 1347.97 1464.59 1515.29 1178.82 1482.13C1037.21 1465.7 857.705 1510.93 699.328 1406.35C538.105 1299.89 604.081 1071.46 614.079 985.298C633.899 814.496 883.541 686.42 1169.31 719.58Z" fill="#FFFB1F"/>
</g>
<g filter="url(#filter12_f_61_700)">
<path d="M957.525 667.478C1207.57 696.493 1396.72 946.551 1376.9 1117.35C1357.08 1288.15 1205 1457.64 954.952 1428.62C831.042 1414.25 675.319 1442.22 537.972 1340.08C398.158 1236.11 459.266 1007.11 469.264 920.95C489.084 750.149 707.477 638.462 957.525 667.478Z" fill="#FFFB1F"/>
</g>
</g>
<mask id="mask3_61_700" style="mask-type:alpha" maskUnits="userSpaceOnUse" x="249" y="290" width="1102" height="1504">
<path d="M249.215 403.801C688.473 351.539 1167.93 294.678 1189.63 290.628L1350.86 1679.84L410.441 1793.02L249.215 403.801Z" fill="url(#paint3_linear_61_700)"/>
</mask>
<g mask="url(#mask3_61_700)">
<path d="M1146.1 907.086C1157.81 1004.45 1066.97 1098.42 976.704 1109.29C886.434 1120.15 763.228 1094.99 750.657 990.534C744.427 938.769 676.52 883.178 714.071 816.267C752.297 748.154 877.128 747.573 922.664 742.093C1012.93 731.23 1134.38 809.725 1146.1 907.086Z" fill="#FF971B"/>
<g filter="url(#filter13_f_61_700)">
<path d="M1138.22 906.85C1150.79 1011.27 1081.61 1095.4 1011.53 1103.84C941.445 1112.27 844.734 1083.94 832.168 979.527C825.941 927.783 769.709 870.813 797.21 805.137C825.206 738.281 922.502 741.008 957.855 736.753C1027.94 728.319 1125.66 802.433 1138.22 906.85Z" fill="#FF971B"/>
</g>
<g filter="url(#filter14_f_61_700)">
<path d="M1138.6 910.011C1152.69 1027.04 1066.24 1122.42 979.704 1132.83C893.167 1143.24 774.289 1112.76 760.205 995.724C753.226 937.729 676.592 875.514 711.393 801.425C746.82 726.005 874.085 726.87 917.739 721.617C1004.28 711.202 1124.52 792.979 1138.6 910.011Z" fill="#FF971B"/>
</g>
<g filter="url(#filter15_f_61_700)">
<path d="M1111.97 926.965C1105.89 1074.28 996.221 1208.9 884.26 1222.37C772.299 1235.85 642.438 1177.08 625.547 1036.72C617.176 967.165 484.391 892.438 530.201 803.093C576.833 712.143 782.322 695.868 838.801 689.072C950.762 675.598 1119.01 756.308 1111.97 926.965Z" fill="#FF971B"/>
</g>
<g filter="url(#filter16_f_61_700)">
<path d="M1088.15 968.228C1106.33 1119.35 979.04 1277.61 869.575 1290.79C760.11 1303.96 632.269 1239.23 614.082 1088.11C605.07 1013.22 552.351 927.312 596.154 831.776C640.745 734.523 862.404 663.04 917.624 656.395C1027.09 643.222 1069.96 817.1 1088.15 968.228Z" fill="#FF971B"/>
</g>
<g filter="url(#filter17_f_61_700)">
<path d="M1052.83 1043.1C1071.63 1199.28 940.266 1351.48 828.305 1364.95C716.344 1378.43 585.488 1311.39 566.693 1155.21C557.379 1077.82 694.94 944.037 739.629 845.378C785.121 744.947 940.383 747.854 996.861 741.057C1108.82 727.583 1034.04 886.923 1052.83 1043.1Z" fill="#FF971B"/>
</g>
<g filter="url(#filter18_f_61_700)">
<path d="M1056.5 923.49C1072.94 1060.14 939.562 1195.54 827.601 1209.02C715.64 1222.49 586.011 1165.65 569.566 1029C561.416 961.281 521.739 882.642 567.811 795.477C614.711 706.746 769.653 706.992 826.132 700.195C938.092 686.722 1040.05 786.836 1056.5 923.49Z" fill="#FF971B"/>
</g>
</g>
<defs>
<filter id="filter0_f_61_700" x="-56.3864" y="344.925" width="1283.2" height="1079.16" filterUnits="userSpaceOnUse" color-interpolation-filters="sRGB">
<feFlood flood-opacity="0" result="BackgroundImageFix"/>
<feBlend mode="normal" in="SourceGraphic" in2="BackgroundImageFix" result="shape"/>
<feGaussianBlur stdDeviation="124.268" result="effect1_foregroundBlur_61_700"/>
</filter>
<filter id="filter1_f_61_700" x="120.429" y="567.925" width="525.685" height="619.731" filterUnits="userSpaceOnUse" color-interpolation-filters="sRGB">
<feFlood flood-opacity="0" result="BackgroundImageFix"/>
<feBlend mode="normal" in="SourceGraphic" in2="BackgroundImageFix" result="shape"/>
<feGaussianBlur stdDeviation="4.97072" result="effect1_foregroundBlur_61_700"/>
</filter>
<filter id="filter2_f_61_700" x="97.1953" y="526.264" width="680.024" height="761.782" filterUnits="userSpaceOnUse" color-interpolation-filters="sRGB">
<feFlood flood-opacity="0" result="BackgroundImageFix"/>
<feBlend mode="normal" in="SourceGraphic" in2="BackgroundImageFix" result="shape"/>
<feGaussianBlur stdDeviation="17.3975" result="effect1_foregroundBlur_61_700"/>
</filter>
<filter id="filter3_f_61_700" x="98.0221" y="471.915" width="909.825" height="980.236" filterUnits="userSpaceOnUse" color-interpolation-filters="sRGB">
<feFlood flood-opacity="0" result="BackgroundImageFix"/>
<feBlend mode="normal" in="SourceGraphic" in2="BackgroundImageFix" result="shape"/>
<feGaussianBlur stdDeviation="24.8536" result="effect1_foregroundBlur_61_700"/>
</filter>
<filter id="filter4_f_61_700" x="19.4077" y="315.892" width="1136.15" height="1143.33" filterUnits="userSpaceOnUse" color-interpolation-filters="sRGB">
<feFlood flood-opacity="0" result="BackgroundImageFix"/>
<feBlend mode="normal" in="SourceGraphic" in2="BackgroundImageFix" result="shape"/>
<feGaussianBlur stdDeviation="67.1047" result="effect1_foregroundBlur_61_700"/>
</filter>
<filter id="filter5_f_61_700" x="-181.879" y="54.4061" width="1654.42" height="1461.52" filterUnits="userSpaceOnUse" color-interpolation-filters="sRGB">
<feFlood flood-opacity="0" result="BackgroundImageFix"/>
<feBlend mode="normal" in="SourceGraphic" in2="BackgroundImageFix" result="shape"/>
<feGaussianBlur stdDeviation="166.519" result="effect1_foregroundBlur_61_700"/>
</filter>
<filter id="filter6_f_61_700" x="77.2658" y="428.631" width="1098.34" height="1107.07" filterUnits="userSpaceOnUse" color-interpolation-filters="sRGB">
<feFlood flood-opacity="0" result="BackgroundImageFix"/>
<feBlend mode="normal" in="SourceGraphic" in2="BackgroundImageFix" result="shape"/>
<feGaussianBlur stdDeviation="77.0461" result="effect1_foregroundBlur_61_700"/>
</filter>
<filter id="filter7_f_61_700" x="557.972" y="527.714" width="711.63" height="573.175" filterUnits="userSpaceOnUse" color-interpolation-filters="sRGB">
<feFlood flood-opacity="0" result="BackgroundImageFix"/>
<feBlend mode="normal" in="SourceGraphic" in2="BackgroundImageFix" result="shape"/>
<feGaussianBlur stdDeviation="4.97072" result="effect1_foregroundBlur_61_700"/>
</filter>
<filter id="filter8_f_61_700" x="485.513" y="503.504" width="847.944" height="763.195" filterUnits="userSpaceOnUse" color-interpolation-filters="sRGB">
<feFlood flood-opacity="0" result="BackgroundImageFix"/>
<feBlend mode="normal" in="SourceGraphic" in2="BackgroundImageFix" result="shape"/>
<feGaussianBlur stdDeviation="17.3975" result="effect1_foregroundBlur_61_700"/>
</filter>
<filter id="filter9_f_61_700" x="396.352" y="498.815" width="1080.54" height="957.218" filterUnits="userSpaceOnUse" color-interpolation-filters="sRGB">
<feFlood flood-opacity="0" result="BackgroundImageFix"/>
<feBlend mode="normal" in="SourceGraphic" in2="BackgroundImageFix" result="shape"/>
<feGaussianBlur stdDeviation="24.8536" result="effect1_foregroundBlur_61_700"/>
</filter>
<filter id="filter10_f_61_700" x="376.238" y="501.194" width="1298.29" height="1022.94" filterUnits="userSpaceOnUse" color-interpolation-filters="sRGB">
<feFlood flood-opacity="0" result="BackgroundImageFix"/>
<feBlend mode="normal" in="SourceGraphic" in2="BackgroundImageFix" result="shape"/>
<feGaussianBlur stdDeviation="67.1047" result="effect1_foregroundBlur_61_700"/>
</filter>
<filter id="filter11_f_61_700" x="259.247" y="381.291" width="1730.19" height="1438.11" filterUnits="userSpaceOnUse" color-interpolation-filters="sRGB">
<feFlood flood-opacity="0" result="BackgroundImageFix"/>
<feBlend mode="normal" in="SourceGraphic" in2="BackgroundImageFix" result="shape"/>
<feGaussianBlur stdDeviation="166.519" result="effect1_foregroundBlur_61_700"/>
</filter>
<filter id="filter12_f_61_700" x="293.31" y="508.804" width="1239.11" height="1077.17" filterUnits="userSpaceOnUse" color-interpolation-filters="sRGB">
<feFlood flood-opacity="0" result="BackgroundImageFix"/>
<feBlend mode="normal" in="SourceGraphic" in2="BackgroundImageFix" result="shape"/>
<feGaussianBlur stdDeviation="77.0461" result="effect1_foregroundBlur_61_700"/>
</filter>
<filter id="filter13_f_61_700" x="783.162" y="729.58" width="363.069" height="382.175" filterUnits="userSpaceOnUse" color-interpolation-filters="sRGB">
<feFlood flood-opacity="0" result="BackgroundImageFix"/>
<feBlend mode="normal" in="SourceGraphic" in2="BackgroundImageFix" result="shape"/>
<feGaussianBlur stdDeviation="3.25995" result="effect1_foregroundBlur_61_700"/>
</filter>
<filter id="filter14_f_61_700" x="679.553" y="697.904" width="483.386" height="459.649" filterUnits="userSpaceOnUse" color-interpolation-filters="sRGB">
<feFlood flood-opacity="0" result="BackgroundImageFix"/>
<feBlend mode="normal" in="SourceGraphic" in2="BackgroundImageFix" result="shape"/>
<feGaussianBlur stdDeviation="11.4098" result="effect1_foregroundBlur_61_700"/>
</filter>
<filter id="filter15_f_61_700" x="488.014" y="655.025" width="656.768" height="601.825" filterUnits="userSpaceOnUse" color-interpolation-filters="sRGB">
<feFlood flood-opacity="0" result="BackgroundImageFix"/>
<feBlend mode="normal" in="SourceGraphic" in2="BackgroundImageFix" result="shape"/>
<feGaussianBlur stdDeviation="16.2998" result="effect1_foregroundBlur_61_700"/>
</filter>
<filter id="filter16_f_61_700" x="490.957" y="567.671" width="686.956" height="812.799" filterUnits="userSpaceOnUse" color-interpolation-filters="sRGB">
<feFlood flood-opacity="0" result="BackgroundImageFix"/>
<feBlend mode="normal" in="SourceGraphic" in2="BackgroundImageFix" result="shape"/>
<feGaussianBlur stdDeviation="44.0093" result="effect1_foregroundBlur_61_700"/>
</filter>
<filter id="filter17_f_61_700" x="347.825" y="521.842" width="930.701" height="1063.22" filterUnits="userSpaceOnUse" color-interpolation-filters="sRGB">
<feFlood flood-opacity="0" result="BackgroundImageFix"/>
<feBlend mode="normal" in="SourceGraphic" in2="BackgroundImageFix" result="shape"/>
<feGaussianBlur stdDeviation="109.208" result="effect1_foregroundBlur_61_700"/>
</filter>
<filter id="filter18_f_61_700" x="444.859" y="597.922" width="714.082" height="714.082" filterUnits="userSpaceOnUse" color-interpolation-filters="sRGB">
<feFlood flood-opacity="0" result="BackgroundImageFix"/>
<feBlend mode="normal" in="SourceGraphic" in2="BackgroundImageFix" result="shape"/>
<feGaussianBlur stdDeviation="50.5292" result="effect1_foregroundBlur_61_700"/>
</filter>
<linearGradient id="paint0_linear_61_700" x1="457.501" y1="616.512" x2="276.516" y2="1073.66" gradientUnits="userSpaceOnUse">
<stop stop-color="#C4C4C4"/>
<stop offset="0.943414" stop-color="#C4C4C4" stop-opacity="0"/>
</linearGradient>
<linearGradient id="paint1_linear_61_700" x1="295.075" y1="807.881" x2="776.967" y2="1112.37" gradientUnits="userSpaceOnUse">
<stop stop-color="#C4C4C4"/>
<stop offset="1" stop-color="#C4C4C4" stop-opacity="0"/>
</linearGradient>
<linearGradient id="paint2_linear_61_700" x1="890.285" y1="502.829" x2="830.806" y2="1211.89" gradientUnits="userSpaceOnUse">
<stop stop-color="#C4C4C4"/>
<stop offset="1" stop-color="#C4C4C4" stop-opacity="0"/>
</linearGradient>
<linearGradient id="paint3_linear_61_700" x1="993.627" y1="881.026" x2="409.702" y2="889.896" gradientUnits="userSpaceOnUse">
<stop stop-color="#C4C4C4"/>
<stop offset="1" stop-color="#C4C4C4" stop-opacity="0"/>
</linearGradient>
</defs>
</svg>
