<svg width="130" height="36.759" fill="none" xmlns="http://www.w3.org/2000/svg"><defs><clipPath id="a"><rect rx="-.448" width="129.103" height="35.862" transform="translate(.448 .448)" fill="#fff" fill-opacity="0"/></clipPath></defs><rect rx="-.448" width="129.103" height="35.862" transform="translate(.448 .448)"/><g clip-path="url(#a)"><path d="M20.36 27.31h-5.6c-8.75 0-2.39-18.57 4.97-18.57h8.86c1.42 0 3.92.26 5.15-3.25L35.65.03H23.5c-6.57 0-11.69 2.32-15.39 6.21-6.39 6.65-8.56 17.04-7.03 22.01 1.46 4.59 5.42 7.62 11.62 7.7l4.82.03h5.95l1.45-4.37c1.09-3.1-1.34-4.3-4.56-4.3zm68.24-7.7l1.84-5.94H70.89c-3.25 0-4.71.9-5.27 2.77l-1.83 5.94h19.55c3.25 0 4.7-.9 5.26-2.77zM60.88 30.08l-1.84 5.94h19.55c3.21 0 4.71-.9 5.27-2.76l1.83-5.95H66.14c-3.21 0-4.67.9-5.26 2.77zM93.16 6.01L95 .07H75.45c-3.25 0-4.71.9-5.27 2.76l-1.83 5.95h19.54c3.22 0 4.68-.9 5.27-2.77zm-29.52 1.2C62.82 1.68 59.87.07 52.69.07H39.61l-7.62 22.31h4.82c2.88 0 4.33.04 5.87-4.07l3.17-9.57h4.86c4.15 0 3.21 5.19 1.12 10.24-1.87 4.45-5.12 8.37-9.04 8.37h-8.11c-3.25 0-4.75.9-5.35 2.77l-2.01 5.94h5.94l5.83-.04c5.15-.04 9.38-.41 14.31-4.86 5.23-4.74 11.29-16.93 10.24-23.95zm65.7-7.18h-11.32l-10.65 11.33c-1.24 1.3-2.51 2.61-3.74 4.14h-.11l5.3-15.47h-9.23L87.15 36.02h9.23l3.96-11.32 4.11-3.48 3.25 10.24c1.01 3.18 2.06 4.56 4.3 4.56h7.06l-7.25-20.11L129.34.03z" fill="#FFF" fill-rule="evenodd"/></g></svg>