<svg width="120" height="120" viewBox="0 0 120 120" fill="none" xmlns="http://www.w3.org/2000/svg">
<path d="M27.3446 41.1464L60 22.2928L92.6554 41.1464V78.8536L60 97.7072L27.3446 78.8536V41.1464Z" stroke="url(#paint0_linear_32_11)" stroke-width="1.2"/>
<path d="M31.5016 43.5464L60 27.0928L88.4985 43.5464V76.4536L60 92.9072L31.5016 76.4536V43.5464Z" stroke="url(#paint1_linear_32_11)" stroke-width="1.2"/>
<path d="M35.6585 45.9464L60 31.8928L84.3415 45.9464V74.0536L60 88.1072L35.6585 74.0536V45.9464Z" stroke="url(#paint2_linear_32_11)" stroke-width="1.2"/>
<path d="M39.8154 48.3464L60 36.6928L80.1846 48.3464V71.6536L60 83.3072L39.8154 71.6536V48.3464Z" stroke="url(#paint3_linear_32_11)" stroke-width="1.2"/>
<path d="M43.9723 50.7464L60 41.4928L76.0277 50.7464V69.2536L60 78.5072L43.9723 69.2536V50.7464Z" stroke="url(#paint4_linear_32_11)" stroke-width="1.2"/>
<path d="M60 45.6L72.4708 52.8V67.2L60 74.4L47.5292 67.2V52.8L60 45.6Z" fill="url(#paint5_linear_32_11)"/>
<defs>
<linearGradient id="paint0_linear_32_11" x1="26.7446" y1="60" x2="93.2554" y2="60" gradientUnits="userSpaceOnUse">
<stop stop-color="#9FE11F"/>
<stop offset="0.58" stop-color="#FFDD48"/>
<stop offset="1" stop-color="#FF9217"/>
</linearGradient>
<linearGradient id="paint1_linear_32_11" x1="30.9016" y1="60" x2="89.0985" y2="60" gradientUnits="userSpaceOnUse">
<stop stop-color="#9FE11F"/>
<stop offset="0.58" stop-color="#FFDD48"/>
<stop offset="1" stop-color="#FF9217"/>
</linearGradient>
<linearGradient id="paint2_linear_32_11" x1="35.0585" y1="60" x2="84.9415" y2="60" gradientUnits="userSpaceOnUse">
<stop stop-color="#9FE11F"/>
<stop offset="0.58" stop-color="#FFDD48"/>
<stop offset="1" stop-color="#FF9217"/>
</linearGradient>
<linearGradient id="paint3_linear_32_11" x1="39.2154" y1="60" x2="80.7846" y2="60" gradientUnits="userSpaceOnUse">
<stop stop-color="#9FE11F"/>
<stop offset="0.58" stop-color="#FFDD48"/>
<stop offset="1" stop-color="#FF9217"/>
</linearGradient>
<linearGradient id="paint4_linear_32_11" x1="43.3723" y1="60" x2="76.6277" y2="60" gradientUnits="userSpaceOnUse">
<stop stop-color="#9FE11F"/>
<stop offset="0.58" stop-color="#FFDD48"/>
<stop offset="1" stop-color="#FF9217"/>
</linearGradient>
<linearGradient id="paint5_linear_32_11" x1="47.5292" y1="60" x2="72.4708" y2="60" gradientUnits="userSpaceOnUse">
<stop stop-color="#9FE11F"/>
<stop offset="0.58" stop-color="#FFDD48"/>
<stop offset="1" stop-color="#FF9217"/>
</linearGradient>
</defs>
</svg>
