<svg width="1160" height="677" viewBox="0 0 1160 677" fill="none" xmlns="http://www.w3.org/2000/svg">
    <circle cx="1022" cy="405" r="5" fill="#F5DE44"/>
    <path d="M679 5H799" stroke="url(#paint0_linear_0_1)" stroke-dasharray="8 8"/>
    <path d="M1099 5H1144C1152.28 5 1159 11.7157 1159 20V235" stroke="url(#paint1_linear_0_1)"/>
    <path d="M5 553L0 543H10L5 553Z" fill="#9FE11F"/>
    <path d="M1022 410V487.231C1022 495.516 1015.28 502.231 1007 502.231H20C11.7158 502.231 5 508.947 5 517.231V545"
          stroke="url(#paint2_linear_0_1)"/>
    <line x1="259" y1="5.5" x2="379" y2="5.5" stroke="url(#paint3_linear_0_1)" stroke-dasharray="8 8"/>
    <circle cx="259" cy="6" r="5" fill="#FF971B"/>
    <circle cx="678" cy="6" r="5" fill="#FF971B"/>
    <path d="M800 5L790 10V0L800 5Z" fill="#9FE11F"/>
    <line x1="259" y1="671.5" x2="379" y2="671.5" stroke="url(#paint4_linear_0_1)" stroke-dasharray="8 8"/>
    <circle cx="259" cy="672" r="5" fill="#FF971B"/>
    <defs>
        <linearGradient id="paint0_linear_0_1" x1="679" y1="5.5" x2="799" y2="5.5" gradientUnits="userSpaceOnUse">
            <stop stop-color="#9FE11F"/>
            <stop offset="0.58" stop-color="#FFDD48"/>
            <stop offset="1" stop-color="#FF9217"/>
        </linearGradient>
        <linearGradient id="paint1_linear_0_1" x1="1099" y1="120" x2="1159" y2="120" gradientUnits="userSpaceOnUse">
            <stop stop-color="#9FE11F"/>
            <stop offset="0.58" stop-color="#FFDD48"/>
            <stop offset="1" stop-color="#FF9217"/>
        </linearGradient>
        <linearGradient id="paint2_linear_0_1" x1="5" y1="477.5" x2="1022" y2="477.5" gradientUnits="userSpaceOnUse">
            <stop stop-color="#9FE11F"/>
            <stop offset="0.58" stop-color="#FFDD48"/>
            <stop offset="1" stop-color="#FF9217"/>
        </linearGradient>
        <linearGradient id="paint3_linear_0_1" x1="259" y1="6.5" x2="379" y2="6.5" gradientUnits="userSpaceOnUse">
            <stop stop-color="#9FE11F"/>
            <stop offset="0.58" stop-color="#FFDD48"/>
            <stop offset="1" stop-color="#FF9217"/>
        </linearGradient>
        <linearGradient id="paint4_linear_0_1" x1="259" y1="672.5" x2="379" y2="672.5" gradientUnits="userSpaceOnUse">
            <stop stop-color="#9FE11F"/>
            <stop offset="0.58" stop-color="#FFDD48"/>
            <stop offset="1" stop-color="#FF9217"/>
        </linearGradient>
    </defs>
</svg>
