<svg width="130.000000" height="36.758789" viewBox="0 0 130 36.7588" fill="none" xmlns="http://www.w3.org/2000/svg" xmlns:xlink="http://www.w3.org/1999/xlink">
	<desc>
			Created with Pixso.
	</desc>
	<defs>
		<clipPath id="clip67_35">
			<rect id="qM_iunSPfdRp-erXaYEcoamPfZm_-Mv_ 1" rx="-0.448276" width="129.103455" height="35.862068" transform="translate(0.448276 0.448276)" fill="white" fill-opacity="0"/>
		</clipPath>
	</defs>
	<rect id="qM_iunSPfdRp-erXaYEcoamPfZm_-Mv_ 1" rx="-0.448276" width="129.103455" height="35.862068" transform="translate(0.448276 0.448276)" fill="#FFFFFF" fill-opacity="0"/>
	<g clip-path="url(#clip67_35)">
		<path id="Vector" d="M20.36 27.31L14.76 27.31C6.01 27.31 12.37 8.74 19.73 8.74L28.59 8.74C30.01 8.74 32.51 9 33.74 5.49L35.65 0.03L23.5 0.03C16.93 0.03 11.81 2.35 8.11 6.24C1.72 12.89 -0.45 23.28 1.08 28.25C2.54 32.84 6.5 35.87 12.7 35.95L17.52 35.98L23.47 35.98L24.92 31.61C26.01 28.51 23.58 27.31 20.36 27.31ZM88.6 19.61L90.44 13.67L70.89 13.67C67.64 13.67 66.18 14.57 65.62 16.44L63.79 22.38L83.34 22.38C86.59 22.38 88.04 21.48 88.6 19.61ZM60.88 30.08L59.04 36.02L78.59 36.02C81.8 36.02 83.3 35.12 83.86 33.26L85.69 27.31L66.14 27.31C62.93 27.31 61.47 28.21 60.88 30.08ZM93.16 6.01L95 0.07L75.45 0.07C72.2 0.07 70.74 0.97 70.18 2.83L68.35 8.78L87.89 8.78C91.11 8.78 92.57 7.88 93.16 6.01ZM63.64 7.21C62.82 1.68 59.87 0.07 52.69 0.07L39.61 0.07L31.99 22.38L36.81 22.38C39.69 22.38 41.14 22.42 42.68 18.31L45.85 8.74L50.71 8.74C54.86 8.74 53.92 13.93 51.83 18.98C49.96 23.43 46.71 27.35 42.79 27.35L34.68 27.35C31.43 27.35 29.93 28.25 29.33 30.12L27.32 36.06L33.26 36.06L39.09 36.02C44.24 35.98 48.47 35.61 53.4 31.16C58.63 26.42 64.69 14.23 63.64 7.21ZM129.34 0.03L118.02 0.03L107.37 11.36C106.13 12.66 104.86 13.97 103.63 15.5L103.52 15.5L108.82 0.03L99.59 0.03L87.15 36.02L96.38 36.02L100.34 24.7L104.45 21.22L107.7 31.46C108.71 34.64 109.76 36.02 112 36.02L119.06 36.02L111.81 15.91L129.34 0.03Z" fill="#FFFFFF" fill-opacity="1.000000" fill-rule="evenodd"/>
	</g>
</svg>
