<svg width="120" height="120" viewBox="0 0 120 120" fill="none" xmlns="http://www.w3.org/2000/svg">
<path d="M73.4354 60C73.4354 70.5728 71.5778 80.1304 68.5864 87.0336C67.0905 90.4857 65.317 93.2603 63.3629 95.1676C61.4102 97.0736 59.2927 98.1 57.0954 98.1C54.8982 98.1 52.7807 97.0736 50.828 95.1676C48.8739 93.2603 47.1004 90.4857 45.6045 87.0336C42.6131 80.1304 40.7554 70.5728 40.7554 60C40.7554 49.4271 42.6131 39.8695 45.6045 32.9664C47.1004 29.5143 48.8739 26.7397 50.828 24.8323C52.7807 22.9263 54.8982 21.9 57.0954 21.9C59.2927 21.9 61.4102 22.9263 63.3629 24.8323C65.317 26.7397 67.0905 29.5143 68.5864 32.9664C71.5778 39.8695 73.4354 49.4271 73.4354 60Z" stroke="url(#paint0_linear_17_119)" stroke-width="0.6"/>
<path d="M75.9954 60C75.9954 70.5728 74.1378 80.1304 71.1464 87.0336C69.6505 90.4857 67.877 93.2603 65.9229 95.1676C63.9702 97.0736 61.8527 98.1 59.6554 98.1C57.4582 98.1 55.3407 97.0736 53.388 95.1676C51.4339 93.2603 49.6604 90.4857 48.1645 87.0336C45.1731 80.1304 43.3154 70.5728 43.3154 60C43.3154 49.4271 45.1731 39.8695 48.1645 32.9664C49.6604 29.5143 51.4339 26.7397 53.388 24.8323C55.3407 22.9263 57.4582 21.9 59.6554 21.9C61.8527 21.9 63.9702 22.9263 65.9229 24.8323C67.877 26.7397 69.6505 29.5143 71.1464 32.9664C74.1378 39.8695 75.9954 49.4271 75.9954 60Z" stroke="url(#paint1_linear_17_119)" stroke-width="0.6"/>
<path d="M78.5554 60C78.5554 70.5728 76.6978 80.1304 73.7064 87.0336C72.2105 90.4857 70.437 93.2603 68.4829 95.1676C66.5302 97.0736 64.4127 98.1 62.2154 98.1C60.0182 98.1 57.9007 97.0736 55.9479 95.1676C53.9939 93.2603 52.2203 90.4857 50.7244 87.0336C47.7331 80.1304 45.8754 70.5728 45.8754 60C45.8754 49.4271 47.7331 39.8695 50.7244 32.9664C52.2203 29.5143 53.9939 26.7397 55.9479 24.8323C57.9007 22.9263 60.0182 21.9 62.2154 21.9C64.4127 21.9 66.5302 22.9263 68.4829 24.8323C70.437 26.7397 72.2105 29.5143 73.7064 32.9664C76.6978 39.8695 78.5554 49.4271 78.5554 60Z" stroke="url(#paint2_linear_17_119)" stroke-width="0.6"/>
<path d="M66.5454 48.0662C75.7018 53.3526 83.0501 59.7402 87.5327 65.7824C89.7744 68.8039 91.2905 71.7271 91.9653 74.3731C92.6395 77.0172 92.4696 79.3642 91.371 81.2671C90.2724 83.1699 88.3248 84.4906 85.6978 85.2287C83.0689 85.9673 79.7793 86.1159 76.0417 85.6854C68.5677 84.8244 59.3618 81.6543 50.2054 76.3679C41.0491 71.0815 33.7008 64.694 29.2181 58.6518C26.9765 55.6302 25.4604 52.707 24.7856 50.0611C24.1113 47.417 24.2812 45.0699 25.3799 43.1671C26.4785 41.2642 28.4261 39.9435 31.0531 39.2054C33.6819 38.4668 36.9716 38.3182 40.7091 38.7488C48.1831 39.6098 57.3891 42.7798 66.5454 48.0662Z" stroke="url(#paint3_linear_17_119)" stroke-width="0.6"/>
<path d="M67.8254 45.8492C76.9817 51.1356 84.33 57.5232 88.8127 63.5654C91.0543 66.5869 92.5705 69.5101 93.2452 72.1561C93.9195 74.8002 93.7496 77.1472 92.651 79.05C91.5523 80.9529 89.6047 82.2736 86.9777 83.0117C84.3489 83.7503 81.0592 83.8989 77.3217 83.4683C69.8477 82.6074 60.6417 79.4373 51.4854 74.1509C42.3291 68.8645 34.9807 62.4769 30.4981 56.4347C28.2565 53.4132 26.7403 50.49 26.0656 47.844C25.3913 45.1999 25.5612 42.8529 26.6598 40.95C27.7584 39.0472 29.7061 37.7265 32.3331 36.9884C34.9619 36.2498 38.2516 36.1012 41.9891 36.5317C49.4631 37.3927 58.6691 40.5628 67.8254 45.8492Z" stroke="url(#paint4_linear_17_119)" stroke-width="0.6"/>
<path d="M69.1054 43.6322C78.2618 48.9186 85.6101 55.3062 90.0927 61.3484C92.3344 64.3699 93.8505 67.2931 94.5253 69.9391C95.1995 72.5832 95.0296 74.9302 93.931 76.8331C92.8324 78.7359 90.8848 80.0566 88.2578 80.7947C85.6289 81.5333 82.3393 81.6819 78.6017 81.2514C71.1277 80.3904 61.9218 77.2203 52.7654 71.9339C43.6091 66.6475 36.2608 60.2599 31.7781 54.2177C29.5365 51.1962 28.0204 48.273 27.3456 45.627C26.6713 42.9829 26.8412 40.6359 27.9399 38.7331C29.0385 36.8302 30.9861 35.5095 33.6131 34.7714C36.2419 34.0328 39.5316 33.8842 43.2691 34.3148C50.7431 35.1757 59.9491 38.3458 69.1054 43.6322Z" stroke="url(#paint5_linear_17_119)" stroke-width="0.6"/>
<path d="M52.7654 48.0662C43.609 53.3526 36.2607 59.7402 31.7781 65.7824C29.5364 68.8039 28.0203 71.7271 27.3455 74.3731C26.6713 77.0172 26.8412 79.3642 27.9398 81.2671C29.0384 83.1699 30.986 84.4906 33.613 85.2287C36.2419 85.9673 39.5315 86.1159 43.2691 85.6854C50.7431 84.8244 59.949 81.6543 69.1054 76.3679C78.2617 71.0815 85.61 64.694 90.0927 58.6518C92.3343 55.6302 93.8504 52.707 94.5252 50.0611C95.1995 47.417 95.0296 45.0699 93.9309 43.1671C92.8323 41.2642 90.8847 39.9435 88.2577 39.2054C85.6289 38.4668 82.3392 38.3182 78.6017 38.7488C71.1277 39.6098 61.9217 42.7798 52.7654 48.0662Z" stroke="url(#paint6_linear_17_119)" stroke-width="0.6"/>
<path d="M51.4853 45.8492C42.329 51.1356 34.9807 57.5232 30.498 63.5654C28.2564 66.5869 26.7403 69.5101 26.0655 72.1561C25.3912 74.8002 25.5612 77.1472 26.6598 79.05C27.7584 80.9529 29.706 82.2736 32.333 83.0117C34.9619 83.7503 38.2515 83.8989 41.989 83.4683C49.463 82.6074 58.669 79.4373 67.8253 74.1509C76.9817 68.8645 84.33 62.4769 88.8126 56.4347C91.0543 53.4132 92.5704 50.49 93.2452 47.844C93.9194 45.1999 93.7495 42.8529 92.6509 40.95C91.5523 39.0472 89.6047 37.7265 86.9777 36.9884C84.3488 36.2498 81.0592 36.1012 77.3216 36.5317C69.8476 37.3927 60.6417 40.5628 51.4853 45.8492Z" stroke="url(#paint7_linear_17_119)" stroke-width="0.6"/>
<path d="M50.2054 43.6322C41.049 48.9186 33.7007 55.3062 29.2181 61.3484C26.9764 64.3699 25.4603 67.2931 24.7855 69.9391C24.1113 72.5832 24.2812 74.9302 25.3798 76.8331C26.4784 78.7359 28.426 80.0566 31.053 80.7947C33.6819 81.5333 36.9715 81.6819 40.7091 81.2514C48.1831 80.3904 57.389 77.2203 66.5454 71.9339C75.7017 66.6475 83.05 60.2599 87.5327 54.2177C89.7743 51.1962 91.2904 48.273 91.9652 45.627C92.6395 42.9829 92.4696 40.6359 91.3709 38.7331C90.2723 36.8302 88.3247 35.5095 85.6977 34.7714C83.0689 34.0328 79.7792 33.8842 76.0417 34.3148C68.5677 35.1757 59.3617 38.3458 50.2054 43.6322Z" stroke="url(#paint8_linear_17_119)" stroke-width="0.6"/>
<defs>
<linearGradient id="paint0_linear_17_119" x1="40.4554" y1="60" x2="73.7354" y2="60" gradientUnits="userSpaceOnUse">
<stop stop-color="#9FE11F"/>
<stop offset="0.58" stop-color="#FFDD48"/>
<stop offset="1" stop-color="#FF9217"/>
</linearGradient>
<linearGradient id="paint1_linear_17_119" x1="43.0154" y1="60" x2="76.2954" y2="60" gradientUnits="userSpaceOnUse">
<stop stop-color="#9FE11F"/>
<stop offset="0.58" stop-color="#FFDD48"/>
<stop offset="1" stop-color="#FF9217"/>
</linearGradient>
<linearGradient id="paint2_linear_17_119" x1="45.5754" y1="60" x2="78.8554" y2="60" gradientUnits="userSpaceOnUse">
<stop stop-color="#9FE11F"/>
<stop offset="0.58" stop-color="#FFDD48"/>
<stop offset="1" stop-color="#FF9217"/>
</linearGradient>
<linearGradient id="paint3_linear_17_119" x1="50.0554" y1="76.6277" x2="66.6954" y2="47.8064" gradientUnits="userSpaceOnUse">
<stop stop-color="#9FE11F"/>
<stop offset="0.58" stop-color="#FFDD48"/>
<stop offset="1" stop-color="#FF9217"/>
</linearGradient>
<linearGradient id="paint4_linear_17_119" x1="51.3354" y1="74.4107" x2="67.9754" y2="45.5894" gradientUnits="userSpaceOnUse">
<stop stop-color="#9FE11F"/>
<stop offset="0.58" stop-color="#FFDD48"/>
<stop offset="1" stop-color="#FF9217"/>
</linearGradient>
<linearGradient id="paint5_linear_17_119" x1="52.6154" y1="72.1937" x2="69.2554" y2="43.3724" gradientUnits="userSpaceOnUse">
<stop stop-color="#9FE11F"/>
<stop offset="0.58" stop-color="#FFDD48"/>
<stop offset="1" stop-color="#FF9217"/>
</linearGradient>
<linearGradient id="paint6_linear_17_119" x1="69.2554" y1="76.6277" x2="52.6154" y2="47.8064" gradientUnits="userSpaceOnUse">
<stop stop-color="#9FE11F"/>
<stop offset="0.58" stop-color="#FFDD48"/>
<stop offset="1" stop-color="#FF9217"/>
</linearGradient>
<linearGradient id="paint7_linear_17_119" x1="67.9753" y1="74.4107" x2="51.3353" y2="45.5894" gradientUnits="userSpaceOnUse">
<stop stop-color="#9FE11F"/>
<stop offset="0.58" stop-color="#FFDD48"/>
<stop offset="1" stop-color="#FF9217"/>
</linearGradient>
<linearGradient id="paint8_linear_17_119" x1="66.6954" y1="72.1937" x2="50.0554" y2="43.3724" gradientUnits="userSpaceOnUse">
<stop stop-color="#9FE11F"/>
<stop offset="0.58" stop-color="#FFDD48"/>
<stop offset="1" stop-color="#FF9217"/>
</linearGradient>
</defs>
</svg>
